<svg width="3500" height="2000" viewBox="0 0 3500 2000" fill="none" xmlns="http://www.w3.org/2000/svg">
  <rect width="3500" height="2000" fill="#0B0B0C" />
  <g clip-path="url(#clip0_3805_809)">
    <rect width="3500" height="2000" fill="#ffffff55" />
    <rect width="3500" height="2000" fill="#0B0B0C" />
    <g filter="url(#filter0_f_3805_809)">
      <ellipse cx="1731.5" cy="-243.5" rx="1689.5" ry="529.5" fill="url(#paint0_linear_3805_809)" fill-opacity="0.3" />
    </g>
    <g opacity="0.8">
      <g style="mix-blend-mode:overlay">
        <circle cx="1.36569" cy="1.36569" r="1.36569"
          transform="matrix(-0.74061 0.671935 -0.931539 -0.36364 3429.77 223.948)" fill="#ffffff55" />
        <circle cx="1.36569" cy="1.36569" r="1.36569"
          transform="matrix(-0.74061 0.671935 -0.931539 -0.36364 3258.58 222.872)" fill="#ffffff55" />
        <circle cx="1.36569" cy="1.36569" r="1.36569"
          transform="matrix(-0.74061 0.671935 -0.931539 -0.36364 3370.82 289.757)" fill="#ffffff55" />
        <circle cx="1.36569" cy="1.36569" r="1.36569"
          transform="matrix(-0.74061 0.671935 -0.931539 -0.36364 3261.01 319.639)" fill="#ffffff55" />
        <circle cx="1.36569" cy="1.36569" r="1.36569"
          transform="matrix(-0.74061 0.671935 -0.931539 -0.36364 3329.6 161.741)" fill="#ffffff55" />
        <ellipse cx="1.36569" cy="1.36569" rx="1.36569" ry="1.36569"
          transform="matrix(-1.09148 -0.177339 0.474274 -0.743156 3196.39 270.07)" fill="#ffffff55" />
        <circle cx="1.36569" cy="1.36569" r="1.36569"
          transform="matrix(-1.09148 -0.177339 0.474274 -0.743156 3173.22 214.322)" fill="#ffffff55" />
        <circle cx="1.36569" cy="1.36569" r="1.36569"
          transform="matrix(-1.09148 -0.177339 0.474274 -0.743156 3159.89 106.037)" fill="#ffffff55" />
        <circle cx="1.36569" cy="1.36569" r="1.36569"
          transform="matrix(-1.09148 -0.177339 0.474274 -0.743156 3067.5 205.505)" fill="#ffffff55" />
        <circle cx="1.36569" cy="1.36569" r="1.36569"
          transform="matrix(-1.09148 -0.177339 0.474274 -0.743156 3012.24 149.198)" fill="#ffffff55" />
        <circle cx="1.36569" cy="1.36569" r="1.36569"
          transform="matrix(-1.09148 -0.177339 0.474274 -0.743156 3259.52 124.462)" fill="#ffffff55" />
        <circle cx="1.36569" cy="1.36569" r="1.36569"
          transform="matrix(-0.107415 -0.737144 1.18521 -0.200873 2899.73 439.766)" fill="#ffffff55" />
        <circle cx="1.36569" cy="1.36569" r="1.36569"
          transform="matrix(-0.107415 -0.737144 1.18521 -0.200873 2969.61 391.087)" fill="#ffffff55" />
        <circle cx="1.36569" cy="1.36569" r="1.36569"
          transform="matrix(-0.107415 -0.737144 1.18521 -0.200873 3115.6 314.661)" fill="#ffffff55" />
        <circle cx="1.36569" cy="1.36569" r="1.36569"
          transform="matrix(-0.107415 -0.737144 1.18521 -0.200873 2947.61 325.002)" fill="#ffffff55" />
        <circle cx="1.36569" cy="1.36569" r="1.36569"
          transform="matrix(-0.107415 -0.737144 1.18521 -0.200873 3007.86 257.611)" fill="#ffffff55" />
        <circle cx="1.36569" cy="1.36569" r="1.36569"
          transform="matrix(-0.107415 -0.737144 1.18521 -0.200873 3122.3 383.363)" fill="#ffffff55" />
      </g>
      <g style="mix-blend-mode:overlay">
        <circle cx="1.36569" cy="1.36569" r="1.36569"
          transform="matrix(-0.74061 0.671935 -0.931539 -0.36364 3429.77 223.948)" fill="#ffffff55" />
        <circle cx="1.36569" cy="1.36569" r="1.36569"
          transform="matrix(-0.74061 0.671935 -0.931539 -0.36364 3258.58 222.872)" fill="#ffffff55" />
        <circle cx="1.36569" cy="1.36569" r="1.36569"
          transform="matrix(-0.74061 0.671935 -0.931539 -0.36364 3370.82 289.757)" fill="#ffffff55" />
        <circle cx="1.36569" cy="1.36569" r="1.36569"
          transform="matrix(-0.74061 0.671935 -0.931539 -0.36364 3261.01 319.639)" fill="#ffffff55" />
        <circle cx="1.36569" cy="1.36569" r="1.36569"
          transform="matrix(-0.74061 0.671935 -0.931539 -0.36364 3329.6 161.741)" fill="#ffffff55" />
        <ellipse cx="1.36569" cy="1.36569" rx="1.36569" ry="1.36569"
          transform="matrix(-1.09148 -0.177339 0.474274 -0.743156 3196.39 270.07)" fill="#ffffff55" />
        <circle cx="1.36569" cy="1.36569" r="1.36569"
          transform="matrix(-1.09148 -0.177339 0.474274 -0.743156 3173.22 214.322)" fill="#ffffff55" />
        <circle cx="1.36569" cy="1.36569" r="1.36569"
          transform="matrix(-1.09148 -0.177339 0.474274 -0.743156 3159.89 106.037)" fill="#ffffff55" />
        <circle cx="1.36569" cy="1.36569" r="1.36569"
          transform="matrix(-1.09148 -0.177339 0.474274 -0.743156 3067.5 205.505)" fill="#ffffff55" />
        <circle cx="1.36569" cy="1.36569" r="1.36569"
          transform="matrix(-1.09148 -0.177339 0.474274 -0.743156 3012.24 149.198)" fill="#ffffff55" />
        <circle cx="1.36569" cy="1.36569" r="1.36569"
          transform="matrix(-1.09148 -0.177339 0.474274 -0.743156 3259.52 124.462)" fill="#ffffff55" />
        <circle cx="1.36569" cy="1.36569" r="1.36569"
          transform="matrix(-0.107415 -0.737144 1.18521 -0.200873 2899.73 439.766)" fill="#ffffff55" />
        <circle cx="1.36569" cy="1.36569" r="1.36569"
          transform="matrix(-0.107415 -0.737144 1.18521 -0.200873 2969.61 391.087)" fill="#ffffff55" />
        <circle cx="1.36569" cy="1.36569" r="1.36569"
          transform="matrix(-0.107415 -0.737144 1.18521 -0.200873 3115.6 314.661)" fill="#ffffff55" />
        <circle cx="1.36569" cy="1.36569" r="1.36569"
          transform="matrix(-0.107415 -0.737144 1.18521 -0.200873 2947.61 325.002)" fill="#ffffff55" />
        <circle cx="1.36569" cy="1.36569" r="1.36569"
          transform="matrix(-0.107415 -0.737144 1.18521 -0.200873 3007.86 257.611)" fill="#ffffff55" />
        <circle cx="1.36569" cy="1.36569" r="1.36569"
          transform="matrix(-0.107415 -0.737144 1.18521 -0.200873 3122.3 383.363)" fill="#ffffff55" />
      </g>
      <g style="mix-blend-mode:overlay">
        <ellipse cx="1.02266" cy="1.63775" rx="1.02266" ry="1.63775"
          transform="matrix(0.137405 0.990515 -0.998588 0.0531301 2299.78 169.983)" fill="#ffffff55" />
        <ellipse cx="1.02266" cy="1.63775" rx="1.02266" ry="1.63775"
          transform="matrix(0.137405 0.990515 -0.998588 0.0531301 2168.89 130.202)" fill="#ffffff55" />
        <ellipse cx="1.02266" cy="1.63775" rx="1.02266" ry="1.63775"
          transform="matrix(0.137405 0.990515 -0.998588 0.0531301 2080.93 269.207)" fill="#ffffff55" />
        <ellipse cx="1.02266" cy="1.63775" rx="1.02266" ry="1.63775"
          transform="matrix(0.137405 0.990515 -0.998588 0.0531301 2250.6 278.12)" fill="#ffffff55" />
        <ellipse cx="1.02266" cy="1.63775" rx="1.02266" ry="1.63775"
          transform="matrix(0.137405 0.990515 -0.998588 0.0531301 2189.26 337.957)" fill="#ffffff55" />
        <ellipse cx="1.02266" cy="1.63775" rx="1.02266" ry="1.63775"
          transform="matrix(0.137405 0.990515 -0.998588 0.0531301 2074.68 200.443)" fill="#ffffff55" />
        <ellipse cx="1.60394" cy="1.07489" rx="1.60394" ry="1.07489"
          transform="matrix(-0.962228 0.215839 -0.520089 -0.889279 2079.45 324.867)" fill="#ffffff55" />
        <ellipse cx="1.60394" cy="1.07489" rx="1.60394" ry="1.07489"
          transform="matrix(-0.962228 0.215839 -0.520089 -0.889279 1998.37 292.863)" fill="#ffffff55" />
        <ellipse cx="1.60394" cy="1.07489" rx="1.60394" ry="1.07489"
          transform="matrix(-0.962228 0.215839 -0.520089 -0.889279 1868.05 219.633)" fill="#ffffff55" />
        <ellipse cx="1.60394" cy="1.07489" rx="1.60394" ry="1.07489"
          transform="matrix(-0.962228 0.215839 -0.520089 -0.889279 1788.86 302.232)" fill="#ffffff55" />
        <ellipse cx="1.60394" cy="1.07489" rx="1.60394" ry="1.07489"
          transform="matrix(-0.962228 0.215839 -0.520089 -0.889279 1973.68 198.101)" fill="#ffffff55" />
        <ellipse cx="1.35167" cy="1.37957" rx="1.35167" ry="1.37957"
          transform="matrix(-0.910888 -0.497778 0.787487 -0.552695 2011.47 550.498)" fill="#ffffff55" />
        <ellipse cx="1.35167" cy="1.37957" rx="1.35167" ry="1.37957"
          transform="matrix(-0.910888 -0.497778 0.787487 -0.552695 2017.92 491.088)" fill="#ffffff55" />
        <ellipse cx="1.35167" cy="1.37957" rx="1.35167" ry="1.37957"
          transform="matrix(-0.910888 -0.497778 0.787487 -0.552695 2059.16 385.143)" fill="#ffffff55" />
        <ellipse cx="1.35167" cy="1.37957" rx="1.35167" ry="1.37957"
          transform="matrix(-0.910888 -0.497778 0.787487 -0.552695 1926.49 451.242)" fill="#ffffff55" />
        <ellipse cx="1.35167" cy="1.37957" rx="1.35167" ry="1.37957"
          transform="matrix(-0.910888 -0.497778 0.787487 -0.552695 1904.15 381.731)" fill="#ffffff55" />
        <ellipse cx="1.35167" cy="1.37957" rx="1.35167" ry="1.37957"
          transform="matrix(-0.910888 -0.497778 0.787487 -0.552695 2140.34 432.216)" fill="#ffffff55" />
      </g>
      <g style="mix-blend-mode:overlay">
        <ellipse cx="1.02266" cy="1.63775" rx="1.02266" ry="1.63775"
          transform="matrix(0.137405 0.990515 -0.998588 0.0531301 2299.77 169.983)" fill="#ffffff55" />
        <ellipse cx="1.02266" cy="1.63775" rx="1.02266" ry="1.63775"
          transform="matrix(0.137405 0.990515 -0.998588 0.0531301 2168.88 130.202)" fill="#ffffff55" />
        <ellipse cx="1.02266" cy="1.63775" rx="1.02266" ry="1.63775"
          transform="matrix(0.137405 0.990515 -0.998588 0.0531301 2080.93 269.207)" fill="#ffffff55" />
        <ellipse cx="1.02266" cy="1.63775" rx="1.02266" ry="1.63775"
          transform="matrix(0.137405 0.990515 -0.998588 0.0531301 2250.59 278.12)" fill="#ffffff55" />
        <ellipse cx="1.02266" cy="1.63775" rx="1.02266" ry="1.63775"
          transform="matrix(0.137405 0.990515 -0.998588 0.0531301 2189.25 337.957)" fill="#ffffff55" />
        <ellipse cx="1.02266" cy="1.63775" rx="1.02266" ry="1.63775"
          transform="matrix(0.137405 0.990515 -0.998588 0.0531301 2074.68 200.443)" fill="#ffffff55" />
      </g>
      <g style="mix-blend-mode:overlay">
        <ellipse cx="1.02266" cy="1.63775" rx="1.02266" ry="1.63775"
          transform="matrix(0.137405 0.990515 -0.998588 0.0531301 1471.41 55.9819)" fill="#ffffff55" />
        <ellipse cx="1.02266" cy="1.63775" rx="1.02266" ry="1.63775"
          transform="matrix(0.137405 0.990515 -0.998588 0.0531301 1400.51 96.2006)" fill="#ffffff55" />
        <ellipse cx="1.02266" cy="1.63775" rx="1.02266" ry="1.63775"
          transform="matrix(0.137405 0.990515 -0.998588 0.0531301 1302.56 155.206)" fill="#ffffff55" />
        <ellipse cx="1.02266" cy="1.63775" rx="1.02266" ry="1.63775"
          transform="matrix(0.137405 0.990515 -0.998588 0.0531301 1432.22 174.119)" fill="#ffffff55" />
        <ellipse cx="1.02266" cy="1.63775" rx="1.02266" ry="1.63775"
          transform="matrix(0.137405 0.990515 -0.998588 0.0531301 1360.89 223.956)" fill="#ffffff55" />
        <ellipse cx="1.02266" cy="1.63775" rx="1.02266" ry="1.63775"
          transform="matrix(0.137405 0.990515 -0.998588 0.0531301 1246.31 86.4424)" fill="#ffffff55" />
        <ellipse cx="1.60394" cy="1.07489" rx="1.60394" ry="1.07489"
          transform="matrix(-0.962228 0.215839 -0.520089 -0.889279 1169.99 178.862)" fill="#ffffff55" />
        <ellipse cx="1.60394" cy="1.07489" rx="1.60394" ry="1.07489"
          transform="matrix(-0.962228 0.215839 -0.520089 -0.889279 960.48 188.23)" fill="#ffffff55" />
        <ellipse cx="1.60394" cy="1.07489" rx="1.60394" ry="1.07489"
          transform="matrix(-0.962228 0.215839 -0.520089 -0.889279 1145.3 84.0986)" fill="#ffffff55" />
        <ellipse cx="1.35167" cy="1.37957" rx="1.35167" ry="1.37957"
          transform="matrix(-0.910888 -0.497778 0.787487 -0.552695 1173.1 416.497)" fill="#ffffff55" />
        <ellipse cx="1.35167" cy="1.37957" rx="1.35167" ry="1.37957"
          transform="matrix(-0.910888 -0.497778 0.787487 -0.552695 1239.55 377.086)" fill="#ffffff55" />
        <ellipse cx="1.35167" cy="1.37957" rx="1.35167" ry="1.37957"
          transform="matrix(-0.910888 -0.497778 0.787487 -0.552695 1230.79 271.142)" fill="#ffffff55" />
        <ellipse cx="1.35167" cy="1.37957" rx="1.35167" ry="1.37957"
          transform="matrix(-0.910888 -0.497778 0.787487 -0.552695 1098.12 337.241)" fill="#ffffff55" />
        <ellipse cx="1.35167" cy="1.37957" rx="1.35167" ry="1.37957"
          transform="matrix(-0.910888 -0.497778 0.787487 -0.552695 1105.78 257.73)" fill="#ffffff55" />
        <ellipse cx="1.35167" cy="1.37957" rx="1.35167" ry="1.37957"
          transform="matrix(-0.910888 -0.497778 0.787487 -0.552695 1311.97 318.215)" fill="#ffffff55" />
      </g>
      <g style="mix-blend-mode:overlay">
        <ellipse cx="1.02266" cy="1.63775" rx="1.02266" ry="1.63775"
          transform="matrix(0.137405 0.990515 -0.998588 0.0531301 1471.41 55.9813)" fill="#ffffff55" />
        <ellipse cx="1.02266" cy="1.63775" rx="1.02266" ry="1.63775"
          transform="matrix(0.137405 0.990515 -0.998588 0.0531301 1400.51 96.2002)" fill="#ffffff55" />
        <ellipse cx="1.02266" cy="1.63775" rx="1.02266" ry="1.63775"
          transform="matrix(0.137405 0.990515 -0.998588 0.0531301 1302.56 155.207)" fill="#ffffff55" />
        <ellipse cx="1.02266" cy="1.63775" rx="1.02266" ry="1.63775"
          transform="matrix(0.137405 0.990515 -0.998588 0.0531301 1432.22 174.119)" fill="#ffffff55" />
        <ellipse cx="1.02266" cy="1.63775" rx="1.02266" ry="1.63775"
          transform="matrix(0.137405 0.990515 -0.998588 0.0531301 1360.89 223.956)" fill="#ffffff55" />
        <ellipse cx="1.02266" cy="1.63775" rx="1.02266" ry="1.63775"
          transform="matrix(0.137405 0.990515 -0.998588 0.0531301 1246.31 86.4421)" fill="#ffffff55" />
        <ellipse cx="1.60394" cy="1.07489" rx="1.60394" ry="1.07489"
          transform="matrix(-0.962228 0.215839 -0.520089 -0.889279 1169.99 178.862)" fill="#ffffff55" />
        <ellipse cx="1.60394" cy="1.07489" rx="1.60394" ry="1.07489"
          transform="matrix(-0.962228 0.215839 -0.520089 -0.889279 960.48 188.23)" fill="#ffffff55" />
        <ellipse cx="1.60394" cy="1.07489" rx="1.60394" ry="1.07489"
          transform="matrix(-0.962228 0.215839 -0.520089 -0.889279 1145.3 84.0991)" fill="#ffffff55" />
        <ellipse cx="1.35167" cy="1.37957" rx="1.35167" ry="1.37957"
          transform="matrix(-0.910888 -0.497778 0.787487 -0.552695 1173.1 416.497)" fill="#ffffff55" />
        <ellipse cx="1.35167" cy="1.37957" rx="1.35167" ry="1.37957"
          transform="matrix(-0.910888 -0.497778 0.787487 -0.552695 1239.55 377.086)" fill="#ffffff55" />
        <ellipse cx="1.35167" cy="1.37957" rx="1.35167" ry="1.37957"
          transform="matrix(-0.910888 -0.497778 0.787487 -0.552695 1230.79 271.142)" fill="#ffffff55" />
        <ellipse cx="1.35167" cy="1.37957" rx="1.35167" ry="1.37957"
          transform="matrix(-0.910888 -0.497778 0.787487 -0.552695 1098.12 337.241)" fill="#ffffff55" />
        <ellipse cx="1.35167" cy="1.37957" rx="1.35167" ry="1.37957"
          transform="matrix(-0.910888 -0.497778 0.787487 -0.552695 1105.78 257.731)" fill="#ffffff55" />
        <ellipse cx="1.35167" cy="1.37957" rx="1.35167" ry="1.37957"
          transform="matrix(-0.910888 -0.497778 0.787487 -0.552695 1311.97 318.215)" fill="#ffffff55" />
      </g>
      <g style="mix-blend-mode:overlay">
        <ellipse cx="1.02266" cy="1.63775" rx="1.02266" ry="1.63775"
          transform="matrix(0.137405 0.990515 -0.998588 0.0531301 1073.43 87.781)" fill="#ffffff55" />
        <ellipse cx="1.02266" cy="1.63775" rx="1.02266" ry="1.63775"
          transform="matrix(0.137405 0.990515 -0.998588 0.0531301 1002.53 128)" fill="#ffffff55" />
        <ellipse cx="1.02266" cy="1.63775" rx="1.02266" ry="1.63775"
          transform="matrix(0.137405 0.990515 -0.998588 0.0531301 854.58 187.005)" fill="#ffffff55" />
        <ellipse cx="1.02266" cy="1.63775" rx="1.02266" ry="1.63775"
          transform="matrix(0.137405 0.990515 -0.998588 0.0531301 1024.25 195.918)" fill="#ffffff55" />
        <ellipse cx="1.02266" cy="1.63775" rx="1.02266" ry="1.63775"
          transform="matrix(0.137405 0.990515 -0.998588 0.0531301 962.914 255.756)" fill="#ffffff55" />
        <ellipse cx="1.02266" cy="1.63775" rx="1.02266" ry="1.63775"
          transform="matrix(0.137405 0.990515 -0.998588 0.0531301 848.336 118.242)" fill="#ffffff55" />
        <ellipse cx="1.60394" cy="1.07489" rx="1.60394" ry="1.07489"
          transform="matrix(-0.962228 0.215839 -0.520089 -0.889279 772.018 210.661)" fill="#ffffff55" />
        <ellipse cx="1.60394" cy="1.07489" rx="1.60394" ry="1.07489"
          transform="matrix(-0.962228 0.215839 -0.520089 -0.889279 641.697 137.431)" fill="#ffffff55" />
        <ellipse cx="1.60394" cy="1.07489" rx="1.60394" ry="1.07489"
          transform="matrix(-0.962228 0.215839 -0.520089 -0.889279 671.707 241.232)" fill="#ffffff55" />
        <ellipse cx="1.60394" cy="1.07489" rx="1.60394" ry="1.07489"
          transform="matrix(-0.962228 0.215839 -0.520089 -0.889279 562.504 220.03)" fill="#ffffff55" />
        <ellipse cx="1.60394" cy="1.07489" rx="1.60394" ry="1.07489"
          transform="matrix(-0.962228 0.215839 -0.520089 -0.889279 747.33 115.898)" fill="#ffffff55" />
        <ellipse cx="1.35167" cy="1.37957" rx="1.35167" ry="1.37957"
          transform="matrix(-0.910888 -0.497778 0.787487 -0.552695 832.814 302.94)" fill="#ffffff55" />
        <ellipse cx="1.35167" cy="1.37957" rx="1.35167" ry="1.37957"
          transform="matrix(-0.910888 -0.497778 0.787487 -0.552695 700.143 369.04)" fill="#ffffff55" />
        <ellipse cx="1.35167" cy="1.37957" rx="1.35167" ry="1.37957"
          transform="matrix(-0.910888 -0.497778 0.787487 -0.552695 617.803 299.529)" fill="#ffffff55" />
        <ellipse cx="1.35167" cy="1.37957" rx="1.35167" ry="1.37957"
          transform="matrix(-0.910888 -0.497778 0.787487 -0.552695 913.99 350.013)" fill="#ffffff55" />
      </g>
      <g style="mix-blend-mode:overlay">
        <ellipse cx="1.02266" cy="1.63775" rx="1.02266" ry="1.63775"
          transform="matrix(0.137405 0.990515 -0.998588 0.0531301 1073.43 87.781)" fill="#ffffff55" />
        <ellipse cx="1.02266" cy="1.63775" rx="1.02266" ry="1.63775"
          transform="matrix(0.137405 0.990515 -0.998588 0.0531301 1002.53 128)" fill="#ffffff55" />
        <ellipse cx="1.02266" cy="1.63775" rx="1.02266" ry="1.63775"
          transform="matrix(0.137405 0.990515 -0.998588 0.0531301 854.58 187.005)" fill="#ffffff55" />
        <ellipse cx="1.02266" cy="1.63775" rx="1.02266" ry="1.63775"
          transform="matrix(0.137405 0.990515 -0.998588 0.0531301 1024.25 195.918)" fill="#ffffff55" />
        <ellipse cx="1.02266" cy="1.63775" rx="1.02266" ry="1.63775"
          transform="matrix(0.137405 0.990515 -0.998588 0.0531301 962.914 255.756)" fill="#ffffff55" />
        <ellipse cx="1.02266" cy="1.63775" rx="1.02266" ry="1.63775"
          transform="matrix(0.137405 0.990515 -0.998588 0.0531301 848.336 118.242)" fill="#ffffff55" />
        <ellipse cx="1.60394" cy="1.07489" rx="1.60394" ry="1.07489"
          transform="matrix(-0.962228 0.215839 -0.520089 -0.889279 772.018 210.661)" fill="#ffffff55" />
        <ellipse cx="1.60394" cy="1.07489" rx="1.60394" ry="1.07489"
          transform="matrix(-0.962228 0.215839 -0.520089 -0.889279 641.697 137.431)" fill="#ffffff55" />
        <ellipse cx="1.60394" cy="1.07489" rx="1.60394" ry="1.07489"
          transform="matrix(-0.962228 0.215839 -0.520089 -0.889279 671.707 241.232)" fill="#ffffff55" />
        <ellipse cx="1.60394" cy="1.07489" rx="1.60394" ry="1.07489"
          transform="matrix(-0.962228 0.215839 -0.520089 -0.889279 562.504 220.03)" fill="#ffffff55" />
        <ellipse cx="1.60394" cy="1.07489" rx="1.60394" ry="1.07489"
          transform="matrix(-0.962228 0.215839 -0.520089 -0.889279 747.33 115.898)" fill="#ffffff55" />
        <ellipse cx="1.35167" cy="1.37957" rx="1.35167" ry="1.37957"
          transform="matrix(-0.910888 -0.497778 0.787487 -0.552695 832.814 302.94)" fill="#ffffff55" />
        <ellipse cx="1.35167" cy="1.37957" rx="1.35167" ry="1.37957"
          transform="matrix(-0.910888 -0.497778 0.787487 -0.552695 700.143 369.04)" fill="#ffffff55" />
        <ellipse cx="1.35167" cy="1.37957" rx="1.35167" ry="1.37957"
          transform="matrix(-0.910888 -0.497778 0.787487 -0.552695 617.803 299.529)" fill="#ffffff55" />
        <ellipse cx="1.35167" cy="1.37957" rx="1.35167" ry="1.37957"
          transform="matrix(-0.910888 -0.497778 0.787487 -0.552695 913.99 350.013)" fill="#ffffff55" />
      </g>
    </g>
    <g opacity="0.8">
      <g style="mix-blend-mode:overlay">
        <ellipse cx="1.02266" cy="1.63775" rx="1.02266" ry="1.63775"
          transform="matrix(0.137405 0.990515 -0.998588 0.0531301 2937.32 64.6234)" fill="#ffffff55" />
        <ellipse cx="1.02266" cy="1.63775" rx="1.02266" ry="1.63775"
          transform="matrix(0.137405 0.990515 -0.998588 0.0531301 2866.43 104.842)" fill="#ffffff55" />
        <ellipse cx="1.02266" cy="1.63775" rx="1.02266" ry="1.63775"
          transform="matrix(0.137405 0.990515 -0.998588 0.0531301 2718.48 163.847)" fill="#ffffff55" />
        <ellipse cx="1.02266" cy="1.63775" rx="1.02266" ry="1.63775"
          transform="matrix(0.137405 0.990515 -0.998588 0.0531301 2888.15 172.761)" fill="#ffffff55" />
        <ellipse cx="1.02266" cy="1.63775" rx="1.02266" ry="1.63775"
          transform="matrix(0.137405 0.990515 -0.998588 0.0531301 2826.81 232.598)" fill="#ffffff55" />
        <ellipse cx="1.02266" cy="1.63775" rx="1.02266" ry="1.63775"
          transform="matrix(0.137405 0.990515 -0.998588 0.0531301 2712.23 95.0842)" fill="#ffffff55" />
        <ellipse cx="1.60394" cy="1.07489" rx="1.60394" ry="1.07489"
          transform="matrix(-0.962228 0.215839 -0.520089 -0.889279 2635.91 187.503)" fill="#ffffff55" />
        <ellipse cx="1.60394" cy="1.07489" rx="1.60394" ry="1.07489"
          transform="matrix(-0.962228 0.215839 -0.520089 -0.889279 2405.59 54.2731)" fill="#ffffff55" />
        <ellipse cx="1.60394" cy="1.07489" rx="1.60394" ry="1.07489"
          transform="matrix(-0.962228 0.215839 -0.520089 -0.889279 2535.6 218.074)" fill="#ffffff55" />
        <ellipse cx="1.60394" cy="1.07489" rx="1.60394" ry="1.07489"
          transform="matrix(-0.962228 0.215839 -0.520089 -0.889279 2426.4 196.871)" fill="#ffffff55" />
        <ellipse cx="1.60394" cy="1.07489" rx="1.60394" ry="1.07489"
          transform="matrix(-0.962228 0.215839 -0.520089 -0.889279 2611.21 92.7396)" fill="#ffffff55" />
        <ellipse cx="1.35167" cy="1.37957" rx="1.35167" ry="1.37957"
          transform="matrix(-0.910888 -0.497778 0.787487 -0.552695 2649.02 445.138)" fill="#ffffff55" />
        <ellipse cx="1.35167" cy="1.37957" rx="1.35167" ry="1.37957"
          transform="matrix(-0.910888 -0.497778 0.787487 -0.552695 2696.71 279.782)" fill="#ffffff55" />
        <ellipse cx="1.35167" cy="1.37957" rx="1.35167" ry="1.37957"
          transform="matrix(-0.910888 -0.497778 0.787487 -0.552695 2564.04 345.882)" fill="#ffffff55" />
        <ellipse cx="1.35167" cy="1.37957" rx="1.35167" ry="1.37957"
          transform="matrix(-0.910888 -0.497778 0.787487 -0.552695 2399.46 373.871)" fill="#ffffff55" />
        <ellipse cx="1.35167" cy="1.37957" rx="1.35167" ry="1.37957"
          transform="matrix(-0.910888 -0.497778 0.787487 -0.552695 2777.89 326.856)" fill="#ffffff55" />
      </g>
      <g style="mix-blend-mode:overlay">
        <ellipse cx="1.02266" cy="1.63775" rx="1.02266" ry="1.63775"
          transform="matrix(0.137405 0.990515 -0.998588 0.0531301 2937.32 64.6234)" fill="#ffffff55" />
        <ellipse cx="1.02266" cy="1.63775" rx="1.02266" ry="1.63775"
          transform="matrix(0.137405 0.990515 -0.998588 0.0531301 2866.43 104.842)" fill="#ffffff55" />
        <ellipse cx="1.02266" cy="1.63775" rx="1.02266" ry="1.63775"
          transform="matrix(0.137405 0.990515 -0.998588 0.0531301 2718.48 163.847)" fill="#ffffff55" />
        <ellipse cx="1.02266" cy="1.63775" rx="1.02266" ry="1.63775"
          transform="matrix(0.137405 0.990515 -0.998588 0.0531301 2888.15 172.761)" fill="#ffffff55" />
        <ellipse cx="1.02266" cy="1.63775" rx="1.02266" ry="1.63775"
          transform="matrix(0.137405 0.990515 -0.998588 0.0531301 2826.81 232.598)" fill="#ffffff55" />
        <ellipse cx="1.02266" cy="1.63775" rx="1.02266" ry="1.63775"
          transform="matrix(0.137405 0.990515 -0.998588 0.0531301 2712.23 95.0842)" fill="#ffffff55" />
        <ellipse cx="1.60394" cy="1.07489" rx="1.60394" ry="1.07489"
          transform="matrix(-0.962228 0.215839 -0.520089 -0.889279 2635.91 187.503)" fill="#ffffff55" />
        <ellipse cx="1.60394" cy="1.07489" rx="1.60394" ry="1.07489"
          transform="matrix(-0.962228 0.215839 -0.520089 -0.889279 2405.59 54.2731)" fill="#ffffff55" />
        <ellipse cx="1.60394" cy="1.07489" rx="1.60394" ry="1.07489"
          transform="matrix(-0.962228 0.215839 -0.520089 -0.889279 2535.6 218.074)" fill="#ffffff55" />
        <ellipse cx="1.60394" cy="1.07489" rx="1.60394" ry="1.07489"
          transform="matrix(-0.962228 0.215839 -0.520089 -0.889279 2426.4 196.871)" fill="#ffffff55" />
        <ellipse cx="1.60394" cy="1.07489" rx="1.60394" ry="1.07489"
          transform="matrix(-0.962228 0.215839 -0.520089 -0.889279 2611.21 92.7396)" fill="#ffffff55" />
        <ellipse cx="1.35167" cy="1.37957" rx="1.35167" ry="1.37957"
          transform="matrix(-0.910888 -0.497778 0.787487 -0.552695 2649.02 445.138)" fill="#ffffff55" />
        <ellipse cx="1.35167" cy="1.37957" rx="1.35167" ry="1.37957"
          transform="matrix(-0.910888 -0.497778 0.787487 -0.552695 2696.71 279.782)" fill="#ffffff55" />
        <ellipse cx="1.35167" cy="1.37957" rx="1.35167" ry="1.37957"
          transform="matrix(-0.910888 -0.497778 0.787487 -0.552695 2564.04 345.882)" fill="#ffffff55" />
        <ellipse cx="1.35167" cy="1.37957" rx="1.35167" ry="1.37957"
          transform="matrix(-0.910888 -0.497778 0.787487 -0.552695 2399.46 373.87)" fill="#ffffff55" />
        <ellipse cx="1.35167" cy="1.37957" rx="1.35167" ry="1.37957"
          transform="matrix(-0.910888 -0.497778 0.787487 -0.552695 2777.89 326.855)" fill="#ffffff55" />
      </g>
      <g style="mix-blend-mode:overlay">
        <ellipse cx="1.02266" cy="1.63775" rx="1.02266" ry="1.63775"
          transform="matrix(0.137405 0.990515 -0.998588 0.0531301 2041.71 32.5254)" fill="#ffffff55" />
        <ellipse cx="1.02266" cy="1.63775" rx="1.02266" ry="1.63775"
          transform="matrix(0.137405 0.990515 -0.998588 0.0531301 1970.82 72.743)" fill="#ffffff55" />
        <ellipse cx="1.02266" cy="1.63775" rx="1.02266" ry="1.63775"
          transform="matrix(0.137405 0.990515 -0.998588 0.0531301 1992.53 140.662)" fill="#ffffff55" />
        <ellipse cx="1.02266" cy="1.63775" rx="1.02266" ry="1.63775"
          transform="matrix(0.137405 0.990515 -0.998588 0.0531301 1931.2 200.5)" fill="#ffffff55" />
        <ellipse cx="1.02266" cy="1.63775" rx="1.02266" ry="1.63775"
          transform="matrix(0.137405 0.990515 -0.998588 0.0531301 1816.62 62.9851)" fill="#ffffff55" />
        <ellipse cx="1.60394" cy="1.07489" rx="1.60394" ry="1.07489"
          transform="matrix(-0.962228 0.215839 -0.520089 -0.889279 1851.38 157.409)" fill="#ffffff55" />
        <ellipse cx="1.60394" cy="1.07489" rx="1.60394" ry="1.07489"
          transform="matrix(-0.962228 0.215839 -0.520089 -0.889279 1740.29 155.405)" fill="#ffffff55" />
        <ellipse cx="1.60394" cy="1.07489" rx="1.60394" ry="1.07489"
          transform="matrix(-0.962228 0.215839 -0.520089 -0.889279 1609.97 82.1742)" fill="#ffffff55" />
        <ellipse cx="1.60394" cy="1.07489" rx="1.60394" ry="1.07489"
          transform="matrix(-0.962228 0.215839 -0.520089 -0.889279 1639.99 185.976)" fill="#ffffff55" />
        <ellipse cx="1.60394" cy="1.07489" rx="1.60394" ry="1.07489"
          transform="matrix(-0.962228 0.215839 -0.520089 -0.889279 1530.78 164.774)" fill="#ffffff55" />
        <ellipse cx="1.60394" cy="1.07489" rx="1.60394" ry="1.07489"
          transform="matrix(-0.962228 0.215839 -0.520089 -0.889279 1715.61 60.6412)" fill="#ffffff55" />
        <ellipse cx="1.35167" cy="1.37957" rx="1.35167" ry="1.37957"
          transform="matrix(-0.910888 -0.497778 0.787487 -0.552695 1759.85 353.631)" fill="#ffffff55" />
        <ellipse cx="1.35167" cy="1.37957" rx="1.35167" ry="1.37957"
          transform="matrix(-0.910888 -0.497778 0.787487 -0.552695 1801.09 247.686)" fill="#ffffff55" />
        <ellipse cx="1.35167" cy="1.37957" rx="1.35167" ry="1.37957"
          transform="matrix(-0.910888 -0.497778 0.787487 -0.552695 1668.42 313.785)" fill="#ffffff55" />
        <ellipse cx="1.35167" cy="1.37957" rx="1.35167" ry="1.37957"
          transform="matrix(-0.910888 -0.497778 0.787487 -0.552695 1526.08 304.275)" fill="#ffffff55" />
        <ellipse cx="1.35167" cy="1.37957" rx="1.35167" ry="1.37957"
          transform="matrix(-0.910888 -0.497778 0.787487 -0.552695 1882.27 294.759)" fill="#ffffff55" />
      </g>
      <g style="mix-blend-mode:overlay">
        <ellipse cx="1.02266" cy="1.63775" rx="1.02266" ry="1.63775"
          transform="matrix(0.137405 0.990515 -0.998588 0.0531301 2041.71 32.5253)" fill="#ffffff55" />
        <ellipse cx="1.02266" cy="1.63775" rx="1.02266" ry="1.63775"
          transform="matrix(0.137405 0.990515 -0.998588 0.0531301 1970.81 72.7439)" fill="#ffffff55" />
        <ellipse cx="1.02266" cy="1.63775" rx="1.02266" ry="1.63775"
          transform="matrix(0.137405 0.990515 -0.998588 0.0531301 1992.53 140.662)" fill="#ffffff55" />
        <ellipse cx="1.02266" cy="1.63775" rx="1.02266" ry="1.63775"
          transform="matrix(0.137405 0.990515 -0.998588 0.0531301 1931.2 200.5)" fill="#ffffff55" />
        <ellipse cx="1.02266" cy="1.63775" rx="1.02266" ry="1.63775"
          transform="matrix(0.137405 0.990515 -0.998588 0.0531301 1816.62 62.985)" fill="#ffffff55" />
        <ellipse cx="1.60394" cy="1.07489" rx="1.60394" ry="1.07489"
          transform="matrix(-0.962228 0.215839 -0.520089 -0.889279 1851.38 157.41)" fill="#ffffff55" />
        <ellipse cx="1.60394" cy="1.07489" rx="1.60394" ry="1.07489"
          transform="matrix(-0.962228 0.215839 -0.520089 -0.889279 1740.3 155.406)" fill="#ffffff55" />
        <ellipse cx="1.60394" cy="1.07489" rx="1.60394" ry="1.07489"
          transform="matrix(-0.962228 0.215839 -0.520089 -0.889279 1609.98 82.1752)" fill="#ffffff55" />
        <ellipse cx="1.60394" cy="1.07489" rx="1.60394" ry="1.07489"
          transform="matrix(-0.962228 0.215839 -0.520089 -0.889279 1639.99 185.977)" fill="#ffffff55" />
        <ellipse cx="1.60394" cy="1.07489" rx="1.60394" ry="1.07489"
          transform="matrix(-0.962228 0.215839 -0.520089 -0.889279 1530.79 164.775)" fill="#ffffff55" />
        <ellipse cx="1.60394" cy="1.07489" rx="1.60394" ry="1.07489"
          transform="matrix(-0.962228 0.215839 -0.520089 -0.889279 1715.61 60.6432)" fill="#ffffff55" />
        <ellipse cx="1.35167" cy="1.37957" rx="1.35167" ry="1.37957"
          transform="matrix(-0.910888 -0.497778 0.787487 -0.552695 1801.09 247.686)" fill="#ffffff55" />
        <ellipse cx="1.35167" cy="1.37957" rx="1.35167" ry="1.37957"
          transform="matrix(-0.910888 -0.497778 0.787487 -0.552695 1668.42 313.785)" fill="#ffffff55" />
        <ellipse cx="1.35167" cy="1.37957" rx="1.35167" ry="1.37957"
          transform="matrix(-0.910888 -0.497778 0.787487 -0.552695 1526.07 304.275)" fill="#ffffff55" />
        <ellipse cx="1.35167" cy="1.37957" rx="1.35167" ry="1.37957"
          transform="matrix(-0.910888 -0.497778 0.787487 -0.552695 1882.27 294.759)" fill="#ffffff55" />
      </g>
      <g style="mix-blend-mode:overlay">
        <circle cx="1.36569" cy="1.36569" r="1.36569"
          transform="matrix(-0.850166 0.526514 -0.850166 -0.526514 646.297 202.842)" fill="#ffffff55" />
        <circle cx="1.36569" cy="1.36569" r="1.36569"
          transform="matrix(-0.850166 0.526514 -0.850166 -0.526514 570.953 155.15)" fill="#ffffff55" />
        <circle cx="1.36569" cy="1.36569" r="1.36569"
          transform="matrix(-0.850166 0.526514 -0.850166 -0.526514 382.787 163.053)" fill="#ffffff55" />
        <circle cx="1.36569" cy="1.36569" r="1.36569"
          transform="matrix(-0.850166 0.526514 -0.850166 -0.526514 481.037 249.179)" fill="#ffffff55" />
        <circle cx="1.36569" cy="1.36569" r="1.36569"
          transform="matrix(-0.850166 0.526514 -0.850166 -0.526514 367.629 258.653)" fill="#ffffff55" />
        <circle cx="1.36569" cy="1.36569" r="1.36569"
          transform="matrix(-0.850166 0.526514 -0.850166 -0.526514 463.713 115.811)" fill="#ffffff55" />
        <circle cx="1.36569" cy="1.36569" r="1.36569"
          transform="matrix(-1.04124 -0.372302 0.601158 -0.644846 313.078 198.194)" fill="#ffffff55" />
        <circle cx="1.36569" cy="1.36569" r="1.36569"
          transform="matrix(-1.04124 -0.372302 0.601158 -0.644846 300.4 139.168)" fill="#ffffff55" />
        <circle cx="1.36569" cy="1.36569" r="1.36569"
          transform="matrix(-1.04124 -0.372302 0.601158 -0.644846 306.936 30.2639)" fill="#ffffff55" />
        <circle cx="1.36569" cy="1.36569" r="1.36569"
          transform="matrix(-1.04124 -0.372302 0.601158 -0.644846 198.039 111.329)" fill="#ffffff55" />
        <circle cx="1.36569" cy="1.36569" r="1.36569"
          transform="matrix(-1.04124 -0.372302 0.601158 -0.644846 153.906 45.9362)" fill="#ffffff55" />
        <circle cx="1.36569" cy="1.36569" r="1.36569"
          transform="matrix(-1.04124 -0.372302 0.601158 -0.644846 401.566 66.4451)" fill="#ffffff55" />
        <circle cx="1.36569" cy="1.36569" r="1.36569"
          transform="matrix(0.0280199 -0.744402 1.20199 0.0173529 68.1211 276.085)" fill="#ffffff55" />
        <circle cx="1.36569" cy="1.36569" r="1.36569"
          transform="matrix(0.0280199 -0.744402 1.20199 0.0173529 225.549 227.398)" fill="#ffffff55" />
        <circle cx="1.36569" cy="1.36569" r="1.36569"
          transform="matrix(0.0280199 -0.744402 1.20199 0.0173529 58.459 207.106)" fill="#ffffff55" />
        <circle cx="1.36569" cy="1.36569" r="1.36569"
          transform="matrix(0.0280199 -0.744402 1.20199 0.0173529 129.938 151.757)" fill="#ffffff55" />
        <circle cx="1.36569" cy="1.36569" r="1.36569"
          transform="matrix(0.0280199 -0.744402 1.20199 0.0173529 219.678 296.174)" fill="#ffffff55" />
      </g>
      <g style="mix-blend-mode:overlay">
        <circle cx="1.36569" cy="1.36569" r="1.36569"
          transform="matrix(-0.850166 0.526514 -0.850166 -0.526514 646.297 202.842)" fill="#ffffff55" />
        <circle cx="1.36569" cy="1.36569" r="1.36569"
          transform="matrix(-0.850166 0.526514 -0.850166 -0.526514 570.953 155.15)" fill="#ffffff55" />
        <circle cx="1.36569" cy="1.36569" r="1.36569"
          transform="matrix(-0.850166 0.526514 -0.850166 -0.526514 382.787 163.053)" fill="#ffffff55" />
        <circle cx="1.36569" cy="1.36569" r="1.36569"
          transform="matrix(-0.850166 0.526514 -0.850166 -0.526514 481.037 249.179)" fill="#ffffff55" />
        <circle cx="1.36569" cy="1.36569" r="1.36569"
          transform="matrix(-0.850166 0.526514 -0.850166 -0.526514 367.629 258.653)" fill="#ffffff55" />
        <circle cx="1.36569" cy="1.36569" r="1.36569"
          transform="matrix(-0.850166 0.526514 -0.850166 -0.526514 463.713 115.811)" fill="#ffffff55" />
        <circle cx="1.36569" cy="1.36569" r="1.36569"
          transform="matrix(-1.04124 -0.372302 0.601158 -0.644846 313.078 198.194)" fill="#ffffff55" />
        <circle cx="1.36569" cy="1.36569" r="1.36569"
          transform="matrix(-1.04124 -0.372302 0.601158 -0.644846 300.4 139.168)" fill="#ffffff55" />
        <circle cx="1.36569" cy="1.36569" r="1.36569"
          transform="matrix(-1.04124 -0.372302 0.601158 -0.644846 306.936 30.2639)" fill="#ffffff55" />
        <circle cx="1.36569" cy="1.36569" r="1.36569"
          transform="matrix(-1.04124 -0.372302 0.601158 -0.644846 198.039 111.329)" fill="#ffffff55" />
        <circle cx="1.36569" cy="1.36569" r="1.36569"
          transform="matrix(-1.04124 -0.372302 0.601158 -0.644846 153.906 45.9362)" fill="#ffffff55" />
        <circle cx="1.36569" cy="1.36569" r="1.36569"
          transform="matrix(-1.04124 -0.372302 0.601158 -0.644846 401.566 66.4451)" fill="#ffffff55" />
        <circle cx="1.36569" cy="1.36569" r="1.36569"
          transform="matrix(0.0280199 -0.744402 1.20199 0.0173529 68.1211 276.085)" fill="#ffffff55" />
        <circle cx="1.36569" cy="1.36569" r="1.36569"
          transform="matrix(0.0280199 -0.744402 1.20199 0.0173529 225.549 227.398)" fill="#ffffff55" />
        <circle cx="1.36569" cy="1.36569" r="1.36569"
          transform="matrix(0.0280199 -0.744402 1.20199 0.0173529 58.459 207.106)" fill="#ffffff55" />
        <circle cx="1.36569" cy="1.36569" r="1.36569"
          transform="matrix(0.0280199 -0.744402 1.20199 0.0173529 129.938 151.757)" fill="#ffffff55" />
        <circle cx="1.36569" cy="1.36569" r="1.36569"
          transform="matrix(0.0280199 -0.744402 1.20199 0.0173529 219.678 296.174)" fill="#ffffff55" />
      </g>
    </g>
  </g>
  <defs>
    <filter id="filter0_f_3805_809" x="-458" y="-1273" width="4379" height="2059" filterUnits="userSpaceOnUse"
      color-interpolation-filters="sRGB">
      <feFlood flood-opacity="0" result="BackgroundImageFix" />
      <feBlend mode="normal" in="SourceGraphic" in2="BackgroundImageFix" result="shape" />
      <feGaussianBlur stdDeviation="250" result="effect1_foregroundBlur_3805_809" />
    </filter>
    <linearGradient id="paint0_linear_3805_809" x1="-767.032" y1="331.386" x2="3482.58" y2="-170.114"
      gradientUnits="userSpaceOnUse">
      <stop stop-color="#3A00D3" />
      <stop offset="1" stop-color="#13EF93" />
    </linearGradient>
    <clipPath id="clip0_3805_809">
      <rect width="3500" height="2000" fill="#ffffff55" />
    </clipPath>
  </defs>
</svg>