<svg width="517" height="59" viewBox="0 0 517 59" fill="none" xmlns="http://www.w3.org/2000/svg">
  <g clip-path="url(#clip0_698_77157)">
    <path fill-rule="evenodd" clip-rule="evenodd"
      d="M246.925 6.80091C251.251 11.1881 253.578 16.9871 253.486 23.1277V23.1201C253.296 35.4847 242.888 45.5419 230.291 45.5419H212.593C212.258 45.5419 212.091 45.1396 212.327 44.8967L220.94 36.2514C221.085 36.1072 221.275 36.0236 221.48 36.0236H230.459C237.681 36.0236 243.732 30.255 243.945 23.1733C244.052 19.5603 242.721 16.1446 240.197 13.5487C237.673 10.9528 234.29 9.52584 230.679 9.52584H221.541V24.2662C221.541 24.3953 221.442 24.4939 221.313 24.4939H212.228C212.099 24.4939 212 24.3953 212 24.2662V0.2277C212 0.0986648 212.099 0 212.228 0H230.679C236.829 0 242.6 2.41372 246.925 6.80091ZM272.865 12.2127C261.735 12.2127 256.657 20.7291 256.657 29.048L256.649 29.0556C256.649 37.3139 262.381 46.02 273.511 46.02C281.478 46.02 287.667 41.5874 289.08 34.6649C289.111 34.5207 288.997 34.384 288.852 34.384H280.452C280.353 34.384 280.269 34.4523 280.239 34.551C279.471 37.238 277.084 38.6119 273.511 38.6119C268.957 38.6119 266.03 35.7503 265.376 31.1354H288.731C288.852 31.1354 288.951 31.0519 288.959 30.9304C289.02 30.2321 289.073 29.3289 289.073 28.2055C289.073 20.7291 283.994 12.2127 272.865 12.2127ZM272.865 18.8391C277.228 18.8391 279.768 21.7613 280.026 25.4047H265.505C266.288 20.8505 268.767 18.8391 272.865 18.8391ZM293.042 29.048C293.042 20.7291 298.12 12.2127 309.25 12.2127C320.379 12.2127 325.458 20.7291 325.458 28.2055C325.458 29.3289 325.405 30.2321 325.344 30.9304C325.336 31.0519 325.237 31.1354 325.116 31.1354H301.761C302.415 35.7503 305.342 38.6119 309.896 38.6119C313.469 38.6119 315.856 37.238 316.624 34.551C316.654 34.4523 316.738 34.384 316.837 34.384H325.237C325.382 34.384 325.496 34.5207 325.466 34.6649C324.052 41.5874 317.863 46.02 309.896 46.02C298.766 46.02 293.034 37.3139 293.034 29.0556L293.042 29.048ZM316.411 25.4047C316.153 21.7613 313.613 18.8391 309.25 18.8391C305.152 18.8391 302.673 20.8505 301.891 25.4047H316.411ZM339.317 12.7364H330.727V12.7212C330.597 12.7212 330.498 12.8199 330.498 12.949V58.5135C330.498 58.6426 330.597 58.7415 330.727 58.7415H339.317C339.446 58.7415 339.545 58.6426 339.545 58.5135V42.5588C341.301 44.7677 344.494 46.0048 348.204 46.0048C357.646 46.0048 364.025 39.31 364.025 29.1088C364.025 18.9074 358.163 12.2127 348.919 12.2127C344.685 12.2127 341.499 13.7763 339.545 16.3115V12.9641C339.545 12.8351 339.446 12.7364 339.317 12.7364ZM355.039 29.1163C355.039 34.5738 351.854 38.2172 347.033 38.2172C342.221 38.2172 339.028 34.6345 339.028 29.1163C339.028 23.5982 342.221 19.9548 347.033 19.9548C351.846 19.9548 355.039 23.6589 355.039 29.1163ZM377.253 51.8876C377.397 51.7434 377.588 51.6672 377.793 51.6672H387.022C389.82 51.6672 391.773 49.4587 391.773 46.468V42.1797C390.078 44.5857 386.627 46.0128 382.787 46.0128C373.087 46.0128 367.294 39.318 367.294 29.1165C367.294 18.9151 373.087 12.2205 382.658 12.2205C386.695 12.2205 389.881 13.7158 391.773 15.9929V12.9719C391.773 12.8429 391.872 12.7442 392.001 12.7442H400.592C400.721 12.7442 400.821 12.8429 400.821 12.9719V47.4547C400.821 54.2176 395.94 58.7644 388.52 58.7644H371.316C370.974 58.7644 370.806 58.3544 371.049 58.1192L377.253 51.9029V51.8876ZM384.224 38.2099C389.173 38.2099 392.298 34.6347 392.298 29.109C392.298 23.5832 389.173 19.9474 384.224 19.9474C379.275 19.9474 376.219 23.5908 376.219 29.109C376.219 34.6271 379.412 38.2099 384.224 38.2099ZM416.535 45.261V29.5643H416.542C416.542 23.9703 418.557 20.2662 423.05 20.2662H428.227C428.356 20.2662 428.455 20.1675 428.455 20.0385V12.9567C428.455 12.8277 428.356 12.729 428.227 12.729H424.806C420.769 12.729 418.291 14.0876 416.535 18.1864V12.9567C416.535 12.8277 416.436 12.729 416.307 12.729H407.716C407.587 12.729 407.488 12.8277 407.488 12.9567V45.261C407.488 45.39 407.587 45.489 407.716 45.489H416.307C416.436 45.489 416.535 45.39 416.535 45.261ZM431.351 36.1983C431.351 29.7617 436.172 25.8603 443.394 25.8603H448.86C450.487 25.8603 451.331 24.8204 451.331 23.4542C451.331 20.7216 449.248 18.8393 445.538 18.8393C441.828 18.8393 439.593 21.1847 439.425 23.8261C439.425 23.9475 439.326 24.0386 439.205 24.0386H431.595C431.458 24.0386 431.351 23.9248 431.359 23.7882C431.808 17.3364 437.122 12.2053 445.994 12.2053C454.326 12.2053 460.378 17.0176 460.378 24.4257V45.2534C460.378 45.3824 460.279 45.4814 460.15 45.4814H451.559C451.43 45.4814 451.331 45.3824 451.331 45.2534V40.9346C450.221 43.9858 446.579 46.0052 442.086 46.0052C435.769 46.0052 431.344 41.7773 431.344 36.1907L431.351 36.1983ZM444.435 39.447C448.799 39.447 451.338 36.1983 451.338 32.0388V31.5834H444.762C441.965 31.5834 440.071 33.276 440.071 35.8112C440.071 37.9593 441.896 39.4546 444.435 39.4546V39.447ZM474.716 12.7364H466.125L466.14 12.7289C466.011 12.7289 465.912 12.8276 465.912 12.9566V45.261C465.912 45.39 466.011 45.4886 466.14 45.4886H474.731C474.86 45.4886 474.959 45.39 474.959 45.261V26.9C474.959 22.6722 477.361 19.8789 481.14 19.8789C484.652 19.8789 486.933 22.6722 486.933 26.9V45.261C486.933 45.39 487.031 45.4886 487.161 45.4886H495.751C495.881 45.4886 495.979 45.39 495.979 45.261V26.9C495.979 22.6722 498.382 19.8789 502.16 19.8789C505.672 19.8789 507.953 22.6722 507.953 26.9V45.261C507.953 45.39 508.052 45.4886 508.181 45.4886H516.772C516.901 45.4886 517 45.39 517 45.261V24.0384C517 17.4804 512.378 12.2127 505.285 12.2127C500.016 12.2127 495.911 15.0059 494.284 18.1939C492.718 14.2925 489.396 12.2127 484.257 12.2127C479.824 12.2127 476.7 14.3608 474.944 17.3514V12.9641C474.944 12.8351 474.845 12.7364 474.716 12.7364Z"
      fill="white" />
  </g>
  <path
    d="M7.85106 45H2.99106V19.8H14.3311C19.1911 19.8 22.4311 22.68 22.4311 27.72C22.4311 32.76 19.1911 35.676 14.3311 35.676H7.85106V45ZM7.85106 24.12V31.356H13.7911C16.3111 31.356 17.5711 29.88 17.5711 27.72C17.5711 25.56 16.3111 24.12 13.7911 24.12H7.85106ZM33.3993 45.36C27.9993 45.36 24.3993 41.4 24.3993 36C24.3993 30.6 27.9993 26.64 33.3993 26.64C38.7993 26.64 42.3993 30.6 42.3993 36C42.3993 41.4 38.7993 45.36 33.3993 45.36ZM33.2553 41.58H33.5433C36.0633 41.58 37.6833 39.528 37.6833 36C37.6833 32.472 36.0633 30.42 33.5433 30.42H33.2553C30.7353 30.42 29.1153 32.472 29.1153 36C29.1153 39.528 30.7353 41.58 33.2553 41.58ZM63.2587 40.248L66.6787 27H71.2147L66.0667 45H60.8107L57.6427 32.4L54.6547 45H49.3987L43.8907 27H48.6067L52.2067 40.356L55.1227 27H60.1267L63.2587 40.248ZM81.4837 45.36C76.9837 45.36 72.9157 41.94 72.9157 36C72.9157 30.6 76.0837 26.64 81.4837 26.64C86.8837 26.64 89.6917 30.564 89.6917 35.784C89.6917 36.324 89.6557 36.9 89.6197 37.476H77.4517C77.6317 39.96 79.5757 41.58 81.5197 41.58H81.8077C83.5717 41.58 84.6517 40.536 84.9757 39.312H89.6197C88.7557 42.84 85.9837 45.36 81.4837 45.36ZM77.4517 33.876H85.1557C85.0477 31.716 83.3917 30.42 81.4477 30.42H81.1597C79.2157 30.42 77.5597 31.716 77.4517 33.876ZM98.2561 45H93.5761V27H98.2561V30.6C98.9761 28.26 100.776 26.82 103.476 26.82H104.376V31.14H102.756C99.6961 31.14 98.2561 32.58 98.2561 35.64V45ZM114.636 45.36C110.136 45.36 106.068 41.94 106.068 36C106.068 30.6 109.236 26.64 114.636 26.64C120.036 26.64 122.844 30.564 122.844 35.784C122.844 36.324 122.808 36.9 122.772 37.476H110.604C110.784 39.96 112.728 41.58 114.672 41.58H114.96C116.724 41.58 117.804 40.536 118.128 39.312H122.772C121.908 42.84 119.136 45.36 114.636 45.36ZM110.604 33.876H118.308C118.2 31.716 116.544 30.42 114.6 30.42H114.312C112.368 30.42 110.712 31.716 110.604 33.876ZM133.676 45.36C128.456 45.36 125.684 40.86 125.684 36C125.684 31.14 128.456 26.64 133.676 26.64C136.196 26.64 138.14 28.08 138.86 29.34V19.8H143.54V45H138.86V42.66C138.14 43.92 136.196 45.36 133.676 45.36ZM134.468 41.58H134.756C136.916 41.58 138.86 39.42 138.86 36C138.86 32.58 136.916 30.42 134.756 30.42H134.468C132.128 30.42 130.364 32.544 130.364 35.964C130.364 39.384 132.128 41.58 134.468 41.58ZM166.651 45.36C164.131 45.36 162.187 43.92 161.467 42.66V45H156.787V19.8H161.467V29.34C162.187 28.08 164.131 26.64 166.651 26.64C171.871 26.64 174.643 31.14 174.643 36C174.643 40.86 171.871 45.36 166.651 45.36ZM165.571 41.58H165.859C168.199 41.58 169.963 39.384 169.963 35.964C169.963 32.544 168.199 30.42 165.859 30.42H165.571C163.411 30.42 161.467 32.58 161.467 36C161.467 39.42 163.411 41.58 165.571 41.58ZM190.627 27H195.811L188.143 43.416V47.592C188.143 50.652 186.523 52.272 183.463 52.272H176.911V48.24H181.699C183.319 48.24 183.679 47.88 183.679 46.26V43.596L175.831 27H181.087L185.947 37.944L190.627 27Z"
    fill="#BBBBBF" />
  <defs>
    <clipPath id="clip0_698_77157">
      <rect width="305" height="59" fill="white" transform="translate(212)" />
    </clipPath>
  </defs>
</svg>