<svg width="3504" height="4258" viewBox="0 0 3504 4258" fill="none" xmlns="http://www.w3.org/2000/svg">
<g clip-path="url(#clip0_2172_29)">
<rect width="3504" height="4258" fill="white"/>
<rect width="3504" height="4258" fill="black"/>
<g filter="url(#filter0_f_2172_29)">
<ellipse cx="2322.35" cy="921.93" rx="2322.35" ry="921.93" transform="matrix(0.999953 0.00968114 -0.00714852 0.999974 -603.607 -1294)" fill="url(#paint0_linear_2172_29)" fill-opacity="0.4"/>
</g>
<g filter="url(#filter1_f_2172_29)">
<ellipse cx="1562.57" cy="-445.361" rx="1190.25" ry="468.442" fill="#603F83"/>
</g>
<g filter="url(#filter2_f_2172_29)">
<ellipse cx="2944.33" cy="-505.757" rx="565.666" ry="465.496" fill="#4ABBD5" fill-opacity="0.5"/>
</g>
<g opacity="0.8">
<g style="mix-blend-mode:overlay">
<ellipse cx="2.82822" cy="2.82822" rx="2.82822" ry="2.82822" transform="matrix(-0.809289 0.587411 -0.809289 -0.587411 2497.06 408.497)" fill="white"/>
<ellipse cx="2.82822" cy="2.82822" rx="2.82822" ry="2.82822" transform="matrix(-0.809289 0.587411 -0.809289 -0.587411 2309.11 390.725)" fill="white"/>
<ellipse cx="2.82822" cy="2.82822" rx="2.82822" ry="2.82822" transform="matrix(-0.809289 0.587411 -0.809289 -0.587411 1977.6 316.565)" fill="white"/>
<ellipse cx="2.82822" cy="2.82822" rx="2.82822" ry="2.82822" transform="matrix(-0.809289 0.587411 -0.809289 -0.587411 2171.29 515.554)" fill="white"/>
<ellipse cx="2.82822" cy="2.82822" rx="2.82822" ry="2.82822" transform="matrix(-0.809289 0.587411 -0.809289 -0.587411 1947.7 537.448)" fill="white"/>
<ellipse cx="2.82822" cy="2.82822" rx="2.82822" ry="2.82822" transform="matrix(-0.809289 0.587411 -0.809289 -0.587411 2137.12 207.419)" fill="white"/>
<circle cx="2.82822" cy="2.82822" r="2.82822" transform="matrix(-0.991172 -0.415362 0.572253 -0.719429 1840.17 397.76)" fill="white"/>
<ellipse cx="2.82822" cy="2.82822" rx="2.82822" ry="2.82822" transform="matrix(-0.991172 -0.415362 0.572253 -0.719429 1815.18 261.386)" fill="white"/>
<ellipse cx="2.82822" cy="2.82822" rx="2.82822" ry="2.82822" transform="matrix(-0.991172 -0.415362 0.572253 -0.719429 1828.07 9.76758)" fill="white"/>
<ellipse cx="2.82822" cy="2.82822" rx="2.82822" ry="2.82822" transform="matrix(-0.991172 -0.415362 0.572253 -0.719429 1613.38 197.066)" fill="white"/>
<ellipse cx="2.82822" cy="2.82822" rx="2.82822" ry="2.82822" transform="matrix(-0.991172 -0.415362 0.572253 -0.719429 1526.39 45.9824)" fill="white"/>
<ellipse cx="2.82822" cy="2.82822" rx="2.82822" ry="2.82822" transform="matrix(-0.991172 -0.415362 0.572253 -0.719429 2014.6 93.3662)" fill="white"/>
<ellipse cx="2.82822" cy="2.82822" rx="2.82822" ry="2.82822" transform="matrix(0.0266727 -0.830499 1.1442 0.01936 1204.41 659.054)" fill="white"/>
<ellipse cx="2.82822" cy="2.82822" rx="2.82822" ry="2.82822" transform="matrix(0.0266727 -0.830499 1.1442 0.01936 1357.27 577.721)" fill="white"/>
<ellipse cx="2.82822" cy="2.82822" rx="2.82822" ry="2.82822" transform="matrix(0.0266727 -0.830499 1.1442 0.01936 1667.63 465.229)" fill="white"/>
<ellipse cx="2.82822" cy="2.82822" rx="2.82822" ry="2.82822" transform="matrix(0.0266727 -0.830499 1.1442 0.01936 1338.24 418.348)" fill="white"/>
<ellipse cx="2.82822" cy="2.82822" rx="2.82822" ry="2.82822" transform="matrix(0.0266727 -0.830499 1.1442 0.01936 1479.15 290.468)" fill="white"/>
<ellipse cx="2.82822" cy="2.82822" rx="2.82822" ry="2.82822" transform="matrix(0.0266727 -0.830499 1.1442 0.01936 1656.05 624.133)" fill="white"/>
</g>
<g style="mix-blend-mode:overlay">
<ellipse cx="2.82822" cy="2.82822" rx="2.82822" ry="2.82822" transform="matrix(-0.809289 0.587411 -0.809289 -0.587411 2497.06 408.497)" fill="white"/>
<ellipse cx="2.82822" cy="2.82822" rx="2.82822" ry="2.82822" transform="matrix(-0.809289 0.587411 -0.809289 -0.587411 2309.11 390.725)" fill="white"/>
<ellipse cx="2.82822" cy="2.82822" rx="2.82822" ry="2.82822" transform="matrix(-0.809289 0.587411 -0.809289 -0.587411 1977.6 316.565)" fill="white"/>
<ellipse cx="2.82822" cy="2.82822" rx="2.82822" ry="2.82822" transform="matrix(-0.809289 0.587411 -0.809289 -0.587411 2171.29 515.554)" fill="white"/>
<ellipse cx="2.82822" cy="2.82822" rx="2.82822" ry="2.82822" transform="matrix(-0.809289 0.587411 -0.809289 -0.587411 1947.7 537.448)" fill="white"/>
<ellipse cx="2.82822" cy="2.82822" rx="2.82822" ry="2.82822" transform="matrix(-0.809289 0.587411 -0.809289 -0.587411 2137.12 207.419)" fill="white"/>
<circle cx="2.82822" cy="2.82822" r="2.82822" transform="matrix(-0.991172 -0.415362 0.572253 -0.719429 1840.17 397.76)" fill="white"/>
<ellipse cx="2.82822" cy="2.82822" rx="2.82822" ry="2.82822" transform="matrix(-0.991172 -0.415362 0.572253 -0.719429 1815.18 261.386)" fill="white"/>
<ellipse cx="2.82822" cy="2.82822" rx="2.82822" ry="2.82822" transform="matrix(-0.991172 -0.415362 0.572253 -0.719429 1828.07 9.76758)" fill="white"/>
<ellipse cx="2.82822" cy="2.82822" rx="2.82822" ry="2.82822" transform="matrix(-0.991172 -0.415362 0.572253 -0.719429 1613.38 197.066)" fill="white"/>
<ellipse cx="2.82822" cy="2.82822" rx="2.82822" ry="2.82822" transform="matrix(-0.991172 -0.415362 0.572253 -0.719429 1526.39 45.9824)" fill="white"/>
<ellipse cx="2.82822" cy="2.82822" rx="2.82822" ry="2.82822" transform="matrix(-0.991172 -0.415362 0.572253 -0.719429 2014.6 93.3662)" fill="white"/>
<ellipse cx="2.82822" cy="2.82822" rx="2.82822" ry="2.82822" transform="matrix(0.0266727 -0.830499 1.1442 0.01936 1204.41 659.054)" fill="white"/>
<ellipse cx="2.82822" cy="2.82822" rx="2.82822" ry="2.82822" transform="matrix(0.0266727 -0.830499 1.1442 0.01936 1357.27 577.721)" fill="white"/>
<ellipse cx="2.82822" cy="2.82822" rx="2.82822" ry="2.82822" transform="matrix(0.0266727 -0.830499 1.1442 0.01936 1667.63 465.229)" fill="white"/>
<ellipse cx="2.82822" cy="2.82822" rx="2.82822" ry="2.82822" transform="matrix(0.0266727 -0.830499 1.1442 0.01936 1338.24 418.348)" fill="white"/>
<ellipse cx="2.82822" cy="2.82822" rx="2.82822" ry="2.82822" transform="matrix(0.0266727 -0.830499 1.1442 0.01936 1479.15 290.468)" fill="white"/>
<ellipse cx="2.82822" cy="2.82822" rx="2.82822" ry="2.82822" transform="matrix(0.0266727 -0.830499 1.1442 0.01936 1656.05 624.133)" fill="white"/>
</g>
<g style="mix-blend-mode:overlay">
<ellipse cx="2.80807" cy="2.84823" rx="2.80807" ry="2.84823" transform="matrix(-0.864347 -0.553594 0.751922 -0.61851 3435.57 508.979)" fill="white"/>
<ellipse cx="2.80807" cy="2.84823" rx="2.80807" ry="2.84823" transform="matrix(-0.864347 -0.553594 0.751922 -0.61851 3448.29 371.716)" fill="white"/>
<ellipse cx="2.80807" cy="2.84823" rx="2.80807" ry="2.84823" transform="matrix(-0.864347 -0.553594 0.751922 -0.61851 3268.05 279.655)" fill="white"/>
<ellipse cx="2.80807" cy="2.84823" rx="2.80807" ry="2.84823" transform="matrix(-0.864347 -0.553594 0.751922 -0.61851 3224.01 119.056)" fill="white"/>
</g>
<g style="mix-blend-mode:overlay">
<ellipse cx="2.80807" cy="2.84823" rx="2.80807" ry="2.84823" transform="matrix(-0.864347 -0.553594 0.751922 -0.61851 3435.57 508.979)" fill="white"/>
<ellipse cx="2.80807" cy="2.84823" rx="2.80807" ry="2.84823" transform="matrix(-0.864347 -0.553594 0.751922 -0.61851 3448.29 371.716)" fill="white"/>
<ellipse cx="2.80807" cy="2.84823" rx="2.80807" ry="2.84823" transform="matrix(-0.864347 -0.553594 0.751922 -0.61851 3268.05 279.655)" fill="white"/>
<ellipse cx="2.80807" cy="2.84823" rx="2.80807" ry="2.84823" transform="matrix(-0.864347 -0.553594 0.751922 -0.61851 3224.01 119.056)" fill="white"/>
</g>
<g style="mix-blend-mode:overlay">
<ellipse cx="2.82822" cy="2.82822" rx="2.82822" ry="2.82822" transform="matrix(-0.809289 0.587411 -0.809289 -0.587411 2309.33 618.93)" fill="white"/>
<ellipse cx="2.82822" cy="2.82822" rx="2.82822" ry="2.82822" transform="matrix(-0.809289 0.587411 -0.809289 -0.587411 2121.38 601.159)" fill="white"/>
<ellipse cx="2.82822" cy="2.82822" rx="2.82822" ry="2.82822" transform="matrix(-0.809289 0.587411 -0.809289 -0.587411 1789.87 526.998)" fill="white"/>
<ellipse cx="2.82822" cy="2.82822" rx="2.82822" ry="2.82822" transform="matrix(-0.809289 0.587411 -0.809289 -0.587411 1983.55 725.986)" fill="white"/>
<ellipse cx="2.82822" cy="2.82822" rx="2.82822" ry="2.82822" transform="matrix(-0.809289 0.587411 -0.809289 -0.587411 1759.97 747.881)" fill="white"/>
<ellipse cx="2.82822" cy="2.82822" rx="2.82822" ry="2.82822" transform="matrix(-0.809289 0.587411 -0.809289 -0.587411 1949.4 417.852)" fill="white"/>
<circle cx="2.82822" cy="2.82822" r="2.82822" transform="matrix(-0.991172 -0.415362 0.572253 -0.719429 1652.44 608.194)" fill="white"/>
<ellipse cx="2.82822" cy="2.82822" rx="2.82822" ry="2.82822" transform="matrix(-0.991172 -0.415362 0.572253 -0.719429 1627.45 471.823)" fill="white"/>
<ellipse cx="2.82822" cy="2.82822" rx="2.82822" ry="2.82822" transform="matrix(-0.991172 -0.415362 0.572253 -0.719429 1640.33 220.205)" fill="white"/>
<ellipse cx="2.82822" cy="2.82822" rx="2.82822" ry="2.82822" transform="matrix(-0.991172 -0.415362 0.572253 -0.719429 1425.65 407.499)" fill="white"/>
<ellipse cx="2.82822" cy="2.82822" rx="2.82822" ry="2.82822" transform="matrix(-0.991172 -0.415362 0.572253 -0.719429 1338.65 256.416)" fill="white"/>
<ellipse cx="2.82822" cy="2.82822" rx="2.82822" ry="2.82822" transform="matrix(-0.991172 -0.415362 0.572253 -0.719429 1826.87 303.801)" fill="white"/>
<ellipse cx="2.82822" cy="2.82822" rx="2.82822" ry="2.82822" transform="matrix(0.0266727 -0.830499 1.1442 0.01936 1016.68 869.488)" fill="white"/>
<ellipse cx="2.82822" cy="2.82822" rx="2.82822" ry="2.82822" transform="matrix(0.0266727 -0.830499 1.1442 0.01936 1169.55 788.153)" fill="white"/>
<ellipse cx="2.82822" cy="2.82822" rx="2.82822" ry="2.82822" transform="matrix(0.0266727 -0.830499 1.1442 0.01936 1479.9 675.664)" fill="white"/>
<ellipse cx="2.82822" cy="2.82822" rx="2.82822" ry="2.82822" transform="matrix(0.0266727 -0.830499 1.1442 0.01936 1150.5 628.782)" fill="white"/>
<ellipse cx="2.82822" cy="2.82822" rx="2.82822" ry="2.82822" transform="matrix(0.0266727 -0.830499 1.1442 0.01936 1291.42 500.899)" fill="white"/>
<ellipse cx="2.82822" cy="2.82822" rx="2.82822" ry="2.82822" transform="matrix(0.0266727 -0.830499 1.1442 0.01936 1468.32 834.567)" fill="white"/>
</g>
<g style="mix-blend-mode:overlay">
<ellipse cx="2.82822" cy="2.82822" rx="2.82822" ry="2.82822" transform="matrix(-0.809289 0.587411 -0.809289 -0.587411 2309.33 618.93)" fill="white"/>
<ellipse cx="2.82822" cy="2.82822" rx="2.82822" ry="2.82822" transform="matrix(-0.809289 0.587411 -0.809289 -0.587411 2121.38 601.159)" fill="white"/>
<ellipse cx="2.82822" cy="2.82822" rx="2.82822" ry="2.82822" transform="matrix(-0.809289 0.587411 -0.809289 -0.587411 1789.87 526.998)" fill="white"/>
<ellipse cx="2.82822" cy="2.82822" rx="2.82822" ry="2.82822" transform="matrix(-0.809289 0.587411 -0.809289 -0.587411 1983.55 725.986)" fill="white"/>
<ellipse cx="2.82822" cy="2.82822" rx="2.82822" ry="2.82822" transform="matrix(-0.809289 0.587411 -0.809289 -0.587411 1759.97 747.881)" fill="white"/>
<ellipse cx="2.82822" cy="2.82822" rx="2.82822" ry="2.82822" transform="matrix(-0.809289 0.587411 -0.809289 -0.587411 1949.4 417.852)" fill="white"/>
<circle cx="2.82822" cy="2.82822" r="2.82822" transform="matrix(-0.991172 -0.415362 0.572253 -0.719429 1652.44 608.194)" fill="white"/>
<ellipse cx="2.82822" cy="2.82822" rx="2.82822" ry="2.82822" transform="matrix(-0.991172 -0.415362 0.572253 -0.719429 1627.45 471.823)" fill="white"/>
<ellipse cx="2.82822" cy="2.82822" rx="2.82822" ry="2.82822" transform="matrix(-0.991172 -0.415362 0.572253 -0.719429 1640.33 220.205)" fill="white"/>
<ellipse cx="2.82822" cy="2.82822" rx="2.82822" ry="2.82822" transform="matrix(-0.991172 -0.415362 0.572253 -0.719429 1425.65 407.499)" fill="white"/>
<ellipse cx="2.82822" cy="2.82822" rx="2.82822" ry="2.82822" transform="matrix(-0.991172 -0.415362 0.572253 -0.719429 1338.65 256.416)" fill="white"/>
<ellipse cx="2.82822" cy="2.82822" rx="2.82822" ry="2.82822" transform="matrix(-0.991172 -0.415362 0.572253 -0.719429 1826.87 303.801)" fill="white"/>
<ellipse cx="2.82822" cy="2.82822" rx="2.82822" ry="2.82822" transform="matrix(0.0266727 -0.830499 1.1442 0.01936 1016.68 869.488)" fill="white"/>
<ellipse cx="2.82822" cy="2.82822" rx="2.82822" ry="2.82822" transform="matrix(0.0266727 -0.830499 1.1442 0.01936 1169.55 788.153)" fill="white"/>
<ellipse cx="2.82822" cy="2.82822" rx="2.82822" ry="2.82822" transform="matrix(0.0266727 -0.830499 1.1442 0.01936 1479.9 675.664)" fill="white"/>
<ellipse cx="2.82822" cy="2.82822" rx="2.82822" ry="2.82822" transform="matrix(0.0266727 -0.830499 1.1442 0.01936 1150.5 628.782)" fill="white"/>
<ellipse cx="2.82822" cy="2.82822" rx="2.82822" ry="2.82822" transform="matrix(0.0266727 -0.830499 1.1442 0.01936 1291.42 500.899)" fill="white"/>
<ellipse cx="2.82822" cy="2.82822" rx="2.82822" ry="2.82822" transform="matrix(0.0266727 -0.830499 1.1442 0.01936 1468.32 834.567)" fill="white"/>
</g>
<g style="mix-blend-mode:overlay">
<ellipse cx="2.3567" cy="3.23026" rx="2.3567" ry="3.23026" transform="matrix(0.117541 0.993068 -0.998061 0.0622363 2836.78 2.23828)" fill="white"/>
<ellipse cx="2.3567" cy="3.23026" rx="2.3567" ry="3.23026" transform="matrix(0.117541 0.993068 -0.998061 0.0622363 2545.13 138.567)" fill="white"/>
<ellipse cx="2.3567" cy="3.23026" rx="2.3567" ry="3.23026" transform="matrix(0.117541 0.993068 -0.998061 0.0622363 2879.6 159.159)" fill="white"/>
<ellipse cx="2.3567" cy="3.23026" rx="2.3567" ry="3.23026" transform="matrix(0.117541 0.993068 -0.998061 0.0622363 2758.69 297.411)" fill="white"/>
<ellipse cx="3.17926" cy="2.425" rx="3.17926" ry="2.425" transform="matrix(-0.956976 0.251585 -0.454453 -0.910715 2542.21 267.162)" fill="white"/>
<ellipse cx="3.17926" cy="2.425" rx="3.17926" ry="2.425" transform="matrix(-0.956976 0.251586 -0.454453 -0.910715 2382.37 193.22)" fill="white"/>
<ellipse cx="3.17926" cy="2.425" rx="3.17926" ry="2.425" transform="matrix(-0.956976 0.251586 -0.454453 -0.910715 2125.47 24.0273)" fill="white"/>
<ellipse cx="3.17926" cy="2.425" rx="3.17926" ry="2.425" transform="matrix(-0.956976 0.251586 -0.454453 -0.910715 2184.62 263.851)" fill="white"/>
<ellipse cx="3.17926" cy="2.425" rx="3.17926" ry="2.425" transform="matrix(-0.956976 0.251586 -0.454453 -0.910715 1969.35 214.866)" fill="white"/>
<ellipse cx="2.80807" cy="2.84823" rx="2.80807" ry="2.84823" transform="matrix(-0.864347 -0.553594 0.751922 -0.61851 2408.19 788.472)" fill="white"/>
<ellipse cx="2.80807" cy="2.84823" rx="2.80807" ry="2.84823" transform="matrix(-0.864347 -0.553594 0.751922 -0.61851 2420.91 651.207)" fill="white"/>
<ellipse cx="2.80807" cy="2.84823" rx="2.80807" ry="2.84823" transform="matrix(-0.864347 -0.553594 0.751922 -0.61851 2502.21 406.429)" fill="white"/>
<ellipse cx="2.80807" cy="2.84823" rx="2.80807" ry="2.84823" transform="matrix(-0.864347 -0.553594 0.751922 -0.61851 2240.67 559.146)" fill="white"/>
<ellipse cx="2.80807" cy="2.84823" rx="2.80807" ry="2.84823" transform="matrix(-0.864347 -0.553594 0.751922 -0.61851 2196.63 398.548)" fill="white"/>
<ellipse cx="2.80807" cy="2.84823" rx="2.80807" ry="2.84823" transform="matrix(-0.864347 -0.553594 0.751922 -0.61851 2662.24 515.188)" fill="white"/>
</g>
<g style="mix-blend-mode:overlay">
<ellipse cx="2.3567" cy="3.23026" rx="2.3567" ry="3.23026" transform="matrix(0.117541 0.993068 -0.998061 0.0622363 2836.78 2.23828)" fill="white"/>
<ellipse cx="2.3567" cy="3.23026" rx="2.3567" ry="3.23026" transform="matrix(0.117541 0.993068 -0.998061 0.0622363 2545.13 138.567)" fill="white"/>
<ellipse cx="2.3567" cy="3.23026" rx="2.3567" ry="3.23026" transform="matrix(0.117541 0.993068 -0.998061 0.0622363 2879.6 159.159)" fill="white"/>
<ellipse cx="2.3567" cy="3.23026" rx="2.3567" ry="3.23026" transform="matrix(0.117541 0.993068 -0.998061 0.0622363 2758.69 297.411)" fill="white"/>
<ellipse cx="3.17926" cy="2.425" rx="3.17926" ry="2.425" transform="matrix(-0.956976 0.251585 -0.454453 -0.910715 2542.21 267.162)" fill="white"/>
<ellipse cx="3.17926" cy="2.425" rx="3.17926" ry="2.425" transform="matrix(-0.956976 0.251586 -0.454453 -0.910715 2382.37 193.22)" fill="white"/>
<ellipse cx="3.17926" cy="2.425" rx="3.17926" ry="2.425" transform="matrix(-0.956976 0.251586 -0.454453 -0.910715 2125.47 24.0273)" fill="white"/>
<ellipse cx="3.17926" cy="2.425" rx="3.17926" ry="2.425" transform="matrix(-0.956976 0.251586 -0.454453 -0.910715 2184.62 263.851)" fill="white"/>
<ellipse cx="3.17926" cy="2.425" rx="3.17926" ry="2.425" transform="matrix(-0.956976 0.251586 -0.454453 -0.910715 1969.35 214.866)" fill="white"/>
<ellipse cx="2.80807" cy="2.84823" rx="2.80807" ry="2.84823" transform="matrix(-0.864347 -0.553594 0.751922 -0.61851 2408.19 788.472)" fill="white"/>
<ellipse cx="2.80807" cy="2.84823" rx="2.80807" ry="2.84823" transform="matrix(-0.864347 -0.553594 0.751922 -0.61851 2420.91 651.207)" fill="white"/>
<ellipse cx="2.80807" cy="2.84823" rx="2.80807" ry="2.84823" transform="matrix(-0.864347 -0.553594 0.751922 -0.61851 2502.21 406.429)" fill="white"/>
<ellipse cx="2.80807" cy="2.84823" rx="2.80807" ry="2.84823" transform="matrix(-0.864347 -0.553594 0.751922 -0.61851 2240.67 559.146)" fill="white"/>
<ellipse cx="2.80807" cy="2.84823" rx="2.80807" ry="2.84823" transform="matrix(-0.864347 -0.553594 0.751922 -0.61851 2196.63 398.548)" fill="white"/>
<ellipse cx="2.80807" cy="2.84823" rx="2.80807" ry="2.84823" transform="matrix(-0.864347 -0.553594 0.751922 -0.61851 2662.24 515.188)" fill="white"/>
</g>
<g style="mix-blend-mode:overlay">
<ellipse cx="2.80807" cy="2.84823" rx="2.80807" ry="2.84823" transform="matrix(-0.864347 -0.553594 0.751922 -0.61851 1244.04 382.067)" fill="white"/>
<ellipse cx="2.80807" cy="2.84823" rx="2.80807" ry="2.84823" transform="matrix(-0.864347 -0.553594 0.751922 -0.61851 1256.75 244.803)" fill="white"/>
<ellipse cx="2.80807" cy="2.84823" rx="2.80807" ry="2.84823" transform="matrix(-0.864347 -0.553594 0.751922 -0.61851 1338.06 0.0244141)" fill="white"/>
<ellipse cx="2.80807" cy="2.84823" rx="2.80807" ry="2.84823" transform="matrix(-0.864347 -0.553594 0.751922 -0.61851 1076.51 152.743)" fill="white"/>
<ellipse cx="2.80807" cy="2.84823" rx="2.80807" ry="2.84823" transform="matrix(-0.864347 -0.553594 0.751922 -0.61851 1498.08 108.785)" fill="white"/>
</g>
<g style="mix-blend-mode:overlay">
<ellipse cx="2.80807" cy="2.84823" rx="2.80807" ry="2.84823" transform="matrix(-0.864347 -0.553594 0.751922 -0.61851 1244.04 382.069)" fill="white"/>
<ellipse cx="2.80807" cy="2.84823" rx="2.80807" ry="2.84823" transform="matrix(-0.864347 -0.553594 0.751922 -0.61851 1256.76 244.805)" fill="white"/>
<ellipse cx="2.80807" cy="2.84823" rx="2.80807" ry="2.84823" transform="matrix(-0.864347 -0.553594 0.751922 -0.61851 1338.06 0.0263672)" fill="white"/>
<ellipse cx="2.80807" cy="2.84823" rx="2.80807" ry="2.84823" transform="matrix(-0.864347 -0.553594 0.751922 -0.61851 1076.52 152.745)" fill="white"/>
<ellipse cx="2.80807" cy="2.84823" rx="2.80807" ry="2.84823" transform="matrix(-0.864347 -0.553594 0.751922 -0.61851 1498.09 108.787)" fill="white"/>
</g>
<g style="mix-blend-mode:overlay">
</g>
<g style="mix-blend-mode:overlay">
</g>
<g opacity="0.6">
<g style="mix-blend-mode:overlay">
<ellipse cx="2.3567" cy="3.23026" rx="2.3567" ry="3.23026" transform="matrix(0.117541 0.993068 -0.998061 0.0622363 913.045 95.4512)" fill="white"/>
<ellipse cx="2.3567" cy="3.23026" rx="2.3567" ry="3.23026" transform="matrix(0.117541 0.993068 -0.998061 0.0622363 773.274 188.374)" fill="white"/>
<ellipse cx="2.3567" cy="3.23026" rx="2.3567" ry="3.23026" transform="matrix(0.117541 0.993068 -0.998061 0.0622363 481.623 324.7)" fill="white"/>
<ellipse cx="2.3567" cy="3.23026" rx="2.3567" ry="3.23026" transform="matrix(0.117541 0.993068 -0.998061 0.0622363 816.09 345.295)" fill="white"/>
<ellipse cx="2.3567" cy="3.23026" rx="2.3567" ry="3.23026" transform="matrix(0.117541 0.993068 -0.998061 0.0622363 695.182 483.547)" fill="white"/>
<ellipse cx="2.3567" cy="3.23026" rx="2.3567" ry="3.23026" transform="matrix(0.117541 0.993068 -0.998061 0.0622363 469.313 165.828)" fill="white"/>
<ellipse cx="3.17926" cy="2.425" rx="3.17926" ry="2.425" transform="matrix(-0.956976 0.251585 -0.454453 -0.910715 478.702 453.298)" fill="white"/>
<ellipse cx="3.17926" cy="2.425" rx="3.17926" ry="2.425" transform="matrix(-0.956976 0.251586 -0.454453 -0.910715 318.868 379.354)" fill="white"/>
<ellipse cx="3.17926" cy="2.425" rx="3.17926" ry="2.425" transform="matrix(-0.956976 0.251586 -0.454453 -0.910715 61.959 210.164)" fill="white"/>
<ellipse cx="3.17926" cy="2.425" rx="3.17926" ry="2.425" transform="matrix(-0.956976 0.251586 -0.454453 -0.910715 121.12 449.986)" fill="white"/>
<ellipse cx="3.17926" cy="2.425" rx="3.17926" ry="2.425" transform="matrix(-0.956976 0.251586 -0.454453 -0.910715 270.198 160.412)" fill="white"/>
<ellipse cx="2.80807" cy="2.84823" rx="2.80807" ry="2.84823" transform="matrix(-0.864347 -0.553594 0.751922 -0.61851 344.684 974.605)" fill="white"/>
<ellipse cx="2.80807" cy="2.84823" rx="2.80807" ry="2.84823" transform="matrix(-0.864347 -0.553594 0.751922 -0.61851 357.402 837.341)" fill="white"/>
<ellipse cx="2.80807" cy="2.84823" rx="2.80807" ry="2.84823" transform="matrix(-0.864347 -0.553594 0.751922 -0.61851 438.704 592.562)" fill="white"/>
<ellipse cx="2.80807" cy="2.84823" rx="2.80807" ry="2.84823" transform="matrix(-0.864347 -0.553594 0.751922 -0.61851 177.16 745.278)" fill="white"/>
<ellipse cx="2.80807" cy="2.84823" rx="2.80807" ry="2.84823" transform="matrix(-0.864347 -0.553594 0.751922 -0.61851 133.12 584.682)" fill="white"/>
<ellipse cx="2.80807" cy="2.84823" rx="2.80807" ry="2.84823" transform="matrix(-0.864347 -0.553594 0.751922 -0.61851 598.732 701.322)" fill="white"/>
</g>
<g style="mix-blend-mode:overlay">
<ellipse cx="2.3567" cy="3.23026" rx="2.3567" ry="3.23026" transform="matrix(0.117541 0.993068 -0.998061 0.0622363 913.045 95.4512)" fill="white"/>
<ellipse cx="2.3567" cy="3.23026" rx="2.3567" ry="3.23026" transform="matrix(0.117541 0.993068 -0.998061 0.0622363 773.274 188.374)" fill="white"/>
<ellipse cx="2.3567" cy="3.23026" rx="2.3567" ry="3.23026" transform="matrix(0.117541 0.993068 -0.998061 0.0622363 481.623 324.7)" fill="white"/>
<ellipse cx="2.3567" cy="3.23026" rx="2.3567" ry="3.23026" transform="matrix(0.117541 0.993068 -0.998061 0.0622363 816.09 345.295)" fill="white"/>
<ellipse cx="2.3567" cy="3.23026" rx="2.3567" ry="3.23026" transform="matrix(0.117541 0.993068 -0.998061 0.0622363 695.182 483.547)" fill="white"/>
<ellipse cx="2.3567" cy="3.23026" rx="2.3567" ry="3.23026" transform="matrix(0.117541 0.993068 -0.998061 0.0622363 469.313 165.828)" fill="white"/>
<ellipse cx="3.17926" cy="2.425" rx="3.17926" ry="2.425" transform="matrix(-0.956976 0.251585 -0.454453 -0.910715 478.702 453.298)" fill="white"/>
<ellipse cx="3.17926" cy="2.425" rx="3.17926" ry="2.425" transform="matrix(-0.956976 0.251586 -0.454453 -0.910715 318.868 379.354)" fill="white"/>
<ellipse cx="3.17926" cy="2.425" rx="3.17926" ry="2.425" transform="matrix(-0.956976 0.251586 -0.454453 -0.910715 61.959 210.164)" fill="white"/>
<ellipse cx="3.17926" cy="2.425" rx="3.17926" ry="2.425" transform="matrix(-0.956976 0.251586 -0.454453 -0.910715 121.12 449.986)" fill="white"/>
<ellipse cx="3.17926" cy="2.425" rx="3.17926" ry="2.425" transform="matrix(-0.956976 0.251586 -0.454453 -0.910715 270.198 160.412)" fill="white"/>
<ellipse cx="2.80807" cy="2.84823" rx="2.80807" ry="2.84823" transform="matrix(-0.864347 -0.553594 0.751922 -0.61851 344.684 974.605)" fill="white"/>
<ellipse cx="2.80807" cy="2.84823" rx="2.80807" ry="2.84823" transform="matrix(-0.864347 -0.553594 0.751922 -0.61851 357.402 837.341)" fill="white"/>
<ellipse cx="2.80807" cy="2.84823" rx="2.80807" ry="2.84823" transform="matrix(-0.864347 -0.553594 0.751922 -0.61851 438.704 592.562)" fill="white"/>
<ellipse cx="2.80807" cy="2.84823" rx="2.80807" ry="2.84823" transform="matrix(-0.864347 -0.553594 0.751922 -0.61851 177.16 745.278)" fill="white"/>
<ellipse cx="2.80807" cy="2.84823" rx="2.80807" ry="2.84823" transform="matrix(-0.864347 -0.553594 0.751922 -0.61851 133.12 584.682)" fill="white"/>
<ellipse cx="2.80807" cy="2.84823" rx="2.80807" ry="2.84823" transform="matrix(-0.864347 -0.553594 0.751922 -0.61851 598.732 701.322)" fill="white"/>
</g>
</g>
</g>
<g filter="url(#filter3_f_2172_29)">
<ellipse cx="2322.35" cy="921.93" rx="2322.35" ry="921.93" transform="matrix(0.999953 -0.00968114 -0.00714852 -0.999974 -603.607 5651.34)" fill="url(#paint1_linear_2172_29)" fill-opacity="0.4"/>
</g>
<g filter="url(#filter4_f_2172_29)">
<ellipse cx="1190.25" cy="468.442" rx="1190.25" ry="468.442" transform="matrix(1 0 0 -1 372.317 5271.14)" fill="#603F83"/>
</g>
<g filter="url(#filter5_f_2172_29)">
<ellipse cx="565.666" cy="465.496" rx="565.666" ry="465.496" transform="matrix(1 0 0 -1 2378.66 5328.59)" fill="#4ABBD5" fill-opacity="0.5"/>
</g>
<g opacity="0.8">
<g style="mix-blend-mode:overlay">
<ellipse cx="2.82822" cy="2.82822" rx="2.82822" ry="2.82822" transform="matrix(-0.809289 -0.587411 -0.809289 0.587411 2497.06 3948.84)" fill="white"/>
<ellipse cx="2.82822" cy="2.82822" rx="2.82822" ry="2.82822" transform="matrix(-0.809289 -0.587411 -0.809289 0.587411 2309.11 3966.61)" fill="white"/>
<ellipse cx="2.82822" cy="2.82822" rx="2.82822" ry="2.82822" transform="matrix(-0.809289 -0.587411 -0.809289 0.587411 1977.6 4040.77)" fill="white"/>
<ellipse cx="2.82822" cy="2.82822" rx="2.82822" ry="2.82822" transform="matrix(-0.809289 -0.587411 -0.809289 0.587411 2171.29 3841.78)" fill="white"/>
<ellipse cx="2.82822" cy="2.82822" rx="2.82822" ry="2.82822" transform="matrix(-0.809289 -0.587411 -0.809289 0.587411 1947.7 3819.89)" fill="white"/>
<ellipse cx="2.82822" cy="2.82822" rx="2.82822" ry="2.82822" transform="matrix(-0.809289 -0.587411 -0.809289 0.587411 2137.12 4149.92)" fill="white"/>
<circle cx="2.82822" cy="2.82822" r="2.82822" transform="matrix(-0.991172 0.415362 0.572253 0.719429 1840.17 3959.58)" fill="white"/>
<ellipse cx="2.82822" cy="2.82822" rx="2.82822" ry="2.82822" transform="matrix(-0.991172 0.415362 0.572253 0.719429 1815.18 4095.95)" fill="white"/>
<ellipse cx="2.82822" cy="2.82822" rx="2.82822" ry="2.82822" transform="matrix(-0.991172 0.415362 0.572253 0.719429 1613.38 4160.27)" fill="white"/>
<ellipse cx="2.82822" cy="2.82822" rx="2.82822" ry="2.82822" transform="matrix(0.0266727 0.830499 1.1442 -0.01936 1204.41 3698.28)" fill="white"/>
<ellipse cx="2.82822" cy="2.82822" rx="2.82822" ry="2.82822" transform="matrix(0.0266727 0.830499 1.1442 -0.01936 1357.27 3779.62)" fill="white"/>
<ellipse cx="2.82822" cy="2.82822" rx="2.82822" ry="2.82822" transform="matrix(0.0266727 0.830499 1.1442 -0.01936 1667.63 3892.11)" fill="white"/>
<ellipse cx="2.82822" cy="2.82822" rx="2.82822" ry="2.82822" transform="matrix(0.0266727 0.830499 1.1442 -0.01936 1338.24 3938.99)" fill="white"/>
<ellipse cx="2.82822" cy="2.82822" rx="2.82822" ry="2.82822" transform="matrix(0.0266727 0.830499 1.1442 -0.01936 1479.15 4066.87)" fill="white"/>
<ellipse cx="2.82822" cy="2.82822" rx="2.82822" ry="2.82822" transform="matrix(0.0266727 0.830499 1.1442 -0.01936 1656.05 3733.2)" fill="white"/>
</g>
<g style="mix-blend-mode:overlay">
<ellipse cx="2.82822" cy="2.82822" rx="2.82822" ry="2.82822" transform="matrix(-0.809289 -0.587411 -0.809289 0.587411 2497.06 3948.84)" fill="white"/>
<ellipse cx="2.82822" cy="2.82822" rx="2.82822" ry="2.82822" transform="matrix(-0.809289 -0.587411 -0.809289 0.587411 2309.11 3966.61)" fill="white"/>
<ellipse cx="2.82822" cy="2.82822" rx="2.82822" ry="2.82822" transform="matrix(-0.809289 -0.587411 -0.809289 0.587411 1977.6 4040.77)" fill="white"/>
<ellipse cx="2.82822" cy="2.82822" rx="2.82822" ry="2.82822" transform="matrix(-0.809289 -0.587411 -0.809289 0.587411 2171.29 3841.78)" fill="white"/>
<ellipse cx="2.82822" cy="2.82822" rx="2.82822" ry="2.82822" transform="matrix(-0.809289 -0.587411 -0.809289 0.587411 1947.7 3819.89)" fill="white"/>
<ellipse cx="2.82822" cy="2.82822" rx="2.82822" ry="2.82822" transform="matrix(-0.809289 -0.587411 -0.809289 0.587411 2137.12 4149.92)" fill="white"/>
<circle cx="2.82822" cy="2.82822" r="2.82822" transform="matrix(-0.991172 0.415362 0.572253 0.719429 1840.17 3959.58)" fill="white"/>
<ellipse cx="2.82822" cy="2.82822" rx="2.82822" ry="2.82822" transform="matrix(-0.991172 0.415362 0.572253 0.719429 1815.18 4095.95)" fill="white"/>
<ellipse cx="2.82822" cy="2.82822" rx="2.82822" ry="2.82822" transform="matrix(-0.991172 0.415362 0.572253 0.719429 1613.38 4160.27)" fill="white"/>
<ellipse cx="2.82822" cy="2.82822" rx="2.82822" ry="2.82822" transform="matrix(0.0266727 0.830499 1.1442 -0.01936 1204.41 3698.28)" fill="white"/>
<ellipse cx="2.82822" cy="2.82822" rx="2.82822" ry="2.82822" transform="matrix(0.0266727 0.830499 1.1442 -0.01936 1357.27 3779.62)" fill="white"/>
<ellipse cx="2.82822" cy="2.82822" rx="2.82822" ry="2.82822" transform="matrix(0.0266727 0.830499 1.1442 -0.01936 1667.63 3892.11)" fill="white"/>
<ellipse cx="2.82822" cy="2.82822" rx="2.82822" ry="2.82822" transform="matrix(0.0266727 0.830499 1.1442 -0.01936 1338.24 3938.99)" fill="white"/>
<ellipse cx="2.82822" cy="2.82822" rx="2.82822" ry="2.82822" transform="matrix(0.0266727 0.830499 1.1442 -0.01936 1479.15 4066.87)" fill="white"/>
<ellipse cx="2.82822" cy="2.82822" rx="2.82822" ry="2.82822" transform="matrix(0.0266727 0.830499 1.1442 -0.01936 1656.05 3733.2)" fill="white"/>
</g>
<g style="mix-blend-mode:overlay">
<ellipse cx="2.80807" cy="2.84823" rx="2.80807" ry="2.84823" transform="matrix(-0.864347 0.553594 0.751922 0.61851 3435.57 3848.36)" fill="white"/>
<ellipse cx="2.80807" cy="2.84823" rx="2.80807" ry="2.84823" transform="matrix(-0.864347 0.553594 0.751922 0.61851 3448.29 3985.62)" fill="white"/>
<ellipse cx="2.80807" cy="2.84823" rx="2.80807" ry="2.84823" transform="matrix(-0.864347 0.553594 0.751922 0.61851 3268.05 4077.68)" fill="white"/>
<ellipse cx="2.80807" cy="2.84823" rx="2.80807" ry="2.84823" transform="matrix(-0.864347 0.553594 0.751922 0.61851 3224.01 4238.28)" fill="white"/>
</g>
<g style="mix-blend-mode:overlay">
<ellipse cx="2.80807" cy="2.84823" rx="2.80807" ry="2.84823" transform="matrix(-0.864347 0.553594 0.751922 0.61851 3435.57 3848.36)" fill="white"/>
<ellipse cx="2.80807" cy="2.84823" rx="2.80807" ry="2.84823" transform="matrix(-0.864347 0.553594 0.751922 0.61851 3448.29 3985.62)" fill="white"/>
<ellipse cx="2.80807" cy="2.84823" rx="2.80807" ry="2.84823" transform="matrix(-0.864347 0.553594 0.751922 0.61851 3268.05 4077.68)" fill="white"/>
<ellipse cx="2.80807" cy="2.84823" rx="2.80807" ry="2.84823" transform="matrix(-0.864347 0.553594 0.751922 0.61851 3224.01 4238.28)" fill="white"/>
</g>
<g style="mix-blend-mode:overlay">
<ellipse cx="2.82822" cy="2.82822" rx="2.82822" ry="2.82822" transform="matrix(-0.809289 -0.587411 -0.809289 0.587411 2309.33 3738.41)" fill="white"/>
<ellipse cx="2.82822" cy="2.82822" rx="2.82822" ry="2.82822" transform="matrix(-0.809289 -0.587411 -0.809289 0.587411 2121.38 3756.18)" fill="white"/>
<ellipse cx="2.82822" cy="2.82822" rx="2.82822" ry="2.82822" transform="matrix(-0.809289 -0.587411 -0.809289 0.587411 1789.87 3830.34)" fill="white"/>
<ellipse cx="2.82822" cy="2.82822" rx="2.82822" ry="2.82822" transform="matrix(-0.809289 -0.587411 -0.809289 0.587411 1983.55 3631.35)" fill="white"/>
<ellipse cx="2.82822" cy="2.82822" rx="2.82822" ry="2.82822" transform="matrix(-0.809289 -0.587411 -0.809289 0.587411 1759.97 3609.46)" fill="white"/>
<ellipse cx="2.82822" cy="2.82822" rx="2.82822" ry="2.82822" transform="matrix(-0.809289 -0.587411 -0.809289 0.587411 1949.4 3939.49)" fill="white"/>
<circle cx="2.82822" cy="2.82822" r="2.82822" transform="matrix(-0.991172 0.415362 0.572253 0.719429 1652.44 3749.14)" fill="white"/>
<ellipse cx="2.82822" cy="2.82822" rx="2.82822" ry="2.82822" transform="matrix(-0.991172 0.415362 0.572253 0.719429 1627.45 3885.51)" fill="white"/>
<ellipse cx="2.82822" cy="2.82822" rx="2.82822" ry="2.82822" transform="matrix(-0.991172 0.415362 0.572253 0.719429 1640.33 4137.13)" fill="white"/>
<ellipse cx="2.82822" cy="2.82822" rx="2.82822" ry="2.82822" transform="matrix(-0.991172 0.415362 0.572253 0.719429 1425.65 3949.84)" fill="white"/>
<ellipse cx="2.82822" cy="2.82822" rx="2.82822" ry="2.82822" transform="matrix(-0.991172 0.415362 0.572253 0.719429 1338.65 4100.92)" fill="white"/>
<ellipse cx="2.82822" cy="2.82822" rx="2.82822" ry="2.82822" transform="matrix(-0.991172 0.415362 0.572253 0.719429 1826.87 4053.54)" fill="white"/>
<ellipse cx="2.82822" cy="2.82822" rx="2.82822" ry="2.82822" transform="matrix(0.0266727 0.830499 1.1442 -0.01936 1016.68 3487.85)" fill="white"/>
<ellipse cx="2.82822" cy="2.82822" rx="2.82822" ry="2.82822" transform="matrix(0.0266727 0.830499 1.1442 -0.01936 1169.55 3569.18)" fill="white"/>
<ellipse cx="2.82822" cy="2.82822" rx="2.82822" ry="2.82822" transform="matrix(0.0266727 0.830499 1.1442 -0.01936 1479.9 3681.67)" fill="white"/>
<ellipse cx="2.82822" cy="2.82822" rx="2.82822" ry="2.82822" transform="matrix(0.0266727 0.830499 1.1442 -0.01936 1150.5 3728.55)" fill="white"/>
<ellipse cx="2.82822" cy="2.82822" rx="2.82822" ry="2.82822" transform="matrix(0.0266727 0.830499 1.1442 -0.01936 1291.42 3856.44)" fill="white"/>
<ellipse cx="2.82822" cy="2.82822" rx="2.82822" ry="2.82822" transform="matrix(0.0266727 0.830499 1.1442 -0.01936 1468.32 3522.77)" fill="white"/>
</g>
<g style="mix-blend-mode:overlay">
<ellipse cx="2.82822" cy="2.82822" rx="2.82822" ry="2.82822" transform="matrix(-0.809289 -0.587411 -0.809289 0.587411 2309.33 3738.41)" fill="white"/>
<ellipse cx="2.82822" cy="2.82822" rx="2.82822" ry="2.82822" transform="matrix(-0.809289 -0.587411 -0.809289 0.587411 2121.38 3756.18)" fill="white"/>
<ellipse cx="2.82822" cy="2.82822" rx="2.82822" ry="2.82822" transform="matrix(-0.809289 -0.587411 -0.809289 0.587411 1789.87 3830.34)" fill="white"/>
<ellipse cx="2.82822" cy="2.82822" rx="2.82822" ry="2.82822" transform="matrix(-0.809289 -0.587411 -0.809289 0.587411 1983.55 3631.35)" fill="white"/>
<ellipse cx="2.82822" cy="2.82822" rx="2.82822" ry="2.82822" transform="matrix(-0.809289 -0.587411 -0.809289 0.587411 1759.97 3609.46)" fill="white"/>
<ellipse cx="2.82822" cy="2.82822" rx="2.82822" ry="2.82822" transform="matrix(-0.809289 -0.587411 -0.809289 0.587411 1949.4 3939.49)" fill="white"/>
<circle cx="2.82822" cy="2.82822" r="2.82822" transform="matrix(-0.991172 0.415362 0.572253 0.719429 1652.44 3749.14)" fill="white"/>
<ellipse cx="2.82822" cy="2.82822" rx="2.82822" ry="2.82822" transform="matrix(-0.991172 0.415362 0.572253 0.719429 1627.45 3885.51)" fill="white"/>
<ellipse cx="2.82822" cy="2.82822" rx="2.82822" ry="2.82822" transform="matrix(-0.991172 0.415362 0.572253 0.719429 1640.33 4137.13)" fill="white"/>
<ellipse cx="2.82822" cy="2.82822" rx="2.82822" ry="2.82822" transform="matrix(-0.991172 0.415362 0.572253 0.719429 1425.65 3949.84)" fill="white"/>
<ellipse cx="2.82822" cy="2.82822" rx="2.82822" ry="2.82822" transform="matrix(-0.991172 0.415362 0.572253 0.719429 1338.65 4100.92)" fill="white"/>
<ellipse cx="2.82822" cy="2.82822" rx="2.82822" ry="2.82822" transform="matrix(-0.991172 0.415362 0.572253 0.719429 1826.87 4053.54)" fill="white"/>
<ellipse cx="2.82822" cy="2.82822" rx="2.82822" ry="2.82822" transform="matrix(0.0266727 0.830499 1.1442 -0.01936 1016.68 3487.85)" fill="white"/>
<ellipse cx="2.82822" cy="2.82822" rx="2.82822" ry="2.82822" transform="matrix(0.0266727 0.830499 1.1442 -0.01936 1169.55 3569.18)" fill="white"/>
<ellipse cx="2.82822" cy="2.82822" rx="2.82822" ry="2.82822" transform="matrix(0.0266727 0.830499 1.1442 -0.01936 1479.9 3681.67)" fill="white"/>
<ellipse cx="2.82822" cy="2.82822" rx="2.82822" ry="2.82822" transform="matrix(0.0266727 0.830499 1.1442 -0.01936 1150.5 3728.55)" fill="white"/>
<ellipse cx="2.82822" cy="2.82822" rx="2.82822" ry="2.82822" transform="matrix(0.0266727 0.830499 1.1442 -0.01936 1291.42 3856.44)" fill="white"/>
<ellipse cx="2.82822" cy="2.82822" rx="2.82822" ry="2.82822" transform="matrix(0.0266727 0.830499 1.1442 -0.01936 1468.32 3522.77)" fill="white"/>
</g>
<g style="mix-blend-mode:overlay">
<ellipse cx="2.3567" cy="3.23026" rx="2.3567" ry="3.23026" transform="matrix(0.117541 -0.993068 -0.998061 -0.0622363 2545.13 4218.77)" fill="white"/>
<ellipse cx="2.3567" cy="3.23026" rx="2.3567" ry="3.23026" transform="matrix(0.117541 -0.993068 -0.998061 -0.0622363 2879.6 4198.18)" fill="white"/>
<ellipse cx="2.3567" cy="3.23026" rx="2.3567" ry="3.23026" transform="matrix(0.117541 -0.993068 -0.998061 -0.0622363 2758.69 4059.93)" fill="white"/>
<ellipse cx="3.17926" cy="2.425" rx="3.17926" ry="2.425" transform="matrix(-0.956976 -0.251585 -0.454453 0.910715 2542.21 4090.17)" fill="white"/>
<ellipse cx="3.17926" cy="2.425" rx="3.17926" ry="2.425" transform="matrix(-0.956976 -0.251586 -0.454453 0.910715 2382.37 4164.12)" fill="white"/>
<ellipse cx="3.17926" cy="2.425" rx="3.17926" ry="2.425" transform="matrix(-0.956976 -0.251586 -0.454453 0.910715 2184.62 4093.49)" fill="white"/>
<ellipse cx="3.17926" cy="2.425" rx="3.17926" ry="2.425" transform="matrix(-0.956976 -0.251586 -0.454453 0.910715 1969.35 4142.47)" fill="white"/>
<ellipse cx="2.80807" cy="2.84823" rx="2.80807" ry="2.84823" transform="matrix(-0.864347 0.553594 0.751922 0.61851 2408.19 3568.87)" fill="white"/>
<ellipse cx="2.80807" cy="2.84823" rx="2.80807" ry="2.84823" transform="matrix(-0.864347 0.553594 0.751922 0.61851 2420.91 3706.13)" fill="white"/>
<ellipse cx="2.80807" cy="2.84823" rx="2.80807" ry="2.84823" transform="matrix(-0.864347 0.553594 0.751922 0.61851 2502.21 3950.91)" fill="white"/>
<ellipse cx="2.80807" cy="2.84823" rx="2.80807" ry="2.84823" transform="matrix(-0.864347 0.553594 0.751922 0.61851 2240.67 3798.19)" fill="white"/>
<ellipse cx="2.80807" cy="2.84823" rx="2.80807" ry="2.84823" transform="matrix(-0.864347 0.553594 0.751922 0.61851 2196.63 3958.79)" fill="white"/>
<ellipse cx="2.80807" cy="2.84823" rx="2.80807" ry="2.84823" transform="matrix(-0.864347 0.553594 0.751922 0.61851 2662.24 3842.15)" fill="white"/>
</g>
<g style="mix-blend-mode:overlay">
<ellipse cx="2.3567" cy="3.23026" rx="2.3567" ry="3.23026" transform="matrix(0.117541 -0.993068 -0.998061 -0.0622363 2545.13 4218.77)" fill="white"/>
<ellipse cx="2.3567" cy="3.23026" rx="2.3567" ry="3.23026" transform="matrix(0.117541 -0.993068 -0.998061 -0.0622363 2879.6 4198.18)" fill="white"/>
<ellipse cx="2.3567" cy="3.23026" rx="2.3567" ry="3.23026" transform="matrix(0.117541 -0.993068 -0.998061 -0.0622363 2758.69 4059.93)" fill="white"/>
<ellipse cx="3.17926" cy="2.425" rx="3.17926" ry="2.425" transform="matrix(-0.956976 -0.251585 -0.454453 0.910715 2542.21 4090.17)" fill="white"/>
<ellipse cx="3.17926" cy="2.425" rx="3.17926" ry="2.425" transform="matrix(-0.956976 -0.251586 -0.454453 0.910715 2382.37 4164.12)" fill="white"/>
<ellipse cx="3.17926" cy="2.425" rx="3.17926" ry="2.425" transform="matrix(-0.956976 -0.251586 -0.454453 0.910715 2184.62 4093.49)" fill="white"/>
<ellipse cx="3.17926" cy="2.425" rx="3.17926" ry="2.425" transform="matrix(-0.956976 -0.251586 -0.454453 0.910715 1969.35 4142.47)" fill="white"/>
<ellipse cx="2.80807" cy="2.84823" rx="2.80807" ry="2.84823" transform="matrix(-0.864347 0.553594 0.751922 0.61851 2408.19 3568.87)" fill="white"/>
<ellipse cx="2.80807" cy="2.84823" rx="2.80807" ry="2.84823" transform="matrix(-0.864347 0.553594 0.751922 0.61851 2420.91 3706.13)" fill="white"/>
<ellipse cx="2.80807" cy="2.84823" rx="2.80807" ry="2.84823" transform="matrix(-0.864347 0.553594 0.751922 0.61851 2502.21 3950.91)" fill="white"/>
<ellipse cx="2.80807" cy="2.84823" rx="2.80807" ry="2.84823" transform="matrix(-0.864347 0.553594 0.751922 0.61851 2240.67 3798.19)" fill="white"/>
<ellipse cx="2.80807" cy="2.84823" rx="2.80807" ry="2.84823" transform="matrix(-0.864347 0.553594 0.751922 0.61851 2196.63 3958.79)" fill="white"/>
<ellipse cx="2.80807" cy="2.84823" rx="2.80807" ry="2.84823" transform="matrix(-0.864347 0.553594 0.751922 0.61851 2662.24 3842.15)" fill="white"/>
</g>
<g style="mix-blend-mode:overlay">
<ellipse cx="2.80807" cy="2.84823" rx="2.80807" ry="2.84823" transform="matrix(-0.864347 0.553594 0.751922 0.61851 1244.04 3975.27)" fill="white"/>
<ellipse cx="2.80807" cy="2.84823" rx="2.80807" ry="2.84823" transform="matrix(-0.864347 0.553594 0.751922 0.61851 1256.75 4112.53)" fill="white"/>
<ellipse cx="2.80807" cy="2.84823" rx="2.80807" ry="2.84823" transform="matrix(-0.864347 0.553594 0.751922 0.61851 1076.51 4204.59)" fill="white"/>
<ellipse cx="2.80807" cy="2.84823" rx="2.80807" ry="2.84823" transform="matrix(-0.864347 0.553594 0.751922 0.61851 1498.08 4248.55)" fill="white"/>
</g>
<g style="mix-blend-mode:overlay">
<ellipse cx="2.80807" cy="2.84823" rx="2.80807" ry="2.84823" transform="matrix(-0.864347 0.553594 0.751922 0.61851 1244.04 3975.27)" fill="white"/>
<ellipse cx="2.80807" cy="2.84823" rx="2.80807" ry="2.84823" transform="matrix(-0.864347 0.553594 0.751922 0.61851 1256.76 4112.53)" fill="white"/>
<ellipse cx="2.80807" cy="2.84823" rx="2.80807" ry="2.84823" transform="matrix(-0.864347 0.553594 0.751922 0.61851 1076.52 4204.59)" fill="white"/>
<ellipse cx="2.80807" cy="2.84823" rx="2.80807" ry="2.84823" transform="matrix(-0.864347 0.553594 0.751922 0.61851 1498.09 4248.55)" fill="white"/>
</g>
<g style="mix-blend-mode:overlay">
</g>
<g style="mix-blend-mode:overlay">
</g>
<g opacity="0.6">
<g style="mix-blend-mode:overlay">
<ellipse cx="2.3567" cy="3.23026" rx="2.3567" ry="3.23026" transform="matrix(0.117541 -0.993068 -0.998061 -0.0622363 913.045 4261.89)" fill="white"/>
<ellipse cx="2.3567" cy="3.23026" rx="2.3567" ry="3.23026" transform="matrix(0.117541 -0.993068 -0.998061 -0.0622363 773.274 4168.96)" fill="white"/>
<ellipse cx="2.3567" cy="3.23026" rx="2.3567" ry="3.23026" transform="matrix(0.117541 -0.993068 -0.998061 -0.0622363 481.623 4032.64)" fill="white"/>
<ellipse cx="2.3567" cy="3.23026" rx="2.3567" ry="3.23026" transform="matrix(0.117541 -0.993068 -0.998061 -0.0622363 816.09 4012.04)" fill="white"/>
<ellipse cx="2.3567" cy="3.23026" rx="2.3567" ry="3.23026" transform="matrix(0.117541 -0.993068 -0.998061 -0.0622363 695.182 3873.79)" fill="white"/>
<ellipse cx="2.3567" cy="3.23026" rx="2.3567" ry="3.23026" transform="matrix(0.117541 -0.993068 -0.998061 -0.0622363 469.313 4191.51)" fill="white"/>
<ellipse cx="3.17926" cy="2.425" rx="3.17926" ry="2.425" transform="matrix(-0.956976 -0.251585 -0.454453 0.910715 478.702 3904.04)" fill="white"/>
<ellipse cx="3.17926" cy="2.425" rx="3.17926" ry="2.425" transform="matrix(-0.956976 -0.251586 -0.454453 0.910715 318.868 3977.98)" fill="white"/>
<ellipse cx="3.17926" cy="2.425" rx="3.17926" ry="2.425" transform="matrix(-0.956976 -0.251586 -0.454453 0.910715 61.959 4147.17)" fill="white"/>
<ellipse cx="3.17926" cy="2.425" rx="3.17926" ry="2.425" transform="matrix(-0.956976 -0.251586 -0.454453 0.910715 121.12 3907.35)" fill="white"/>
<ellipse cx="3.17926" cy="2.425" rx="3.17926" ry="2.425" transform="matrix(-0.956976 -0.251586 -0.454453 0.910715 270.198 4196.92)" fill="white"/>
<ellipse cx="2.80807" cy="2.84823" rx="2.80807" ry="2.84823" transform="matrix(-0.864347 0.553594 0.751922 0.61851 344.684 3382.73)" fill="white"/>
<ellipse cx="2.80807" cy="2.84823" rx="2.80807" ry="2.84823" transform="matrix(-0.864347 0.553594 0.751922 0.61851 357.402 3520)" fill="white"/>
<ellipse cx="2.80807" cy="2.84823" rx="2.80807" ry="2.84823" transform="matrix(-0.864347 0.553594 0.751922 0.61851 438.704 3764.77)" fill="white"/>
<ellipse cx="2.80807" cy="2.84823" rx="2.80807" ry="2.84823" transform="matrix(-0.864347 0.553594 0.751922 0.61851 177.16 3612.06)" fill="white"/>
<ellipse cx="2.80807" cy="2.84823" rx="2.80807" ry="2.84823" transform="matrix(-0.864347 0.553594 0.751922 0.61851 133.12 3772.66)" fill="white"/>
<ellipse cx="2.80807" cy="2.84823" rx="2.80807" ry="2.84823" transform="matrix(-0.864347 0.553594 0.751922 0.61851 598.732 3656.01)" fill="white"/>
</g>
<g style="mix-blend-mode:overlay">
<ellipse cx="2.3567" cy="3.23026" rx="2.3567" ry="3.23026" transform="matrix(0.117541 -0.993068 -0.998061 -0.0622363 913.045 4261.89)" fill="white"/>
<ellipse cx="2.3567" cy="3.23026" rx="2.3567" ry="3.23026" transform="matrix(0.117541 -0.993068 -0.998061 -0.0622363 773.274 4168.96)" fill="white"/>
<ellipse cx="2.3567" cy="3.23026" rx="2.3567" ry="3.23026" transform="matrix(0.117541 -0.993068 -0.998061 -0.0622363 481.623 4032.64)" fill="white"/>
<ellipse cx="2.3567" cy="3.23026" rx="2.3567" ry="3.23026" transform="matrix(0.117541 -0.993068 -0.998061 -0.0622363 816.09 4012.04)" fill="white"/>
<ellipse cx="2.3567" cy="3.23026" rx="2.3567" ry="3.23026" transform="matrix(0.117541 -0.993068 -0.998061 -0.0622363 695.182 3873.79)" fill="white"/>
<ellipse cx="2.3567" cy="3.23026" rx="2.3567" ry="3.23026" transform="matrix(0.117541 -0.993068 -0.998061 -0.0622363 469.313 4191.51)" fill="white"/>
<ellipse cx="3.17926" cy="2.425" rx="3.17926" ry="2.425" transform="matrix(-0.956976 -0.251585 -0.454453 0.910715 478.702 3904.04)" fill="white"/>
<ellipse cx="3.17926" cy="2.425" rx="3.17926" ry="2.425" transform="matrix(-0.956976 -0.251586 -0.454453 0.910715 318.868 3977.98)" fill="white"/>
<ellipse cx="3.17926" cy="2.425" rx="3.17926" ry="2.425" transform="matrix(-0.956976 -0.251586 -0.454453 0.910715 61.959 4147.17)" fill="white"/>
<ellipse cx="3.17926" cy="2.425" rx="3.17926" ry="2.425" transform="matrix(-0.956976 -0.251586 -0.454453 0.910715 121.12 3907.35)" fill="white"/>
<ellipse cx="3.17926" cy="2.425" rx="3.17926" ry="2.425" transform="matrix(-0.956976 -0.251586 -0.454453 0.910715 270.198 4196.92)" fill="white"/>
<ellipse cx="2.80807" cy="2.84823" rx="2.80807" ry="2.84823" transform="matrix(-0.864347 0.553594 0.751922 0.61851 344.684 3382.73)" fill="white"/>
<ellipse cx="2.80807" cy="2.84823" rx="2.80807" ry="2.84823" transform="matrix(-0.864347 0.553594 0.751922 0.61851 357.402 3520)" fill="white"/>
<ellipse cx="2.80807" cy="2.84823" rx="2.80807" ry="2.84823" transform="matrix(-0.864347 0.553594 0.751922 0.61851 438.704 3764.77)" fill="white"/>
<ellipse cx="2.80807" cy="2.84823" rx="2.80807" ry="2.84823" transform="matrix(-0.864347 0.553594 0.751922 0.61851 177.16 3612.06)" fill="white"/>
<ellipse cx="2.80807" cy="2.84823" rx="2.80807" ry="2.84823" transform="matrix(-0.864347 0.553594 0.751922 0.61851 133.12 3772.66)" fill="white"/>
<ellipse cx="2.80807" cy="2.84823" rx="2.80807" ry="2.84823" transform="matrix(-0.864347 0.553594 0.751922 0.61851 598.732 3656.01)" fill="white"/>
</g>
</g>
</g>
<g filter="url(#filter6_f_2172_29)">
<ellipse cx="1081" cy="924.5" rx="1081" ry="924.5" transform="matrix(1 -1.71111e-07 -4.46655e-08 -1 -268 2236)" fill="black"/>
</g>
<g filter="url(#filter7_f_2172_29)">
<ellipse cx="1081" cy="924.5" rx="1081" ry="924.5" transform="matrix(1 -1.71111e-07 -4.46655e-08 -1 1595 4033)" fill="black"/>
</g>
</g>
<defs>
<filter id="filter0_f_2172_29" x="-1346.75" y="-2008.34" width="6117.59" height="3317.46" filterUnits="userSpaceOnUse" color-interpolation-filters="sRGB">
<feFlood flood-opacity="0" result="BackgroundImageFix"/>
<feBlend mode="normal" in="SourceGraphic" in2="BackgroundImageFix" result="shape"/>
<feGaussianBlur stdDeviation="368.272" result="effect1_foregroundBlur_2172_29"/>
</filter>
<filter id="filter1_f_2172_29" x="-69.6089" y="-1355.73" width="3264.36" height="1820.74" filterUnits="userSpaceOnUse" color-interpolation-filters="sRGB">
<feFlood flood-opacity="0" result="BackgroundImageFix"/>
<feBlend mode="normal" in="SourceGraphic" in2="BackgroundImageFix" result="shape"/>
<feGaussianBlur stdDeviation="220.963" result="effect1_foregroundBlur_2172_29"/>
</filter>
<filter id="filter2_f_2172_29" x="1936.74" y="-1413.18" width="2015.18" height="1814.84" filterUnits="userSpaceOnUse" color-interpolation-filters="sRGB">
<feFlood flood-opacity="0" result="BackgroundImageFix"/>
<feBlend mode="normal" in="SourceGraphic" in2="BackgroundImageFix" result="shape"/>
<feGaussianBlur stdDeviation="220.963" result="effect1_foregroundBlur_2172_29"/>
</filter>
<filter id="filter3_f_2172_29" x="-1346.75" y="3048.22" width="6117.59" height="3317.46" filterUnits="userSpaceOnUse" color-interpolation-filters="sRGB">
<feFlood flood-opacity="0" result="BackgroundImageFix"/>
<feBlend mode="normal" in="SourceGraphic" in2="BackgroundImageFix" result="shape"/>
<feGaussianBlur stdDeviation="368.272" result="effect1_foregroundBlur_2172_29"/>
</filter>
<filter id="filter4_f_2172_29" x="-69.6089" y="3892.33" width="3264.36" height="1820.74" filterUnits="userSpaceOnUse" color-interpolation-filters="sRGB">
<feFlood flood-opacity="0" result="BackgroundImageFix"/>
<feBlend mode="normal" in="SourceGraphic" in2="BackgroundImageFix" result="shape"/>
<feGaussianBlur stdDeviation="220.963" result="effect1_foregroundBlur_2172_29"/>
</filter>
<filter id="filter5_f_2172_29" x="1936.74" y="3955.67" width="2015.18" height="1814.84" filterUnits="userSpaceOnUse" color-interpolation-filters="sRGB">
<feFlood flood-opacity="0" result="BackgroundImageFix"/>
<feBlend mode="normal" in="SourceGraphic" in2="BackgroundImageFix" result="shape"/>
<feGaussianBlur stdDeviation="220.963" result="effect1_foregroundBlur_2172_29"/>
</filter>
<filter id="filter6_f_2172_29" x="-1468" y="-813" width="4562" height="4249" filterUnits="userSpaceOnUse" color-interpolation-filters="sRGB">
<feFlood flood-opacity="0" result="BackgroundImageFix"/>
<feBlend mode="normal" in="SourceGraphic" in2="BackgroundImageFix" result="shape"/>
<feGaussianBlur stdDeviation="600" result="effect1_foregroundBlur_2172_29"/>
</filter>
<filter id="filter7_f_2172_29" x="395" y="984" width="4562" height="4249" filterUnits="userSpaceOnUse" color-interpolation-filters="sRGB">
<feFlood flood-opacity="0" result="BackgroundImageFix"/>
<feBlend mode="normal" in="SourceGraphic" in2="BackgroundImageFix" result="shape"/>
<feGaussianBlur stdDeviation="600" result="effect1_foregroundBlur_2172_29"/>
</filter>
<linearGradient id="paint0_linear_2172_29" x1="-497.647" y1="2045.53" x2="5492.05" y2="1201.13" gradientUnits="userSpaceOnUse">
<stop offset="0.172988" stop-color="#D9248F"/>
<stop offset="0.586855" stop-color="#603F83"/>
<stop offset="0.775206" stop-color="#47479D"/>
<stop offset="0.83411" stop-color="#65C086"/>
</linearGradient>
<linearGradient id="paint1_linear_2172_29" x1="-497.647" y1="2045.53" x2="5492.05" y2="1201.13" gradientUnits="userSpaceOnUse">
<stop offset="0.1285" stop-color="#D9248F"/>
<stop offset="0.464445" stop-color="#603F83"/>
<stop offset="0.693105" stop-color="#47479D"/>
<stop offset="0.736759" stop-color="#65C086"/>
</linearGradient>
<clipPath id="clip0_2172_29">
<rect width="3504" height="4258" fill="white"/>
</clipPath>
</defs>
</svg>
