<?xml version="1.0" encoding="UTF-8"?>
<svg xmlns="http://www.w3.org/2000/svg" viewBox="0 0 488.7096 361.0714">
  <defs>
    <style>
      .cls-1 {
        fill: #f9e0c3;
      }

      .cls-1, .cls-2 {
        opacity: .8235;
      }

      .cls-3 {
        fill: #c0c3e1;
      }

      .cls-4 {
        fill: #cbc0dd;
      }

      .cls-5 {
        fill: #ecc1d3;
      }

      .cls-6 {
        mix-blend-mode: color-burn;
      }

      .cls-7 {
        fill: #f9da96;
      }

      .cls-7, .cls-8 {
        opacity: .2941;
      }

      .cls-9 {
        fill: #f8d5cb;
      }

      .cls-10 {
        fill: #b3c6e5;
      }

      .cls-11 {
        fill: #ecc2d3;
      }

      .cls-12 {
        fill: #c3c2e0;
      }

      .cls-13 {
        fill: #f8d6ca;
      }

      .cls-14 {
        fill: #f3d3d2;
      }

      .cls-15 {
        fill: #efcad3;
      }

      .cls-16 {
        fill: #ecbfd1;
      }

      .cls-17 {
        fill: #f5d0cc;
      }

      .cls-18 {
        fill: #f4d5d2;
      }

      .cls-19 {
        fill: #f9ddac;
      }

      .cls-19, .cls-20 {
        opacity: .549;
      }

      .cls-21 {
        fill: #c5c2df;
      }

      .cls-22 {
        fill: #f3cccd;
      }

      .cls-23 {
        fill: #f8e0d2;
      }

      .cls-24 {
        fill: #f6d1cc;
      }

      .cls-25 {
        fill: #f9deb6;
      }

      .cls-25, .cls-26 {
        opacity: .6667;
      }

      .cls-27 {
        fill: #f9dca3;
      }

      .cls-27, .cls-28 {
        opacity: .451;
      }

      .cls-29 {
        fill: #b5c5e4;
      }

      .cls-30 {
        fill: #f9db9d;
      }

      .cls-30, .cls-31 {
        opacity: .3725;
      }

      .cls-32 {
        fill: #f9dfb7;
      }

      .cls-32, .cls-33 {
        opacity: .6863;
      }

      .cls-34 {
        fill: #e3bbd5;
      }

      .cls-35 {
        fill: #f9da93;
      }

      .cls-35, .cls-36 {
        opacity: .2549;
      }

      .cls-37 {
        fill: #d6bed9;
      }

      .cls-38 {
        fill: #f1ced3;
      }

      .cls-39 {
        fill: #b8c4e3;
      }

      .cls-40 {
        fill: #f9e2cf;
      }

      .cls-40, .cls-41 {
        opacity: .9608;
      }

      .cls-42 {
        fill: #f9d98a;
      }

      .cls-42, .cls-43 {
        opacity: .1569;
      }

      .cls-44 {
        fill: #b7c5e4;
      }

      .cls-45 {
        fill: #f6dbd2;
      }

      .cls-46 {
        fill: #f9e0c1;
      }

      .cls-46, .cls-47 {
        opacity: .8039;
      }

      .cls-48 {
        fill: #f9ddaf;
      }

      .cls-48, .cls-49 {
        opacity: .5882;
      }

      .cls-50 {
        fill: #f9e0c6;
      }

      .cls-50, .cls-51 {
        opacity: .8627;
      }

      .cls-52 {
        fill: #ecc0d1;
      }

      .cls-53 {
        fill: #edc3d3;
      }

      .cls-54 {
        fill: #c2c2e0;
      }

      .cls-55 {
        fill: #f1cfd2;
      }

      .cls-56 {
        fill: #f9d77f;
      }

      .cls-56, .cls-57 {
        opacity: .0196;
      }

      .cls-58 {
        fill: #f9d884;
      }

      .cls-58, .cls-59 {
        opacity: .0784;
      }

      .cls-60 {
        fill: #f9e1d2;
      }

      .cls-61 {
        fill: #f3d2d2;
      }

      .cls-62 {
        fill: #e8bad3;
      }

      .cls-63 {
        fill: #e6bbd4;
      }

      .cls-64 {
        fill: #e5bbd4;
      }

      .cls-65 {
        fill: #f9e1ca;
      }

      .cls-65, .cls-66 {
        opacity: .902;
      }

      .cls-67 {
        fill: #f7ddd2;
      }

      .cls-68 {
        fill: #cac1dd;
      }

      .cls-69 {
        fill: #b0c6e6;
      }

      .cls-70 {
        fill: #e1bcd6;
      }

      .cls-71 {
        fill: #e9bbd3;
      }

      .cls-72 {
        fill: #f9ddad;
      }

      .cls-72, .cls-73 {
        opacity: .5686;
      }

      .cls-74 {
        fill: #edc4d3;
      }

      .cls-75 {
        fill: #f2d2d2;
      }

      .cls-76 {
        fill: #f2cace;
      }

      .cls-77 {
        fill: #f9dfb9;
      }

      .cls-77, .cls-78 {
        opacity: .7059;
      }

      .cls-79 {
        fill: #adc7e7;
      }

      .cls-80 {
        fill: #bdc3e2;
      }

      .cls-81 {
        fill: #b9c4e3;
      }

      .cls-82 {
        fill: #edc2d1;
      }

      .cls-83 {
        fill: #c9c1de;
      }

      .cls-84 {
        fill: #c7c1de;
      }

      .cls-85 {
        fill: #cfbfdc;
      }

      .cls-86 {
        fill: #f9d6ca;
      }

      .cls-87 {
        fill: #f9dca7;
      }

      .cls-87, .cls-88 {
        opacity: .4902;
      }

      .cls-89 {
        fill: #c6c1df;
      }

      .cls-90 {
        fill: #cec0dc;
      }

      .cls-91 {
        fill: #f6dad2;
      }

      .cls-92 {
        fill: #f6d2cb;
      }

      .cls-93 {
        fill: #d9bdd8;
      }

      .cls-94 {
        fill: #f9e0c5;
      }

      .cls-94, .cls-95 {
        opacity: .8431;
      }

      .cls-96 {
        fill: #f2d0d2;
      }

      .cls-97 {
        fill: #ecc3d3;
      }

      .cls-98 {
        isolation: isolate;
      }

      .cls-99 {
        fill: #f2d1d2;
      }

      .cls-100 {
        fill: #eabcd2;
      }

      .cls-101 {
        fill: #f9d885;
      }

      .cls-101, .cls-102 {
        opacity: .098;
      }

      .cls-103 {
        fill: #f1cdd3;
      }

      .cls-104 {
        fill: #bac4e3;
      }

      .cls-105 {
        fill: #f9dfbc;
      }

      .cls-105, .cls-106 {
        opacity: .7451;
      }

      .cls-107 {
        fill: #eec3d0;
      }

      .cls-108 {
        fill: #f0cad3;
      }

      .cls-109 {
        fill: #f9ddaa;
      }

      .cls-109, .cls-110 {
        opacity: .5294;
      }

      .cls-111 {
        fill: #dfbcd6;
      }

      .cls-112 {
        fill: #c1c3e0;
      }

      .cls-113 {
        fill: #ebbed3;
      }

      .cls-114 {
        fill: #f9deb1;
      }

      .cls-114, .cls-115 {
        opacity: .6078;
      }

      .cls-116 {
        fill: #ebbed2;
      }

      .cls-117 {
        fill: #f9d780;
      }

      .cls-117, .cls-118 {
        opacity: .0392;
      }

      .cls-119 {
        fill: #efc5cf;
      }

      .cls-120 {
        fill: #b4c5e5;
      }

      .cls-121 {
        fill: #efc8d3;
      }

      .cls-122 {
        fill: #f9e1cd;
      }

      .cls-122, .cls-123 {
        opacity: .9412;
      }

      .cls-124 {
        fill: #eabdd3;
      }

      .cls-125 {
        fill: #ecbfd2;
      }

      .cls-126 {
        fill: #f9dca0;
      }

      .cls-126, .cls-127 {
        opacity: .4118;
      }

      .cls-128 {
        fill: #bcc4e2;
      }

      .cls-129 {
        fill: #f5d8d2;
      }

      .cls-130 {
        fill: #f9dca5;
      }

      .cls-130, .cls-131 {
        opacity: .4706;
      }

      .cls-132 {
        fill: #f3cdcd;
      }

      .cls-133 {
        fill: #f3ccce;
      }

      .cls-134 {
        fill: #f1ced2;
      }

      .cls-135 {
        fill: #f2cbce;
      }

      .cls-136 {
        fill: #d2bfdb;
      }

      .cls-137 {
        fill: #ebbdd2;
      }

      .cls-138 {
        fill: #f9dda8;
      }

      .cls-138, .cls-139 {
        opacity: .5098;
      }

      .cls-140 {
        fill: #cdc0dc;
      }

      .cls-141 {
        fill: #d4beda;
      }

      .cls-142 {
        fill: #f3d4d2;
      }

      .cls-143 {
        fill: #efc9d3;
      }

      .cls-144 {
        fill: #bec3e1;
      }

      .cls-145 {
        fill: #efc4d0;
      }

      .cls-146 {
        fill: #b1c6e6;
      }

      .cls-147 {
        fill: #ecc0d3;
      }

      .cls-148 {
        fill: #f6dcd2;
      }

      .cls-149 {
        fill: #f9d989;
      }

      .cls-149, .cls-150 {
        opacity: .1373;
      }

      .cls-151 {
        fill: #f9d77d;
      }

      .cls-151, .cls-152 {
        opacity: 0;
      }

      .cls-153 {
        fill: #f9db99;
      }

      .cls-153, .cls-154 {
        opacity: .3333;
      }

      .cls-155 {
        fill: #f0c7cf;
      }

      .cls-156 {
        fill: #abc7e8;
      }

      .cls-157 {
        fill: #f9e1c8;
      }

      .cls-157, .cls-158 {
        opacity: .8824;
      }

      .cls-159 {
        fill: #d3bfda;
      }

      .cls-160 {
        fill: #f9dfbb;
      }

      .cls-160, .cls-161 {
        opacity: .7255;
      }

      .cls-162 {
        fill: #eec7d3;
      }

      .cls-163 {
        fill: #f7d3cb;
      }

      .cls-164 {
        fill: #f4cecd;
      }

      .cls-165 {
        fill: #d7bed9;
      }

      .cls-166 {
        fill: #ebbfd3;
      }

      .cls-167 {
        fill: #acc7e7;
      }

      .cls-168 {
        fill: #f9e1cb;
      }

      .cls-168, .cls-169 {
        opacity: .9216;
      }

      .cls-152, .cls-170, .cls-110, .cls-73, .cls-20, .cls-88, .cls-139, .cls-26, .cls-171, .cls-115, .cls-49, .cls-172, .cls-127, .cls-173, .cls-31, .cls-174, .cls-28, .cls-123, .cls-169, .cls-175, .cls-176, .cls-36, .cls-154, .cls-8, .cls-177, .cls-178, .cls-179, .cls-131, .cls-180, .cls-181, .cls-41, .cls-33, .cls-2, .cls-47, .cls-161, .cls-78, .cls-182, .cls-106, .cls-183, .cls-66, .cls-95, .cls-158, .cls-51, .cls-118, .cls-184, .cls-57, .cls-150, .cls-43, .cls-102, .cls-185, .cls-59, .cls-186 {
        fill: #f9d7ca;
      }

      .cls-187 {
        fill: #f9dca2;
      }

      .cls-187, .cls-175 {
        opacity: .4314;
      }

      .cls-188 {
        fill: #a8c8e9;
      }

      .cls-189 {
        fill: #f5d9d2;
      }

      .cls-190 {
        fill: #f0ccd3;
      }

      .cls-191 {
        fill: #f1c8cf;
      }

      .cls-192 {
        fill: #f9dfbe;
      }

      .cls-192, .cls-182 {
        opacity: .7647;
      }

      .cls-193 {
        fill: #f9deb2;
      }

      .cls-193, .cls-172 {
        opacity: .6275;
      }

      .cls-194 {
        fill: #a7c8e9;
      }

      .cls-195 {
        fill: #f9d98f;
      }

      .cls-195, .cls-180 {
        opacity: .2157;
      }

      .cls-196 {
        fill: #f8dfd2;
      }

      .cls-197 {
        fill: #e9bad3;
      }

      .cls-198 {
        fill: #eec6d3;
      }

      .cls-199 {
        fill: #f4d6d2;
      }

      .cls-200 {
        fill: #ddbcd7;
      }

      .cls-201 {
        fill: #d0bfdb;
      }

      .cls-202 {
        fill: #f7ded2;
      }

      .cls-203 {
        fill: #edc5d3;
      }

      .cls-204 {
        fill: #eabbd3;
      }

      .cls-205 {
        fill: #f9da91;
      }

      .cls-205, .cls-185 {
        opacity: .2353;
      }

      .cls-206 {
        fill: #f9db9b;
      }

      .cls-206, .cls-173 {
        opacity: .3529;
      }

      .cls-207 {
        fill: #afc6e6;
      }

      .cls-208 {
        fill: #edc1d1;
      }

      .cls-209 {
        fill: #f9e2d2;
      }

      .cls-210 {
        fill: #f7d4cb;
      }

      .cls-211 {
        fill: #eabcd3;
      }

      .cls-212 {
        fill: #f0c6cf;
      }

      .cls-213 {
        fill: #f9d887;
      }

      .cls-213, .cls-186 {
        opacity: .1176;
      }

      .cls-214 {
        fill: #f6d2cc;
      }

      .cls-215 {
        fill: #dbbdd8;
      }

      .cls-216 {
        fill: #f5d7d2;
      }

      .cls-217 {
        fill: #f9e2d0;
      }

      .cls-217, .cls-181 {
        opacity: .9804;
      }

      .cls-218 {
        fill: #f9deb4;
      }

      .cls-218, .cls-171 {
        opacity: .6471;
      }

      .cls-219 {
        fill: #f5cfcc;
      }

      .cls-220 {
        fill: #efc5d0;
      }

      .cls-221 {
        fill: #f9d882;
      }

      .cls-221, .cls-184 {
        opacity: .0588;
      }

      .cls-222 {
        fill: #f4cdcd;
      }

      .cls-223 {
        fill: #aac7e8;
      }

      .cls-224 {
        fill: #f9d98c;
      }

      .cls-224, .cls-178 {
        opacity: .1765;
      }

      .cls-225 {
        fill: #f6d9d2;
      }

      .cls-226 {
        fill: #dcbdd7;
      }

      .cls-227 {
        fill: #f0cbd3;
      }

      .cls-228 {
        fill: #e0bcd6;
      }

      .cls-174, .cls-229 {
        opacity: .3922;
      }

      .cls-176, .cls-230 {
        opacity: .2745;
      }

      .cls-177, .cls-231 {
        opacity: .3137;
      }

      .cls-179, .cls-232 {
        opacity: .1961;
      }

      .cls-183, .cls-233 {
        opacity: .7843;
      }

      .cls-234 {
        fill: #eec4d0;
      }

      .cls-232 {
        fill: #f9d98e;
      }

      .cls-235 {
        fill: #d8bed9;
      }

      .cls-236 {
        fill: #e4bbd5;
      }

      .cls-237 {
        fill: #f1c9ce;
      }

      .cls-233 {
        fill: #f9e0c0;
      }

      .cls-231 {
        fill: #f9da98;
      }

      .cls-230 {
        fill: #f9da94;
      }

      .cls-229 {
        fill: #f9db9e;
      }
    </style>
  </defs>
  <g class="cls-98">
    <g id="Layer_2">
      <g id="_图层_1" data-name="图层_1">
        <g>
          <ellipse class="cls-151" cx="225.2071" cy="172.4143" rx="130.4402" ry="251.797" transform="translate(-39.5852 274.0506) rotate(-58.4355)"/>
          <ellipse class="cls-56" cx="226.3995" cy="173.0708" rx="130.1843" ry="251.3033" transform="translate(-39.5764 275.3795) rotate(-58.4355)"/>
          <ellipse class="cls-117" cx="227.592" cy="173.7274" rx="129.9285" ry="250.8095" transform="translate(-39.5676 276.7085) rotate(-58.4355)"/>
          <ellipse class="cls-221" cx="228.7845" cy="174.384" rx="129.6727" ry="250.3158" transform="translate(-39.5588 278.0374) rotate(-58.4355)"/>
          <ellipse class="cls-58" cx="229.9769" cy="175.0406" rx="129.4169" ry="249.822" transform="translate(-39.5499 279.3663) rotate(-58.4355)"/>
          <ellipse class="cls-101" cx="231.1694" cy="175.6971" rx="129.161" ry="249.3283" transform="translate(-39.5411 280.6952) rotate(-58.4355)"/>
          <ellipse class="cls-213" cx="232.3619" cy="176.3537" rx="128.9052" ry="248.8345" transform="translate(-39.5323 282.0241) rotate(-58.4355)"/>
          <ellipse class="cls-149" cx="233.5543" cy="177.0103" rx="128.6494" ry="248.3408" transform="translate(-39.5235 283.3531) rotate(-58.4355)"/>
          <ellipse class="cls-42" cx="234.7468" cy="177.6669" rx="128.3936" ry="247.847" transform="translate(-39.5146 284.682) rotate(-58.4355)"/>
          <ellipse class="cls-224" cx="235.9393" cy="178.3234" rx="128.1377" ry="247.3533" transform="translate(-39.5058 286.0109) rotate(-58.4355)"/>
          <ellipse class="cls-232" cx="237.1317" cy="178.98" rx="127.8819" ry="246.8595" transform="translate(-39.497 287.3398) rotate(-58.4355)"/>
          <ellipse class="cls-195" cx="238.3242" cy="179.6366" rx="127.6261" ry="246.3658" transform="translate(-39.4882 288.6688) rotate(-58.4355)"/>
          <ellipse class="cls-205" cx="239.5167" cy="180.2932" rx="127.3702" ry="245.872" transform="translate(-39.4794 289.9977) rotate(-58.4355)"/>
          <ellipse class="cls-35" cx="240.7091" cy="180.9497" rx="127.1144" ry="245.3783" transform="translate(-39.4705 291.3266) rotate(-58.4355)"/>
          <ellipse class="cls-230" cx="241.9016" cy="181.6063" rx="126.8586" ry="244.8845" transform="translate(-39.4617 292.6555) rotate(-58.4355)"/>
          <ellipse class="cls-7" cx="243.0941" cy="182.2629" rx="126.6028" ry="244.3908" transform="translate(-39.4529 293.9845) rotate(-58.4355)"/>
          <ellipse class="cls-231" cx="244.2865" cy="182.9195" rx="126.3469" ry="243.897" transform="translate(-39.4441 295.3134) rotate(-58.4355)"/>
          <ellipse class="cls-153" cx="245.479" cy="183.576" rx="126.0911" ry="243.4033" transform="translate(-39.4352 296.6423) rotate(-58.4355)"/>
          <ellipse class="cls-206" cx="246.6715" cy="184.2326" rx="125.8353" ry="242.9096" transform="translate(-39.4264 297.9712) rotate(-58.4355)"/>
          <ellipse class="cls-30" cx="247.8639" cy="184.8892" rx="125.5795" ry="242.4158" transform="translate(-39.4176 299.3001) rotate(-58.4355)"/>
          <ellipse class="cls-229" cx="249.0564" cy="185.5458" rx="125.3236" ry="241.9221" transform="translate(-39.4088 300.6291) rotate(-58.4355)"/>
          <ellipse class="cls-126" cx="250.2489" cy="186.2023" rx="125.0678" ry="241.4283" transform="translate(-39.4 301.958) rotate(-58.4355)"/>
          <ellipse class="cls-187" cx="251.4413" cy="186.8589" rx="124.812" ry="240.9346" transform="translate(-39.3911 303.2869) rotate(-58.4355)"/>
          <ellipse class="cls-27" cx="252.6338" cy="187.5155" rx="124.5561" ry="240.4408" transform="translate(-39.3823 304.6158) rotate(-58.4355)"/>
          <ellipse class="cls-130" cx="253.8263" cy="188.1721" rx="124.3003" ry="239.9471" transform="translate(-39.3735 305.9448) rotate(-58.4355)"/>
          <ellipse class="cls-87" cx="255.0187" cy="188.8286" rx="124.0445" ry="239.4533" transform="translate(-39.3647 307.2737) rotate(-58.4355)"/>
          <ellipse class="cls-138" cx="256.2112" cy="189.4852" rx="123.7887" ry="238.9596" transform="translate(-39.3558 308.6026) rotate(-58.4355)"/>
          <ellipse class="cls-109" cx="257.4037" cy="190.1418" rx="123.5328" ry="238.4658" transform="translate(-39.347 309.9315) rotate(-58.4355)"/>
          <ellipse class="cls-19" cx="258.5961" cy="190.7984" rx="123.277" ry="237.9721" transform="translate(-39.3382 311.2604) rotate(-58.4355)"/>
          <ellipse class="cls-72" cx="259.7886" cy="191.4549" rx="123.0212" ry="237.4783" transform="translate(-39.3294 312.5894) rotate(-58.4355)"/>
          <ellipse class="cls-48" cx="260.9811" cy="192.1115" rx="122.7654" ry="236.9846" transform="translate(-39.3206 313.9183) rotate(-58.4355)"/>
          <ellipse class="cls-114" cx="262.1735" cy="192.7681" rx="122.5095" ry="236.4908" transform="translate(-39.3117 315.2472) rotate(-58.4355)"/>
          <ellipse class="cls-193" cx="263.366" cy="193.4247" rx="122.2537" ry="235.9971" transform="translate(-39.3029 316.5761) rotate(-58.4355)"/>
          <ellipse class="cls-218" cx="264.5585" cy="194.0812" rx="121.9979" ry="235.5033" transform="translate(-39.2941 317.905) rotate(-58.4355)"/>
          <ellipse class="cls-25" cx="265.7509" cy="194.7378" rx="121.742" ry="235.0096" transform="translate(-39.2853 319.234) rotate(-58.4355)"/>
          <ellipse class="cls-32" cx="266.9434" cy="195.3944" rx="121.4862" ry="234.5158" transform="translate(-39.2764 320.5629) rotate(-58.4355)"/>
          <ellipse class="cls-77" cx="268.1359" cy="196.051" rx="121.2304" ry="234.0221" transform="translate(-39.2676 321.8918) rotate(-58.4355)"/>
          <ellipse class="cls-160" cx="269.3283" cy="196.7075" rx="120.9746" ry="233.5283" transform="translate(-39.2588 323.2207) rotate(-58.4355)"/>
          <ellipse class="cls-105" cx="270.5208" cy="197.3641" rx="120.7187" ry="233.0346" transform="translate(-39.25 324.5496) rotate(-58.4355)"/>
          <ellipse class="cls-192" cx="271.7133" cy="198.0207" rx="120.4629" ry="232.5408" transform="translate(-39.2412 325.8786) rotate(-58.4355)"/>
          <path class="cls-233" d="M470.6232,320.1453c-34.7527,56.5681-151.4448,48.0394-260.6417-19.046C100.7874,234.0157,40.4372,133.7781,75.1899,77.21c34.7514-56.566,151.4445-48.0392,260.6385,19.0444s169.5462,167.325,134.7948,223.8909Z"/>
          <path class="cls-46" d="M471.395,320.5435c-34.6788,56.4478-151.1225,47.9371-260.0871-19.0055C102.3461,234.5971,42.1242,134.5728,76.803,78.1251c34.6774-56.4455,151.1222-47.937,260.0839,19.0039,108.9646,66.9427,169.1855,166.969,134.508,223.4145Z"/>
          <path class="cls-1" d="M472.1668,320.9416c-34.6049,56.3275-150.8002,47.8349-259.5326-18.9651C103.9049,235.1784,43.8113,135.3676,78.4162,79.0401c34.6034-56.3251,150.8-47.8347,259.5293,18.9634,108.7324,66.7999,168.8247,166.613,134.2213,222.9381Z"/>
          <path class="cls-94" d="M472.9386,321.3397c-34.531,56.2072-150.4779,47.7326-258.978-18.9246C105.4636,235.7598,45.4984,136.1623,80.0294,79.9551c34.5294-56.2047,150.4777-47.7325,258.9747,18.9229,108.5001,66.6572,168.464,166.2571,133.9346,222.4617Z"/>
          <path class="cls-50" d="M473.7104,321.7379c-34.4571,56.0869-150.1557,47.6303-258.4234-18.8842C107.0223,236.3411,47.1854,136.957,81.6425,80.8702c34.4555-56.0842,150.1554-47.6302,258.42,18.8824,108.2678,66.5145,168.1033,165.9011,133.6478,221.9853Z"/>
          <path class="cls-157" d="M474.4822,322.136c-34.3832,55.9666-149.8334,47.5281-257.8689-18.8437C108.5811,236.9224,48.8725,137.7518,83.2557,81.7852c34.3815-55.9638,149.8332-47.528,257.8654,18.8419,108.0355,66.3718,167.7425,165.5452,133.3611,221.5089Z"/>
          <path class="cls-65" d="M475.254,322.5342c-34.3093,55.8463-149.5111,47.4258-257.3143-18.8033C110.1398,237.5038,50.5596,138.5465,84.8688,82.7002c34.3075-55.8433,149.5109-47.4257,257.3108,18.8014,107.8032,66.2291,167.3818,165.1892,133.0743,221.0325Z"/>
          <path class="cls-168" d="M476.0258,322.9323c-34.2354,55.726-149.1888,47.3236-256.7597-18.7628C111.6985,238.0851,52.2466,139.3412,86.482,83.6153c34.2335-55.7229,149.1887-47.3235,256.7562,18.7609,107.5709,66.0864,167.021,164.8333,132.7876,220.5561Z"/>
          <path class="cls-122" d="M476.7976,323.3304c-34.1615,55.6057-148.8665,47.2213-256.2051-18.7224C113.2573,238.6665,53.9337,140.136,88.0952,84.5303c34.1595-55.6024,148.8664-47.2212,256.2016,18.7204,107.3386,65.9437,166.6603,164.4773,132.5008,220.0798Z"/>
          <path class="cls-40" d="M477.5693,323.7286c-34.0875,55.4854-148.5442,47.119-255.6506-18.682C114.816,239.2478,55.6208,140.9307,89.7083,85.4453c34.0855-55.482,148.5441-47.1189,255.6469,18.6799,107.1063,65.801,166.2995,164.1214,132.2141,219.6034Z"/>
          <path class="cls-217" d="M478.3411,324.1267c-34.0136,55.3651-148.222,47.0168-255.096-18.6415S57.3079,141.7254,91.3215,86.3604c34.0115-55.3615,148.2219-47.0167,255.0923,18.6394,106.874,65.6583,165.9388,163.7654,131.9273,219.127Z"/>
          <path class="cls-209" d="M479.1129,324.5249c-33.9397,55.2448-147.8997,46.9145-254.5414-18.6011C117.9335,240.4105,58.9949,142.5202,92.9347,87.2754c33.9375-55.2411,147.8996-46.9144,254.5377,18.5989,106.6417,65.5156,165.5781,163.4095,131.6406,218.6506Z"/>
          <path class="cls-60" d="M479.1102,324.5293c-33.6948,54.8461-146.8327,46.576-252.705-18.4669C120.5364,241.0217,62.0232,143.8376,95.718,88.9915c33.6927-54.8426,146.8326-46.5761,252.7014,18.4646,105.8723,65.0429,164.3835,162.2306,130.6908,217.0732Z"/>
          <path class="cls-23" d="M479.1074,324.5338c-33.4499,54.4475-145.7656,46.2374-250.8685-18.3327C123.1394,241.6329,65.0514,145.1551,98.5013,90.7076c33.4478-54.4441,145.7656-46.2377,250.8651,18.3304,105.1029,64.5702,163.1888,161.0517,129.741,215.4958Z"/>
          <path class="cls-23" d="M479.1047,324.5382c-33.205,54.0489-144.6986,45.8989-249.0321-18.1986C125.7423,242.2441,68.0796,146.4725,101.2846,92.4237c33.203-54.0456,144.6986-45.8993,249.0288,18.1962,104.3335,64.0975,161.9942,159.8728,128.7912,213.9184Z"/>
          <path class="cls-196" d="M479.102,324.5427c-32.9601,53.6502-143.6316,45.5604-247.1957-18.0644-103.561-63.6229-160.7985-158.6883-127.8383-212.3385,32.9582-53.6471,143.6316-45.561,247.1926,18.0619,103.5641,63.6248,160.7996,158.6939,127.8414,212.341Z"/>
          <path class="cls-202" d="M479.0992,324.5472c-32.7152,53.2516-142.5646,45.2218-245.3592-17.9303-102.7917-63.1503-159.6039-157.5094-126.8887-210.761,32.7134-53.2486,142.5645-45.2226,245.3563,17.9277,102.7947,63.1521,159.605,157.5151,126.8917,210.7636Z"/>
          <path class="cls-67" d="M479.0965,324.5516c-32.4703,52.8529-141.4975,44.8833-243.5228-17.7961-102.0225-62.6777-158.4094-156.3306-125.9391-209.1836,32.4685-52.85,141.4975-44.8843,243.52,17.7935,102.0253,62.6794,158.4104,156.3362,125.9419,209.1862Z"/>
          <path class="cls-67" d="M479.0937,324.5561c-32.2254,52.4543-140.4305,44.5448-241.6863-17.662-101.2532-62.2051-157.2149-155.1518-124.9894-207.6061,32.2237-52.4515,140.4305-44.5459,241.6837,17.6592,101.2558,62.2067,157.2158,155.1573,124.9921,207.6088Z"/>
          <path class="cls-148" d="M479.091,324.5606c-31.9805,52.0557-139.3635,44.2062-239.8499-17.5278-100.4839-61.7325-156.0203-153.9729-124.0398-206.0286,31.9789-52.053,139.3635-44.2075,239.8474,17.525,100.4864,61.734,156.0212,153.9784,124.0423,206.0314Z"/>
          <path class="cls-45" d="M479.0883,324.565c-31.7356,51.657-138.2965,43.8677-238.0135-17.3937-99.7147-61.2599-154.8258-152.7941-123.0902-204.4511,31.7341-51.6545,138.2965-43.8692,238.0111,17.3907,99.717,61.2614,154.8266,152.7995,123.0925,204.454Z"/>
          <path class="cls-91" d="M479.0855,324.5695c-31.4907,51.2584-137.2294,43.5292-236.177-17.2595-98.9454-60.7873-153.6313-151.6152-122.1406-202.8737,31.4892-51.256,137.2295-43.5308,236.1748,17.2565,98.9476,60.7887,153.632,151.6206,122.1427,202.8767Z"/>
          <path class="cls-225" d="M479.0828,324.574c-31.2458,50.8598-136.1624,43.1906-234.3406-17.1254-98.1761-60.3147-152.4367-150.4364-121.1909-201.2962s136.1624-43.1924,234.3386,17.1223c98.1782,60.316,152.4374,150.4418,121.193,201.2993Z"/>
          <path class="cls-189" d="M479.08,324.5784c-31.0009,50.4611-135.0954,42.8521-232.5042-16.9912-97.4069-59.8421-151.2422-149.2576-120.2413-199.7187,30.9996-50.459,135.0954-42.8541,232.5023,16.988,97.4088,59.8433,151.2428,149.2629,120.2432,199.7219Z"/>
          <path class="cls-129" d="M479.0773,324.5829c-30.756,50.0625-134.0284,42.5135-230.6677-16.857-96.6376-59.3695-150.0477-148.0787-119.2917-198.1412,30.7548-50.0605,134.0284-42.5157,230.666,16.8538,96.6394,59.3706,150.0482,148.084,119.2934,198.1445Z"/>
          <path class="cls-216" d="M479.0745,324.5873c-30.5111,49.6639-132.9613,42.175-228.8313-16.7229-95.8683-58.8969-148.8531-146.8999-118.342-196.5638,30.5099-49.662,132.9614-42.1773,228.8297,16.7196,95.8699,58.8979,148.8536,146.9051,118.3436,196.5671Z"/>
          <path class="cls-199" d="M479.0718,324.5918c-30.2662,49.2652-131.8943,41.8365-226.9948-16.5887-95.099-58.4243-147.6586-145.7211-117.3924-194.9863,30.2651-49.2635,131.8944-41.839,226.9934,16.5853,95.1005,58.4252,147.659,145.7262,117.3938,194.9897Z"/>
          <path class="cls-18" d="M479.0691,324.5963c-30.0213,48.8666-130.8273,41.4979-225.1584-16.4546-94.3298-57.9517-146.4641-144.5422-116.4428-193.4088,30.0203-48.865,130.8274-41.5006,225.1571,16.4511s146.4643,144.5473,116.444,193.4123Z"/>
          <path class="cls-18" d="M479.0663,324.6007c-29.7764,48.468-129.7603,41.1594-223.322-16.3204-93.5605-57.4791-145.2695-143.3634-115.4931-191.8313,29.7755-48.4665,129.7603-41.1623,223.3208,16.3168,93.5617,57.4798,145.2697,143.3685,115.4943,191.8349Z"/>
          <path class="cls-142" d="M479.0636,324.6052c-29.5315,48.0693-128.6932,40.8209-221.4855-16.1863-92.7912-57.0065-144.075-142.1845-114.5435-190.2539,29.5307-48.068,128.6933-40.8239,221.4846,16.1826,92.7923,57.0071,144.0751,142.1896,114.5445,190.2575Z"/>
          <path class="cls-14" d="M479.0608,324.6097c-29.2866,47.6707-127.6262,40.4823-219.6491-16.0521-92.022-56.5339-142.8805-141.0057-113.5939-188.6764,29.2858-47.6694,127.6263-40.4855,219.6483,16.0484,92.0229,56.5345,142.8805,141.0107,113.5947,188.6802Z"/>
          <path class="cls-61" d="M479.0581,324.6141c-29.0417,47.2721-126.5592,40.1438-217.8127-15.918-91.2527-56.0613-141.6859-139.8269-112.6442-187.0989,29.041-47.2709,126.5593-40.1472,217.812,15.9141,91.2535,56.0618,141.6859,139.8318,112.6449,187.1028Z"/>
          <path class="cls-75" d="M479.0553,324.6186c-28.7968,46.8734-125.4922,39.8053-215.9762-15.7838-90.4834-55.5887-140.4914-138.648-111.6946-185.5215,28.7962-46.8724,125.4923-39.8088,215.9757,15.7799,90.4841,55.5891,140.4913,138.6529,111.6951,185.5254Z"/>
          <path class="cls-99" d="M479.0526,324.6231c-28.5519,46.4748-124.4251,39.4667-214.1398-15.6497-89.7142-55.1161-139.2969-137.4692-110.745-183.944,28.5514-46.4739,124.4252-39.4704,214.1394,15.6457,89.7146,55.1164,139.2967,137.4741,110.7453,183.948Z"/>
          <path class="cls-96" d="M479.0499,324.6275c-28.307,46.0762-123.3581,39.1282-212.3033-15.5155-88.9449-54.6435-138.1023-136.2903-109.7954-182.3665,28.3065-46.0754,123.3582-39.1321,212.3031,15.5114,88.9452,54.6437,138.1021,136.2952,109.7956,182.3706Z"/>
          <path class="cls-55" d="M479.0471,324.632c-28.0621,45.6775-122.2911,38.7896-210.4669-15.3813-88.1756-54.1709-136.9078-135.1115-108.8457-180.789,28.0617-45.6769,122.2912-38.7937,210.4668,15.3772,88.1758,54.171,136.9075,135.1163,108.8458,180.7932Z"/>
          <path class="cls-134" d="M479.0444,324.6365c-27.8172,45.2789-121.2241,38.4511-208.6305-15.2472-87.4064-53.6983-135.7133-133.9327-107.8961-179.2116,27.8169-45.2784,121.2242-38.4553,208.6306,15.2429,87.4064,53.6983,135.7129,133.9374,107.896,179.2158Z"/>
          <path class="cls-38" d="M479.0416,324.6409c-27.5723,44.8803-120.157,38.1126-206.794-15.113-86.6371-53.2257-134.5187-132.7538-106.9465-177.6341,27.5721-44.8799,120.1572-38.117,206.7943,15.1087,86.637,53.2256,134.5183,132.7585,106.9462,177.6384Z"/>
          <path class="cls-103" d="M479.0389,324.6454c-27.3274,44.4816-119.09,37.774-204.9576-14.9789-85.8678-52.7531-133.3242-131.575-105.9968-176.0566,27.3272-44.4814,119.0902-37.7786,204.958,14.9745,85.8676,52.7529,133.3237,131.5796,105.9964,176.061Z"/>
          <path class="cls-190" d="M479.0361,324.6498c-27.0825,44.083-118.023,37.4355-203.1211-14.8447s-132.1297-130.3962-105.0472-174.4791c27.0824-44.0829,118.0231-37.4403,203.1217,14.8402,85.0982,52.2802,132.1291,130.4008,105.0466,174.4836Z"/>
          <path class="cls-227" d="M479.0334,324.6543c-26.8376,43.6844-116.956,37.097-201.2847-14.7106-84.3293-51.8079-130.9351-129.2173-104.0976-172.9017,26.8376-43.6844,116.9561-37.1019,201.2854,14.706,84.3287,51.8075,130.9344,129.2219,104.0969,172.9063Z"/>
          <path class="cls-108" d="M479.0307,324.6588c-26.5927,43.2857-115.8889,36.7584-199.4483-14.5764-83.56-51.3353-129.7406-128.0385-103.1479-171.3242,26.5928-43.2859,115.8891-36.7635,199.4491,14.5718,83.5593,51.3349,129.7398,128.043,103.1471,171.3289Z"/>
          <path class="cls-15" d="M479.0279,324.6632c-26.3478,42.8871-114.8219,36.4199-197.6118-14.4423-82.7908-50.8627-128.5461-126.8596-102.1983-169.7467,26.3479-42.8874,114.8221-36.4252,197.6128,14.4375s128.5452,126.8641,102.1973,169.7515Z"/>
          <path class="cls-143" d="M479.0252,324.6677c-26.1029,42.4885-113.7549,36.0814-195.7754-14.3081-82.0215-50.3901-127.3515-125.6808-101.2487-168.1693s113.7551-36.0868,195.7766,14.3033c82.0205,50.3895,127.3506,125.6852,101.2475,168.1741Z"/>
          <path class="cls-121" d="M479.0224,324.6722c-25.858,42.0898-112.6879,35.7428-193.939-14.174-81.2522-49.9175-126.157-124.502-100.299-166.5918,25.8583-42.0903,112.6881-35.7484,193.9403,14.169,81.2511,49.9168,126.156,124.5064,100.2977,166.5967Z"/>
          <path class="cls-162" d="M479.0197,324.6766c-25.6131,41.6912-111.6208,35.4043-192.1025-14.0398-80.483-49.4449-124.9625-123.3231-99.3494-165.0143,25.6135-41.6918,111.621-35.4101,192.104,14.0348,80.4817,49.4441,124.9614,123.3275,99.3479,165.0193Z"/>
          <path class="cls-162" d="M479.0169,324.6811c-25.3682,41.2925-110.5538,35.0657-190.2661-13.9057-79.7137-48.9723-123.7679-122.1443-98.3998-163.4368,25.3686-41.2933,110.554-35.0717,190.2677,13.9006,79.7123,48.9714,123.7668,122.1486,98.3982,163.4419Z"/>
          <path class="cls-198" d="M479.0142,324.6856c-25.1233,40.8939-109.4868,34.7272-188.4296-13.7715-78.9444-48.4997-122.5734-120.9654-97.4502-161.8594,25.1238-40.8948,109.487-34.7333,188.4314,13.7663,78.9429,48.4987,122.5722,120.9697,97.4484,161.8645Z"/>
          <path class="cls-203" d="M479.0115,324.69c-24.8784,40.4953-108.4198,34.3887-186.5932-13.6373-78.1751-48.0271-121.3789-119.7866-96.5005-160.2819,24.879-40.4963,108.42-34.395,186.5951,13.6321s121.3776,119.7908,96.4986,160.2871Z"/>
          <path class="cls-74" d="M479.0087,324.6945c-24.6335,40.0966-107.3527,34.0501-184.7568-13.5032-77.4059-47.5545-120.1843-118.6078-95.5509-158.7044,24.6342-40.0978,107.353-34.0566,184.7588,13.4979,77.404,47.5533,120.183,118.6119,95.5488,158.7098Z"/>
          <path class="cls-53" d="M479.006,324.699c-24.3886,39.698-106.2857,33.7116-182.9203-13.369-76.6366-47.0819-118.9898-117.4289-94.6013-157.1269,24.3893-39.6993,106.286-33.7182,182.9226,13.3636,76.6346,47.0806,118.9884,117.4331,94.599,157.1324Z"/>
          <path class="cls-97" d="M479.0032,324.7034c-24.1437,39.2994-105.2187,33.3731-181.0839-13.2349-75.8673-46.6093-117.7953-116.2501-93.6516-155.5495,24.1445-39.3008,105.2189-33.3799,181.0863,13.2294,75.8652,46.6079,117.7938,116.2542,93.6492,155.555Z"/>
          <path class="cls-11" d="M479.0005,324.7079c-23.8988,38.9007-104.1517,33.0345-179.2475-13.1007-75.0981-46.1367-116.6008-115.0713-92.702-153.972,23.8997-38.9023,104.1519-33.0415,179.25,13.0951,75.0958,46.1353,116.5992,115.0753,92.6995,153.9776Z"/>
          <path class="cls-5" d="M478.9977,324.7123c-23.6539,38.5021-103.0846,32.696-177.411-12.9666-74.3288-45.6641-115.4062-113.8924-91.7524-152.3945,23.6549-38.5038,103.0849-32.7032,177.4137,12.9609,74.3264,45.6626,115.4046,113.8964,91.7497,152.4002Z"/>
          <path class="cls-147" d="M478.995,324.7168c-23.4089,38.1035-102.0176,32.3575-175.5746-12.8324-73.5595-45.1915-114.2117-112.7136-90.8027-150.817,23.4101-38.1053,102.0179-32.3648,175.5774,12.8267,73.557,45.1899,114.2099,112.7175,90.7999,150.8228Z"/>
          <path class="cls-166" d="M478.9923,324.7213c-23.164,37.7048-100.9506,32.0189-173.7381-12.6983-72.7903-44.7189-113.0172-111.5347-89.8531-149.2396,23.1652-37.7068,100.9509-32.0264,173.7411,12.6924,72.7875,44.7172,113.0153,111.5387,89.8501,149.2454Z"/>
          <path class="cls-166" d="M478.9895,324.7257c-22.9191,37.3062-99.8836,31.6804-171.9017-12.5641-72.021-44.2463-111.8226-110.3559-88.9035-147.6621,22.9204-37.3083,99.8838-31.6881,171.9048,12.5582,72.0181,44.2445,111.8207,110.3598,88.9003,147.668Z"/>
          <path class="cls-113" d="M478.9868,324.7302c-22.6742,36.9076-98.8165,31.3418-170.0653-12.43-71.2517-43.7737-110.6281-109.1771-87.9538-146.0846,22.6756-36.9097,98.8168-31.3497,170.0686,12.4239,71.2487,43.7718,110.6261,109.1809,87.9505,146.0906Z"/>
          <path class="cls-124" d="M478.984,324.7347c-22.4293,36.5089-97.7495,31.0033-168.2288-12.2958-70.4825-43.3011-109.4336-107.9982-87.0042-144.5072,22.4308-36.5112,97.7498-31.0113,168.2323,12.2897,70.4793,43.2991,109.4315,108.002,87.0008,144.5132Z"/>
          <path class="cls-211" d="M478.9813,324.7391c-22.1844,36.1103-96.6825,30.6648-166.3924-12.1616-69.7132-42.8284-108.239-106.8194-86.0546-142.9297,22.1859-36.1127,96.6828-30.673,166.396,12.1555,69.7099,42.8264,108.2369,106.8231,86.051,142.9359Z"/>
          <path class="cls-211" d="M478.9786,324.7436c-21.9395,35.7117-95.6155,30.3262-164.5559-12.0275-68.9439-42.3558-107.0445-105.6405-85.105-141.3522,21.9411-35.7142,95.6158-30.3346,164.5597,12.0212,68.9405,42.3537,107.0423,105.6442,85.1012,141.3585Z"/>
          <path class="cls-71" d="M478.9758,324.7481c-21.6946,35.313-94.5484,29.9877-162.7195-11.8933-68.1747-41.8832-105.85-104.4617-84.1553-139.7747,21.6963-35.3157,94.5488-29.9962,162.7234,11.887,68.1711,41.881,105.8477,104.4654,84.1514,139.7811Z"/>
          <path class="cls-197" d="M478.9731,324.7525c-21.4497,34.9144-93.4814,29.6492-160.8831-11.7592-67.4054-41.4106-104.6554-103.2829-83.2057-138.1973,21.4515-34.9172,93.4817-29.6579,160.8871,11.7528,67.4017,41.4083,104.6531,103.2865,83.2016,138.2037Z"/>
          <path class="cls-62" d="M478.7168,324.7985c-21.2873,34.65-92.7735,29.4247-159.6648-11.6701-66.895-41.0971-103.863-102.5008-82.5757-137.1508,21.2891-34.6529,92.774-29.4333,159.6689,11.6638,66.8913,41.0948,103.8607,102.5043,82.5716,137.1572Z"/>
          <path class="cls-63" d="M478.4604,324.8445c-21.1249,34.3857-92.0656,29.2002-158.4466-11.5811-66.3845-40.7835-103.0706-101.7187-81.9457-136.1044,21.1267-34.3885,92.0662-29.2086,158.4507,11.5749,66.381,40.7813,103.0682,101.7222,81.9416,136.1107Z"/>
          <path class="cls-64" d="M478.2041,324.8905c-20.9625,34.1213-91.3577,28.9757-157.2283-11.4921-65.8741-40.4699-102.2782-100.9367-81.3157-135.058,20.9642-34.1242,91.3584-28.984,157.2325,11.4859,65.8706,40.4677,102.2758,100.94,81.3115,135.0641Z"/>
          <path class="cls-236" d="M477.9478,324.9365c-20.8001,33.8569-90.6498,28.7512-156.0101-11.403-65.3637-40.1563-101.4858-100.1546-80.6858-134.0115s90.6506-28.7594,156.0143,11.3969c65.3602,40.1542,101.4834,100.1578,80.6815,134.0176Z"/>
          <path class="cls-34" d="M477.6915,324.9824c-20.6377,33.5926-89.9419,28.5267-154.7918-11.314-64.8533-39.8427-100.6934-99.3726-80.0558-132.9651,20.6394-33.5954,89.9428-28.5347,154.7961,11.308,64.8499,39.8407,100.6909,99.3757,80.0515,132.9711Z"/>
          <path class="cls-70" d="M477.4352,325.0284c-20.4752,33.3282-89.234,28.3022-153.5736-11.225-64.3428-39.5292-99.901-98.5905-79.4258-131.9187,20.477-33.3311,89.235-28.3101,153.5779,11.219,64.3395,39.5271,99.8985,98.5935,79.4215,131.9246Z"/>
          <path class="cls-228" d="M477.1789,325.0744c-20.3128,33.0638-88.5261,28.0777-152.3553-11.1359-63.8324-39.2156-99.1086-97.8084-78.7958-130.8723,20.3146-33.0667,88.5273-28.0855,152.3597,11.1301,63.8292,39.2136,99.1061,97.8113,78.7914,130.8781Z"/>
          <path class="cls-111" d="M476.9226,325.1204c-20.1504,32.7994-87.8182,27.8532-151.137-11.0469-63.322-38.902-98.3162-97.0264-78.1658-129.8258s87.8195-27.8609,151.1415,11.0411c63.3188,38.9001,98.3136,97.0292,78.1614,129.8316Z"/>
          <path class="cls-200" d="M476.6662,325.1664c-19.988,32.5351-87.1103,27.6287-149.9188-10.9578-62.8116-38.5884-97.5238-96.2443-77.5359-128.7794s87.1117-27.6362,149.9233,10.9522c62.8085,38.5865,97.5212,96.247,77.5314,128.7851Z"/>
          <path class="cls-226" d="M476.4099,325.2123c-19.8256,32.2707-86.4024,27.4042-148.7005-10.8688-62.3011-38.2748-96.7314-95.4623-76.9059-127.733,19.8274-32.2737,86.4039-27.4116,148.705,10.8632,62.2981,38.273,96.7288,95.4649,76.9014,127.7385Z"/>
          <path class="cls-215" d="M476.1536,325.2583c-19.6632,32.0063-85.6945,27.1797-147.4823-10.7798-61.7907-37.9613-95.9391-94.6802-76.2759-126.6865,19.665-32.0093,85.6961-27.187,147.4868,10.7743,61.7878,37.9595,95.9363,94.6827,76.2713,126.692Z"/>
          <path class="cls-93" d="M475.8973,325.3043c-19.5007,31.742-84.9866,26.9552-146.264-10.6907-61.2803-37.6477-95.1467-93.8981-75.6459-125.6401,19.5026-31.745,84.9883-26.9624,146.2686,10.6853,61.2774,37.6459,95.1439,93.9005,75.6413,125.6455Z"/>
          <path class="cls-235" d="M475.641,325.3503c-19.3383,31.4776-84.2787,26.7307-145.0458-10.6017-60.7699-37.3341-94.3543-93.1161-75.0159-124.5937,19.3402-31.4806,84.2806-26.7377,145.0504,10.5964,60.7671,37.3324,94.3515,93.1184,75.0113,124.599Z"/>
          <path class="cls-165" d="M475.3847,325.3963c-19.1759,31.2132-83.5708,26.5062-143.8275-10.5127-60.2594-37.0205-93.5619-92.334-74.3859-123.5473,19.1778-31.2163,83.5728-26.5131,143.8322,10.5074,60.2567,37.0188,93.559,92.3362,74.3813,123.5525Z"/>
          <path class="cls-37" d="M475.1284,325.4423c-19.0135,30.9489-82.8629,26.2817-142.6093-10.4236-59.749-36.7069-92.7695-91.552-73.756-122.5008,19.0154-30.9519,82.865-26.2885,142.614,10.4185,59.7464,36.7053,92.7666,91.5541,73.7512,122.506Z"/>
          <path class="cls-141" d="M474.8721,325.4882c-18.8511,30.6845-82.155,26.0572-141.391-10.3346-59.2386-36.3934-91.9771-90.7699-73.126-121.4544,18.853-30.6876,82.1572-26.0638,141.3958,10.3295s91.9742,90.7719,73.1212,121.4595Z"/>
          <path class="cls-159" d="M474.6157,325.5342c-18.6887,30.4201-81.4471,25.8327-140.1728-10.2455s-91.1847-89.9879-72.496-120.408c18.6906-30.4232,81.4494-25.8392,140.1776,10.2406,58.7257,36.0782,91.1817,89.9897,72.4912,120.4129Z"/>
          <path class="cls-136" d="M474.3594,325.5802c-18.5262,30.1557-80.7392,25.6082-138.9545-10.1565-58.2177-35.7662-90.3923-89.2058-71.866-119.3615,18.5282-30.1589,80.7416-25.6146,138.9594,10.1516s90.3893,89.2076,71.8612,119.3664Z"/>
          <path class="cls-201" d="M474.1031,325.6262c-18.3638,29.8914-80.0313,25.3837-137.7363-10.0675-57.7073-35.4526-89.5999-88.4237-71.236-118.3151s80.0339-25.39,137.7412,10.0627c57.705,35.4512,89.5969,88.4254,71.2311,118.3199Z"/>
          <path class="cls-85" d="M473.8468,325.6722c-18.2014,29.627-79.3234,25.1592-136.518-9.9784-57.1969-35.139-88.8075-87.6417-70.6061-117.2687,18.2033-29.6302,79.3261-25.1653,136.523,9.9737s88.8045,87.6433,70.6011,117.2734Z"/>
          <path class="cls-90" d="M473.5905,325.7182c-18.039,29.3626-78.6155,24.9347-135.2997-9.8894-56.6865-34.8254-88.0151-86.8596-69.9761-116.2222,18.0409-29.3658,78.6183-24.9407,135.3047,9.8847,56.6843,34.8241,88.012,86.8611,69.9711,116.2269Z"/>
          <path class="cls-140" d="M473.3342,325.7641c-17.8766,29.0983-77.9076,24.7102-134.0815-9.8004-56.176-34.5119-87.2227-86.0776-69.3461-115.1758,17.8785-29.1014,77.9105-24.7161,134.0865,9.7958,56.1739,34.5106,87.2196,86.0789,69.3411,115.1804Z"/>
          <path class="cls-4" d="M473.0779,325.8101c-17.7142,28.8339-77.1997,24.4857-132.8632-9.7113-55.6656-34.1983-86.4303-85.2955-68.7161-114.1294,17.7161-28.8371,77.2027-24.4914,132.8683,9.7068,55.6636,34.197,86.4272,85.2968,68.711,114.1339Z"/>
          <path class="cls-68" d="M472.8216,325.8561c-17.5517,28.5695-76.4918,24.2612-131.645-9.6223-55.1552-33.8847-85.6379-84.5134-68.0861-113.083,17.5537-28.5727,76.4949-24.2668,131.6501,9.6179,55.1532,33.8835,85.6347,84.5146,68.081,113.0873Z"/>
          <path class="cls-83" d="M472.5652,325.9021c-17.3893,28.3052-75.7839,24.0367-130.4267-9.5332-54.6448-33.5711-84.8455-83.7314-67.4562-112.0365,17.3913-28.3084,75.7871-24.0422,130.4319,9.5289,54.6429,33.57,84.8423,83.7324,67.451,112.0408Z"/>
          <path class="cls-84" d="M472.3089,325.9481c-17.2269,28.0408-75.076,23.8122-129.2085-9.4442-54.1343-33.2575-84.0531-82.9493-66.8262-110.9901s75.0794-23.8176,129.2137,9.44c54.1325,33.2564,84.0499,82.9503,66.8209,110.9943Z"/>
          <path class="cls-89" d="M472.0526,325.9941c-17.0645,27.7764-74.3681,23.5877-127.9902-9.3552-53.6239-32.944-83.2607-82.1673-66.1962-109.9437,17.0665-27.7797,74.3716-23.5929,127.9955,9.351,53.6222,32.9429,83.2574,82.1681,66.1909,109.9478Z"/>
          <path class="cls-21" d="M471.7963,326.04c-16.9021,27.512-73.6602,23.3632-126.772-9.2661-53.1135-32.6304-82.4683-81.3852-65.5662-108.8972s73.6638-23.3683,126.7773,9.2621,82.465,81.386,65.5609,108.9013Z"/>
          <path class="cls-12" d="M471.54,326.086c-16.7397,27.2477-72.9523,23.1387-125.5537-9.1771-52.6031-32.3168-81.6759-80.6031-64.9362-107.8508,16.7417-27.251,72.956-23.1437,125.5591,9.1731,52.6015,32.3158,81.6726,80.6038,64.9309,107.8548Z"/>
          <path class="cls-54" d="M471.2837,326.132c-16.5773,26.9833-72.2444,22.9142-124.3355-9.088-52.0926-32.0032-80.8835-79.8211-64.3062-106.8044,16.5793-26.9866,72.2482-22.9191,124.3409,9.0842,52.0911,32.0023,80.8801,79.8216,64.3008,106.8083Z"/>
          <path class="cls-112" d="M471.0274,326.178c-16.4148,26.7189-71.5365,22.6897-123.1172-8.999-51.5822-31.6896-80.0911-79.039-63.6763-105.758s71.5404-22.6944,123.1227,8.9952c51.5807,31.6887,80.0877,79.0395,63.6708,105.7618Z"/>
          <path class="cls-3" d="M470.7711,326.224c-16.2524,26.4546-70.8286,22.4652-121.899-8.91-51.0718-31.3761-79.2987-78.257-63.0463-104.7115,16.2545-26.4579,70.8327-22.4698,121.9044,8.9063,51.0704,31.3752,79.2953,78.2573,63.0408,104.7152Z"/>
          <path class="cls-144" d="M470.5147,326.27c-16.09,26.1902-70.1207,22.2407-120.6807-8.8209-50.5614-31.0625-78.5063-77.4749-62.4163-103.6651s70.1249-22.2452,120.6862,8.8173c50.56,31.0617,78.5028,77.4752,62.4108,103.6687Z"/>
          <path class="cls-80" d="M470.2584,326.3159c-15.9276,25.9258-69.4128,22.0162-119.4625-8.7319-50.0509-30.7489-77.7139-76.6928-61.7863-102.6187,15.9297-25.9292,69.4171-22.0205,119.468,8.7284s77.7104,76.693,61.7807,102.6222Z"/>
          <path class="cls-128" d="M470.0021,326.3619c-15.7652,25.6615-68.7049,21.7917-118.2442-8.6429-49.5405-30.4353-76.9215-75.9108-61.1563-101.5722,15.7673-25.6649,68.7093-21.7959,118.2498,8.6394,49.5393,30.4346,76.918,75.9108,61.1507,101.5757Z"/>
          <path class="cls-104" d="M469.7458,326.4079c-15.6028,25.3971-67.997,21.5672-117.0259-8.5538-49.0301-30.1217-76.1291-75.1287-60.5264-100.5258,15.6049-25.4005,68.0015-21.5713,117.0316,8.5505,49.029,30.1211,76.1255,75.1287,60.5207,100.5292Z"/>
          <path class="cls-81" d="M469.4895,326.4539c-15.4403,25.1327-67.2891,21.3427-115.8077-8.4648-48.5197-29.8082-75.3367-74.3467-59.8964-99.4794,15.4424-25.1362,67.2937-21.3467,115.8134,8.4615,48.5186,29.8075,75.3331,74.3465,59.8907,99.4827Z"/>
          <path class="cls-39" d="M469.2332,326.4999c-15.2779,24.8684-66.5812,21.1182-114.5894-8.3757-48.0092-29.4946-74.5443-73.5646-59.2664-98.433,15.28-24.8718,66.586-21.122,114.5952,8.3725,48.0083,29.494,74.5407,73.5644,59.2606,98.4362Z"/>
          <path class="cls-44" d="M468.9769,326.5458c-15.1155,24.604-65.8733,20.8937-113.3712-8.2867-47.4988-29.181-73.7519-72.7825-58.6364-97.3865,15.1176-24.6074,65.8782-20.8974,113.377,8.2836,47.4979,29.1805,73.7482,72.7822,58.6306,97.3896Z"/>
          <path class="cls-29" d="M468.7205,326.5918c-14.9531,24.3396-65.1654,20.6693-112.1529-8.1977-46.9884-28.8674-72.9595-72.0005-58.0064-96.3401,14.9552-24.3431,65.1704-20.6728,112.1588,8.1946,46.9876,28.8669,72.9558,72,58.0006,96.3431Z"/>
          <path class="cls-120" d="M468.4642,326.6378c-14.7907,24.0752-64.4575,20.4448-110.9347-8.1086-46.478-28.5538-72.1671-71.2184-57.3764-95.2937,14.7928-24.0787,64.4626-20.4481,110.9406,8.1057,46.4772,28.5534,72.1634,71.2179,57.3706,95.2966Z"/>
          <path class="cls-10" d="M468.2079,326.6838c-14.6283,23.8109-63.7495,20.2203-109.7164-8.0196-45.9675-28.2403-71.3747-70.4364-56.7465-94.2472,14.6304-23.8144,63.7548-20.2235,109.7224,8.0167,45.9669,28.2398,71.371,70.4357,56.7405,94.2501Z"/>
          <path class="cls-146" d="M467.9516,326.7298c-14.4658,23.5465-63.0416,19.9958-108.4982-7.9306s-70.5823-69.6543-56.1165-93.2008,63.047-19.9989,108.5041,7.9278c45.4565,27.9263,70.5785,69.6535,56.1105,93.2036Z"/>
          <path class="cls-69" d="M467.6953,326.7758c-14.3034,23.2821-62.3337,19.7713-107.2799-7.8415s-69.7899-68.8722-55.4865-92.1544c14.3056-23.2857,62.3393-19.7743,107.2859,7.8388s69.7861,68.8714,55.4805,92.1571Z"/>
          <path class="cls-207" d="M467.439,326.8217c-14.141,23.0178-61.6258,19.5468-106.0617-7.7525-44.4363-27.2995-68.9975-68.0902-54.8565-91.1079,14.1432-23.0213,61.6315-19.5496,106.0677,7.7499,44.4358,27.2992,68.9937,68.0892,54.8505,91.1106Z"/>
          <path class="cls-79" d="M467.1827,326.8677c-13.9786,22.7534-60.9179,19.3223-104.8434-7.6634-43.9258-26.9859-68.2051-67.3081-54.2265-90.0615,13.9808-22.757,60.9237-19.325,104.8495,7.6609,43.9255,26.9857,68.2012,67.3071,54.2204,90.064Z"/>
          <path class="cls-167" d="M466.9264,326.9137c-13.8162,22.489-60.21,19.0978-103.6252-7.5744-43.4154-26.6723-67.4127-66.5261-53.5966-89.0151,13.8184-22.4926,60.2159-19.1004,103.6313,7.572,43.4151,26.6722,67.4088,66.5249,53.5904,89.0175Z"/>
          <path class="cls-156" d="M466.67,326.9597c-13.6538,22.2247-59.5021,18.8733-102.4069-7.4854-42.905-26.3588-66.6203-65.744-52.9666-87.9687s59.5081-18.8758,102.4131,7.483c42.9048,26.3586,66.6164,65.7427,52.9604,87.971Z"/>
          <path class="cls-223" d="M466.4137,327.0057c-13.4913,21.9603-58.7942,18.6488-101.1887-7.3963-42.3946-26.0452-65.8279-64.9619-52.3366-86.9222,13.4936-21.9639,58.8003-18.6511,101.1949,7.3941,42.3944,26.0451,65.8239,64.9606,52.3304,86.9245Z"/>
          <path class="cls-188" d="M466.1574,327.0517c-13.3289,21.6959-58.0863,18.4243-99.9704-7.3073-41.8841-25.7316-65.0355-64.1799-51.7066-85.8758,13.3312-21.6996,58.0926-18.4265,99.9767,7.3051,41.8841,25.7316,65.0315,64.1784,51.7003,85.878Z"/>
          <path class="cls-194" d="M465.9011,327.0976c-13.1665,21.4315-57.3784,18.1998-98.7521-7.2183-41.3737-25.418-64.2431-63.3978-51.0766-84.8294,13.1688-21.4352,57.3848-18.2019,98.7585,7.2162,41.3737,25.418,64.2391,63.3963,51.0703,84.8315Z"/>
        </g>
        <g class="cls-6">
          <ellipse class="cls-152" cx="319.5269" cy="221.5897" rx="79.6613" ry="153.774" transform="translate(-36.5383 377.8491) rotate(-58.4353)"/>
          <ellipse class="cls-57" cx="320.2552" cy="221.9907" rx="79.505" ry="153.4725" transform="translate(-36.533 378.6606) rotate(-58.4353)"/>
          <ellipse class="cls-118" cx="320.9834" cy="222.3917" rx="79.3488" ry="153.171" transform="translate(-36.5276 379.4721) rotate(-58.4353)"/>
          <ellipse class="cls-184" cx="321.7116" cy="222.7926" rx="79.1925" ry="152.8695" transform="translate(-36.5223 380.2836) rotate(-58.4353)"/>
          <ellipse class="cls-59" cx="322.4398" cy="223.1936" rx="79.0363" ry="152.5681" transform="translate(-36.5169 381.095) rotate(-58.4353)"/>
          <path class="cls-102" d="M452.9064,303.2999c-22.804,37.1188-99.3796,31.5223-171.0287-12.4955-71.6554-44.0216-111.2527-109.7962-88.4487-146.915,22.8042-37.1191,99.3746-31.5267,171.0299,12.4949,71.6491,44.0178,111.2516,109.7965,88.4475,146.9156Z"/>
          <path class="cls-186" d="M453.3777,303.5431c-22.7588,37.0452-99.1827,31.4599-170.69-12.4708-71.5134-43.9344-111.0324-109.5788-88.2736-146.624,22.759-37.0456,99.1779-31.4642,170.6913,12.4702,71.5074,43.9307,111.0314,109.5791,88.2724,146.6247Z"/>
          <path class="cls-150" d="M453.849,303.7863c-22.7136,36.9717-98.9858,31.3974-170.3514-12.4462-71.3714-43.8472-110.8121-109.3614-88.0985-146.333,22.7139-36.9721,98.9812-31.4017,170.3526,12.4455,71.3656,43.8436,110.8111,109.3617,88.0972,146.3338Z"/>
          <path class="cls-43" d="M454.3203,304.0294c-22.6684,36.8981-98.7888,31.335-170.0127-12.4215-71.2295-43.76-110.5918-109.144-87.9234-146.0421,22.6687-36.8986,98.7845-31.3392,170.014,12.4207,71.2239,43.7565,110.5909,109.1443,87.9221,146.0429Z"/>
          <path class="cls-178" d="M454.7917,304.2726c-22.6232,36.8246-98.5919,31.2726-169.674-12.3969s-110.3716-108.9265-87.7483-145.7511c22.6236-36.8251,98.5878-31.2767,169.6753,12.396,71.0821,43.6694,110.3706,108.9269,87.747,145.7519Z"/>
          <path class="cls-179" d="M455.263,304.5158c-22.5781,36.751-98.395,31.2102-169.3353-12.3722-70.9455-43.5855-110.1513-108.7091-87.5732-145.4601,22.5784-36.7516,98.3911-31.2143,169.3367,12.3713,70.9404,43.5824,110.1503,108.7095,87.5719,145.461Z"/>
          <path class="cls-180" d="M455.7343,304.7589c-22.5329,36.6774-98.1981,31.1477-168.9967-12.3475-70.8036-43.4983-109.931-108.4917-87.3982-145.1692,22.5332-36.6781,98.1944-31.1518,168.998,12.3466,70.7986,43.4953,109.9301,108.4921,87.3968,145.1701Z"/>
          <path class="cls-185" d="M456.2056,305.0021c-22.4877,36.6039-98.0011,31.0853-168.658-12.3229-70.6616-43.4111-109.7108-108.2743-87.2231-144.8782,22.4881-36.6046,97.9977-31.0893,168.6594,12.3218,70.6569,43.4082,109.7098,108.2747,87.2217,144.8792Z"/>
          <path class="cls-36" d="M456.677,305.2452c-22.4425,36.5303-97.8042,31.0229-168.3193-12.2982-70.5197-43.3239-109.4905-108.0569-87.048-144.5872,22.4429-36.5311,97.8011-31.0268,168.3207,12.2971s109.4896,108.0573,87.0466,144.5883Z"/>
          <path class="cls-176" d="M457.1483,305.4884c-22.3973,36.4568-97.6073,30.9605-167.9807-12.2736-70.3777-43.2367-109.2702-107.8395-86.8729-144.2963s97.6044-30.9643,167.9821,12.2724c70.3734,43.234,109.2693,107.8399,86.8715,144.2974Z"/>
          <path class="cls-8" d="M457.6196,305.7316c-22.3521,36.3832-97.4104,30.898-167.642-12.2489-70.2357-43.1495-109.0499-107.6221-86.6978-144.0053,22.3526-36.3841,97.4077-30.9018,167.6434,12.2477,70.2316,43.1469,109.049,107.6225,86.6964,144.0065Z"/>
          <path class="cls-177" d="M458.0909,305.9747c-22.3069,36.3097-97.2134,30.8356-167.3033-12.2242-70.0938-43.0623-108.8297-107.4047-86.5227-143.7143,22.3075-36.3106,97.211-30.8393,167.3048,12.2229,70.0899,43.0599,108.8288,107.4051,86.5213,143.7156Z"/>
          <path class="cls-154" d="M458.5622,306.2179c-22.2617,36.2361-97.0165,30.7732-166.9646-12.1996-69.9518-42.975-108.6094-107.1873-86.3477-143.4234,22.2623-36.2371,97.0143-30.7768,166.9661,12.1982s108.6085,107.1877,86.3462,143.4247Z"/>
          <path class="cls-173" d="M459.0336,306.4611c-22.2165,36.1625-96.8196,30.7108-166.626-12.1749-69.8098-42.8878-108.3891-106.9698-86.1726-143.1324s96.8176-30.7143,166.6274,12.1735c69.8064,42.8857,108.3883,106.9703,86.1711,143.1338Z"/>
          <path class="cls-31" d="M459.5049,306.7042c-22.1713,36.089-96.6227,30.6483-166.2873-12.1503-69.6679-42.8006-108.1688-106.7524-85.9975-142.8414,22.172-36.0901,96.6209-30.6518,166.2888,12.1488,69.6646,42.7986,108.168,106.7529,85.996,142.8429Z"/>
          <path class="cls-174" d="M459.9762,306.9474c-22.1262,36.0154-96.4258,30.5859-165.9486-12.1256-69.5259-42.7134-107.9486-106.535-85.8224-142.5504,22.1269-36.0166,96.4242-30.5893,165.9501,12.124,69.5229,42.7115,107.9477,106.5354,85.8209,142.552Z"/>
          <path class="cls-127" d="M460.4475,307.1906c-22.081,35.9419-96.2288,30.5235-165.6099-12.101-69.3839-42.6262-107.7283-106.3176-85.6473-142.2595,22.0817-35.9431,96.2275-30.5268,165.6115,12.0993,69.3811,42.6244,107.7275,106.318,85.6458,142.2611Z"/>
          <path class="cls-175" d="M460.9189,307.4337c-22.0358,35.8683-96.0319,30.4611-165.2713-12.0763-69.242-42.539-107.508-106.1002-85.4722-141.9685,22.0365-35.8696,96.0309-30.4644,165.2728,12.0746,69.2394,42.5373,107.5072,106.1006,85.4707,141.9702Z"/>
          <path class="cls-28" d="M461.3902,307.6769c-21.9906,35.7948-95.835,30.3986-164.9326-12.0516-69.1-42.4517-107.2877-105.8828-85.2972-141.6775s95.8342-30.4019,164.9342,12.0499c69.0976,42.4503,107.287,105.8832,85.2956,141.6793Z"/>
          <path class="cls-131" d="M461.8615,307.9201c-21.9454,35.7212-95.6381,30.3362-164.5939-12.027-68.9581-42.3645-107.0675-105.6654-85.1221-141.3866,21.9462-35.7226,95.6375-30.3394,164.5955,12.0252,68.9559,42.3632,107.0667,105.6658,85.1205,141.3884Z"/>
          <path class="cls-88" d="M462.3328,308.1632c-21.9002,35.6476-95.4411,30.2738-164.2553-12.0023-68.8161-42.2773-106.8472-105.448-84.947-141.0956,21.9011-35.6491,95.4408-30.2769,164.2569,12.0004,68.8141,42.2761,106.8464,105.4484,84.9454,141.0975Z"/>
          <path class="cls-139" d="M462.8042,308.4064c-21.855,35.5741-95.2442,30.2114-163.9166-11.9777-68.6741-42.1901-106.6269-105.2306-84.7719-140.8046,21.8559-35.5756,95.2441-30.2144,163.9182,11.9757,68.6724,42.189,106.6262,105.231,84.7702,140.8066Z"/>
          <path class="cls-110" d="M463.2755,308.6496c-21.8098,35.5005-95.0473,30.1489-163.5779-11.953s-106.4067-105.0131-84.5968-140.5137c21.8108-35.5021,95.0474-30.1519,163.5796,11.951,68.5306,42.1019,106.4059,105.0136,84.5951,140.5157Z"/>
          <path class="cls-20" d="M463.7468,308.8927c-21.7646,35.427-94.8504,30.0865-163.2392-11.9283-68.3902-42.0157-106.1864-104.7957-84.4217-140.2227,21.7656-35.4286,94.8507-30.0894,163.2409,11.9263,68.3889,42.0148,106.1857,104.7962,84.42,140.2248Z"/>
          <path class="cls-73" d="M464.2181,309.1359c-21.7194,35.3534-94.6534,30.0241-162.9006-11.9037s-105.9661-104.5783-84.2467-139.9317c21.7205-35.3551,94.654-30.0269,162.9023,11.9015s105.9654,104.5788,84.2449,139.9339Z"/>
          <path class="cls-49" d="M464.6895,309.3791c-21.6743,35.2799-94.4565,29.9617-162.5619-11.879-68.1063-41.8412-105.7458-104.3609-84.0716-139.6408s94.4574-29.9644,162.5636,11.8768c68.1054,41.8407,105.7451,104.3614,84.0698,139.643Z"/>
          <path class="cls-115" d="M465.1608,309.6222c-21.6291,35.2063-94.2596,29.8992-162.2232-11.8544-67.9643-41.754-105.5256-104.1435-83.8965-139.3498,21.6301-35.2081,94.2607-29.9019,162.225,11.8521s105.5249,104.144,83.8947,139.3521Z"/>
          <path class="cls-172" d="M465.6321,309.8654c-21.5839,35.1327-94.0627,29.8368-161.8845-11.8297-67.8223-41.6668-105.3053-103.9261-83.7214-139.0588,21.585-35.1346,94.064-29.8394,161.8863,11.8274,67.8219,41.6665,105.3046,103.9266,83.7196,139.0612Z"/>
          <path class="cls-171" d="M466.1034,310.1086c-21.5387,35.0592-93.8657,29.7744-161.5459-11.805-67.6804-41.5796-105.085-103.7087-83.5463-138.7679,21.5398-35.0611,93.8673-29.777,161.5477,11.8026,67.6801,41.5794,105.0844,103.7092,83.5445,138.7703Z"/>
          <path class="cls-26" d="M466.5747,310.3517c-21.4935,34.9856-93.6688,29.712-161.2072-11.7804-67.5384-41.4924-104.8647-103.4913-83.3712-138.4769,21.4947-34.9876,93.6706-29.7145,161.209,11.7779,67.5384,41.4923,104.8641,103.4918,83.3694,138.4794Z"/>
          <path class="cls-33" d="M467.0461,310.5949c-21.4483,34.9121-93.4719,29.6495-160.8685-11.7557-67.3965-41.4052-104.6445-103.2739-83.1962-138.1859s93.4739-29.652,160.8704,11.7532c67.3966,41.4053,104.6438,103.2744,83.1943,138.1885Z"/>
          <path class="cls-78" d="M467.5174,310.838c-21.4031,34.8385-93.275,29.5871-160.5298-11.7311-67.2545-41.3179-104.4242-103.0564-83.0211-137.895s93.2772-29.5895,160.5317,11.7285c67.2549,41.3182,104.4236,103.057,83.0192,137.8976Z"/>
          <path class="cls-161" d="M467.9887,311.0812c-21.3579,34.765-93.0781,29.5247-160.1912-11.7064-67.1125-41.2307-104.2039-102.839-82.846-137.604,21.3592-34.7671,93.0805-29.527,160.1931,11.7037,67.1131,41.2311,104.2033,102.8396,82.8441,137.6067Z"/>
          <path class="cls-106" d="M468.46,311.3244c-21.3127,34.6914-92.8811,29.4623-159.8525-11.6817-66.9706-41.1435-103.9836-102.6216-82.6709-137.313,21.3141-34.6936,92.8839-29.4645,159.8544,11.679,66.9714,41.144,103.983,102.6222,82.669,137.3158Z"/>
          <path class="cls-182" d="M468.9314,311.5675c-21.2675,34.6178-92.6842,29.3998-159.5138-11.6571-66.8286-41.0563-103.7634-102.4042-82.4958-137.0221,21.2689-34.6201,92.6872-29.402,159.5158,11.6543,66.8296,41.0569,103.7628,102.4048,82.4939,137.0249Z"/>
          <path class="cls-183" d="M469.4027,311.8107c-21.2224,34.5443-92.4873,29.3374-159.1752-11.6324-66.6866-40.9691-103.5431-102.1868-82.3207-136.7311,21.2238-34.5466,92.4905-29.3395,159.1771,11.6296,66.6879,40.9698,103.5425,102.1874,82.3188,136.7339Z"/>
          <path class="cls-47" d="M469.874,312.0539c-21.1772,34.4707-92.2904,29.275-158.8365-11.6078-66.5447-40.8819-103.3228-101.9694-82.1457-136.4401,21.1786-34.4731,92.2938-29.277,158.8385,11.6048,66.5461,40.8828,103.3223,101.97,82.1437,136.443Z"/>
          <path class="cls-2" d="M470.3453,312.297c-21.132,34.3972-92.0934,29.2126-158.4978-11.5831-66.4027-40.7946-103.1025-101.752-81.9706-136.1491,21.1334-34.3996,92.0971-29.2145,158.4998,11.5801,66.4044,40.7957,103.102,101.7526,81.9686,136.1521Z"/>
          <path class="cls-95" d="M470.8167,312.5402c-21.0868,34.3236-91.8965,29.1501-158.1591-11.5585s-102.8823-101.5346-81.7955-135.8582c21.0883-34.3261,91.9004-29.152,158.1612,11.5554,66.2626,40.7086,102.8817,101.5352,81.7935,135.8612Z"/>
          <path class="cls-51" d="M471.288,312.7834c-21.0416,34.2501-91.6996,29.0877-157.8205-11.5338s-102.662-101.3172-81.6204-135.5672,91.7037-29.0895,157.8225,11.5307c66.1209,40.6215,102.6615,101.3178,81.6184,135.5703Z"/>
          <path class="cls-158" d="M471.7593,313.0265c-20.9964,34.1765-91.5027,29.0253-157.4818-11.5091-65.9768-40.533-102.4417-101.0997-81.4453-135.2762,20.998-34.1791,91.507-29.0271,157.4839,11.5059s102.4412,101.1004,81.4433,135.2794Z"/>
          <path class="cls-66" d="M472.2306,313.2697c-20.9512,34.1029-91.3057,28.9629-157.1431-11.4845-65.8349-40.4458-102.2215-100.8823-81.2702-134.9853,20.9528-34.1056,91.3104-28.9646,157.1452,11.4812,65.8374,40.4473,102.221,100.883,81.2681,134.9885Z"/>
          <path class="cls-169" d="M472.7019,313.5129c-20.906,34.0294-91.1088,28.9004-156.8044-11.4598-65.6929-40.3586-102.0012-100.6649-81.0952-134.6943,20.9077-34.0321,91.1137-28.9021,156.8066,11.4565,65.6956,40.3602,102.0007,100.6656,81.093,134.6976Z"/>
          <path class="cls-123" d="M473.1733,313.756c-20.8608,33.9558-90.9119,28.838-156.4658-11.4352-65.5509-40.2714-101.7809-100.4475-80.9201-134.4033,20.8625-33.9586,90.917-28.8396,156.4679,11.4318,65.5539,40.2732,101.7804,100.4482,80.9179,134.4067Z"/>
          <path class="cls-41" d="M473.6446,313.9992c-20.8156,33.8823-90.715,28.7756-156.1271-11.4105-65.409-40.1841-101.5606-100.2301-80.745-134.1124s90.7203-28.7771,156.1293,11.407c65.4121,40.1861,101.5602,100.2308,80.7428,134.1158Z"/>
          <path class="cls-181" d="M474.1159,314.2424c-20.7705,33.8087-90.5181,28.7132-155.7884-11.3858-65.267-40.0969-101.3404-100.0127-80.5699-133.8214,20.7722-33.8116,90.5236-28.7146,155.7906,11.3823,65.2704,40.099,101.3399,100.0134,80.5677,133.8249Z"/>
          <path class="cls-170" d="M474.5872,314.4855c-20.7253,33.7352-90.3211,28.6507-155.4498-11.3612-65.125-40.0097-101.1201-99.7953-80.3948-133.5304,20.727-33.7381,90.3269-28.6521,155.452,11.3576,65.1286,40.0119,101.1197,99.796,80.3926,133.534Z"/>
          <path class="cls-86" d="M474.5856,314.4882c-20.5757,33.4918-89.6695,28.444-154.3282-11.2792-64.6552-39.7211-100.3906-99.0753-79.8148-132.5671,20.5775-33.4946,89.6753-28.4454,154.3305,11.2757,64.6587,39.7232,100.3901,99.076,79.8126,132.5706Z"/>
          <path class="cls-13" d="M474.5839,314.491c-20.4262,33.2483-89.0179,28.2374-153.2067-11.1972-64.1854-39.4324-99.661-98.3554-79.2348-131.6038,20.428-33.2512,89.0236-28.2387,153.209,11.1937,64.1888,39.4345,99.6605,98.356,79.2325,131.6072Z"/>
          <path class="cls-9" d="M474.5822,314.4937c-20.2767,33.0049-88.3662,28.0307-152.0852-11.1152-63.7155-39.1438-98.9315-97.6355-78.6548-130.6404s88.372-28.032,152.0875,11.1118c63.7189,39.1459,98.9309,97.636,78.6525,130.6438Z"/>
          <path class="cls-9" d="M474.5806,314.4964c-20.1271,32.7615-87.7146,27.824-150.9636-11.0332-63.2457-38.8551-98.202-96.9156-78.0749-129.6771,20.1289-32.7644,87.7204-27.8253,150.9661,11.0298,63.249,38.8572,98.2013,96.916,78.0724,129.6805Z"/>
          <path class="cls-210" d="M474.5789,314.4991c-19.9776,32.5181-87.063,27.6173-149.8421-10.9512-62.7759-38.5665-97.4724-96.1957-77.4949-128.7138,19.9794-32.521,87.0687-27.6186,149.8446,10.9479,62.7791,38.5685,97.4717,96.1961,77.4924,128.7171Z"/>
          <path class="cls-210" d="M474.5772,314.5018c-19.828,32.2747-86.4114,27.4106-148.7206-10.8692-62.306-38.2779-96.7429-95.4757-76.9149-127.7504,19.8298-32.2776,86.4171-27.4119,148.7231,10.8659,62.3092,38.2798,96.7421,95.4761,76.9123,127.7537Z"/>
          <path class="cls-163" d="M474.5755,314.5046c-19.6785,32.0313-85.7597,27.2039-147.599-10.7872-61.8362-37.9892-96.0134-94.7558-76.3349-126.7871,19.6803-32.0342,85.7654-27.2052,147.6017,10.784s96.0125,94.7561,76.3323,126.7903Z"/>
          <path class="cls-92" d="M474.5739,314.5073c-19.529,31.7879-85.1081,26.9973-146.4775-10.7052-61.3664-37.7006-95.2839-94.0359-75.7549-125.8238,19.5307-31.7908,85.1138-26.9985,146.4802,10.702,61.3694,37.7024,95.2829,94.0361,75.7522,125.8269Z"/>
          <path class="cls-214" d="M474.5722,314.51c-19.3794,31.5445-84.4565,26.7906-145.356-10.6232-60.8965-37.4119-94.5543-93.316-75.1749-124.8605s84.4622-26.7918,145.3587,10.6201c60.8995,37.4137,94.5534,93.3161,75.1722,124.8635Z"/>
          <path class="cls-24" d="M474.5705,314.5127c-19.2299,31.3011-83.8048,26.5839-144.2344-10.5412-60.4267-37.1233-93.8248-92.596-74.5949-123.8971,19.2317-31.304,83.8105-26.5851,144.2372,10.5382,60.4296,37.1251,93.8238,92.5962,74.5921,123.9001Z"/>
          <path class="cls-24" d="M474.5689,314.5154c-19.0803,31.0577-83.1532,26.3772-143.1129-10.4592-59.9569-36.8346-93.0953-91.8761-74.0149-122.9338,19.0821-31.0606,83.1589-26.3784,143.1158,10.4562,59.9597,36.8364,93.0942,91.8762,74.0121,122.9367Z"/>
          <path class="cls-17" d="M474.5672,314.5181c-18.9308,30.8143-82.5016,26.1705-141.9914-10.3771-59.4871-36.546-92.3658-91.1562-73.4349-121.9705,18.9326-30.8171,82.5072-26.1717,141.9943,10.3743,59.4898,36.5477,92.3646,91.1562,73.432,121.9733Z"/>
          <path class="cls-17" d="M474.5655,314.5209c-18.7813,30.5709-81.8499,25.9639-140.8698-10.2951s-91.6362-90.4363-72.855-121.0071c18.783-30.5737,81.8556-25.965,140.8728,10.2923,59.0199,36.259,91.635,90.4362,72.852,121.01Z"/>
          <path class="cls-219" d="M474.5639,314.5236c-18.6317,30.3275-81.1983,25.7572-139.7483-10.2131-58.5474-35.9687-90.9067-89.7163-72.275-120.0438,18.6335-30.3303,81.204-25.7583,139.7514,10.2104,58.55,35.9703,90.9054,89.7162,72.2719,120.0466Z"/>
          <path class="cls-164" d="M474.5622,314.5263c-18.4822,30.084-80.5467,25.5505-138.6268-10.1311-58.0776-35.6801-90.1772-88.9964-71.695-119.0805,18.484-30.0869,80.5523-25.5516,138.6299,10.1284,58.0801,35.6816,90.1758,88.9963,71.6919,119.0832Z"/>
          <path class="cls-164" d="M474.5605,314.529c-18.3327,29.8406-79.8951,25.3438-137.5052-10.0491-57.6077-35.3914-89.4476-88.2765-71.115-118.1171,18.3344-29.8435,79.9007-25.3449,137.5084,10.0465,57.6102,35.3929,89.4462,88.2763,71.1118,118.1198Z"/>
          <path class="cls-222" d="M474.5589,314.5317c-18.1831,29.5972-79.2434,25.1371-136.3837-9.9671s-88.7181-87.5566-70.535-117.1538c18.1849-29.6001,79.2491-25.1382,136.3869,9.9645,57.1403,35.1043,88.7166,87.5563,70.5318,117.1564Z"/>
          <path class="cls-132" d="M474.5572,314.5345c-18.0336,29.3538-78.5918,24.9304-135.2622-9.8851s-87.9886-86.8367-69.955-116.1905c18.0353-29.3567,78.5974-24.9315,135.2655,9.8826,56.6704,34.8156,87.9871,86.8363,69.9517,116.193Z"/>
          <path class="cls-22" d="M474.5555,314.5372c-17.884,29.1104-77.9402,24.7238-134.1406-9.8031-56.1982-34.5255-87.2591-86.1167-69.375-115.2271,17.8858-29.1133,77.9458-24.7248,134.144,9.8007,56.2005,34.5269,87.2575,86.1163,69.3717,115.2296Z"/>
          <path class="cls-133" d="M474.5538,314.5399c-17.7345,28.867-77.2885,24.5171-133.0191-9.7211-55.7284-34.2369-86.5295-85.3968-68.795-114.2638,17.7363-28.8699,77.2941-24.5181,133.0225,9.7187,55.7306,34.2382,86.5279,85.3964,68.7916,114.2662Z"/>
          <path class="cls-135" d="M474.5522,314.5426c-17.585,28.6236-76.6369,24.3104-131.8976-9.6391-55.2586-33.9482-85.8-84.6769-68.215-113.3005,17.5867-28.6265,76.6425-24.3114,131.9011,9.6368,55.2607,33.9495,85.7983,84.6764,68.2116,113.3028Z"/>
          <path class="cls-76" d="M474.5505,314.5453c-17.4354,28.3802-75.9853,24.1037-130.776-9.5571-54.7887-33.6596-85.0705-83.957-67.635-112.3372,17.4372-28.3831,75.9909-24.1047,130.7796,9.5548s85.0687,83.9564,67.6315,112.3395Z"/>
          <path class="cls-76" d="M474.5488,314.548c-17.2859,28.1368-75.3336,23.897-129.6545-9.4751-54.3189-33.3709-84.341-83.237-67.0551-111.3738,17.2877-28.1396,75.3392-23.898,129.6581,9.4729,54.3209,33.3721,84.3391,83.2364,67.0515,111.3761Z"/>
          <path class="cls-237" d="M474.5472,314.5508c-17.1364,27.8934-74.682,23.6903-128.533-9.3931-53.8491-33.0823-83.6114-82.5171-66.4751-110.4105,17.1381-27.8962,74.6876-23.6914,128.5366,9.3909,53.851,33.0835,83.6095,82.5164,66.4714,110.4127Z"/>
          <path class="cls-237" d="M474.5455,314.5535c-16.9868,27.65-74.0304,23.4837-127.4115-9.3111-53.3792-32.7936-82.8819-81.7972-65.8951-109.4472s74.0359-23.4847,127.4152,9.309c53.3811,32.7948,82.8799,81.7965,65.8914,109.4493Z"/>
          <path class="cls-191" d="M474.5438,314.5562c-16.8373,27.4066-73.3788,23.277-126.2899-9.2291s-82.1524-81.0773-65.3151-108.4838c16.839-27.4094,73.3843-23.278,126.2937,9.227,52.9112,32.5061,82.1503,81.0765,65.3113,108.4859Z"/>
          <path class="cls-191" d="M474.5422,314.5589c-16.6877,27.1632-72.7271,23.0703-125.1684-9.1471-52.4396-32.2164-81.4228-80.3573-64.7351-107.5205,16.6895-27.166,72.7327-23.0713,125.1722,9.1451,52.4413,32.2174,81.4207,80.3565,64.7313,107.5225Z"/>
          <path class="cls-155" d="M474.5405,314.5616c-16.5382,26.9197-72.0755,22.8636-124.0469-9.0651-51.9697-31.9277-80.6933-79.6374-64.1551-106.5572,16.54-26.9226,72.081-22.8646,124.0508,9.0632,51.9714,31.9287,80.6912,79.6365,64.1512,106.5591Z"/>
          <path class="cls-155" d="M474.5388,314.5644c-16.3887,26.6763-71.4239,22.6569-122.9253-8.9831-51.4999-31.6391-79.9638-78.9175-63.5751-105.5938,16.3904-26.6792,71.4294-22.6579,122.9293,8.9812,51.5015,31.64,79.9616,78.9165,63.5712,105.5957Z"/>
          <path class="cls-212" d="M474.5371,314.5671c-16.2391,26.4329-70.7722,22.4502-121.8038-8.9011-51.0301-31.3504-79.2343-78.1976-62.9951-104.6305s70.7778-22.4512,121.8078,8.8993c51.0315,31.3513,79.232,78.1966,62.9911,104.6323Z"/>
          <path class="cls-119" d="M474.5355,314.5698c-16.0896,26.1895-70.1206,22.2436-120.6823-8.8191-50.5602-31.0618-78.5047-77.4776-62.4151-103.6672,16.0913-26.1924,70.1261-22.2445,120.6863,8.8173,50.5616,31.0627,78.5024,77.4766,62.4111,103.669Z"/>
          <path class="cls-220" d="M474.5338,314.5725c-15.9401,25.9461-69.469,22.0369-119.5607-8.7371-50.0904-30.7731-77.7752-76.7577-61.8351-102.7038,15.9418-25.949,69.4745-22.0378,119.5649,8.7354,50.0917,30.774,77.7728,76.7566,61.831,102.7056Z"/>
          <path class="cls-145" d="M474.5321,314.5752c-15.7905,25.7027-68.8174,21.8302-118.4392-8.6551-49.6206-30.4845-77.0457-76.0378-61.2552-101.7405,15.7923-25.7056,68.8228-21.8311,118.4434,8.6534,49.6218,30.4853,77.0432,76.0366,61.2509,101.7422Z"/>
          <path class="cls-234" d="M474.5305,314.5779c-15.641,25.4593-68.1657,21.6235-117.3177-8.5731-49.1507-30.1959-76.3161-75.3179-60.6752-100.7772,15.6427-25.4621,68.1712-21.6244,117.3219,8.5715,49.1519,30.1966,76.3136,75.3166,60.6709,100.7788Z"/>
          <path class="cls-107" d="M474.5288,314.5807c-15.4914,25.2159-67.5141,21.4168-116.1961-8.4911-48.6809-29.9072-75.5866-74.598-60.0952-99.8139,15.4932-25.2187,67.5196-21.4177,116.2005,8.4895,48.682,29.9079,75.584,74.5967,60.0908,99.8154Z"/>
          <path class="cls-107" d="M474.5271,314.5834c-15.3419,24.9725-66.8625,21.2101-115.0746-8.4091-48.2111-29.6186-74.8571-73.878-59.5152-98.8505,15.3436-24.9753,66.8679-21.211,115.079,8.4076s74.8544,73.8767,59.5108,98.852Z"/>
          <path class="cls-82" d="M474.5255,314.5861c-15.1924,24.7291-66.2108,21.0035-113.9531-8.3271-47.7412-29.3299-74.1276-73.1581-58.9352-97.8872,15.1941-24.7319,66.2163-21.0043,113.9575,8.3257,47.7422,29.3305,74.1249,73.1567,58.9307,97.8886Z"/>
          <path class="cls-208" d="M474.5238,314.5888c-15.0428,24.4857-65.5592,20.7968-112.8315-8.2451-47.2714-29.0413-73.398-72.4382-58.3552-96.9239,15.0446-24.4885,65.5646-20.7976,112.836,8.2437,47.2723,29.0419,73.3953,72.4367,58.3507,96.9252Z"/>
          <path class="cls-208" d="M474.5221,314.5915c-14.8933,24.2423-64.9076,20.5901-111.71-8.1631s-72.6685-71.7183-57.7752-95.9605c14.895-24.2451,64.913-20.5909,111.7146,8.1618s72.6657,71.7167,57.7706,95.9618Z"/>
          <path class="cls-52" d="M474.5204,314.5943c-14.7438,23.9989-64.2559,20.3834-110.5885-8.0811-46.3317-28.464-71.939-70.9983-57.1952-94.9972,14.7455-24.0017,64.2614-20.3842,110.5931,8.0798,46.3325,28.4645,71.9361,70.9968,57.1906,94.9984Z"/>
          <path class="cls-52" d="M474.5188,314.597c-14.5942,23.7555-63.6043,20.1767-109.4669-7.9991-45.8619-28.1754-71.2095-70.2784-56.6152-94.0339,14.596-23.7583,63.6097-20.1775,109.4716,7.9979,45.8626,28.1758,71.2065,70.2768,56.6105,94.0351Z"/>
          <path class="cls-16" d="M474.5171,314.5997c-14.4447,23.512-62.9527,19.97-108.3454-7.9171-45.3921-27.8867-70.4799-69.5585-56.0353-93.0705,14.4464-23.5149,62.9581-19.9708,108.3502,7.9159,45.3927,27.8871,70.4769,69.5568,56.0305,93.0717Z"/>
          <path class="cls-125" d="M474.5154,314.6024c-14.2951,23.2686-62.3011,19.7634-107.2239-7.8351s-69.7504-68.8386-55.4553-92.1072c14.2969-23.2715,62.3064-19.7641,107.2287,7.834,44.9228,27.5984,69.7473,68.8368,55.4504,92.1083Z"/>
          <path class="cls-116" d="M474.5138,314.6051c-14.1456,23.0252-61.6494,19.5567-106.1023-7.7531-44.4524-27.3094-69.0209-68.1186-54.8753-91.1439,14.1473-23.0281,61.6548-19.5574,106.1072,7.752,44.4529,27.3097,69.0177,68.1168,54.8704,91.1449Z"/>
          <path class="cls-137" d="M474.5121,314.6078c-13.9961,22.7818-60.9978,19.35-104.9808-7.6711-43.9826-27.0208-68.2913-67.3987-54.2953-90.1805,13.9978-22.7846,61.0032-19.3507,104.9857,7.6701,43.983,27.0211,68.2881,67.3969,54.2903,90.1815Z"/>
          <path class="cls-137" d="M474.5104,314.6106c-13.8465,22.5384-60.3462,19.1433-103.8593-7.5891-43.5127-26.7321-67.5618-66.6788-53.7153-89.2172s60.3515-19.144,103.8643,7.5882c43.5131,26.7324,67.5585,66.6769,53.7103,89.2181Z"/>
          <path class="cls-100" d="M474.5088,314.6133c-13.697,22.295-59.6945,18.9366-102.7377-7.5071-43.0429-26.4435-66.8323-65.9589-53.1353-88.2539,13.6987-22.2978,59.6999-18.9373,102.7428,7.5062,43.0432,26.4437,66.829,65.9569,53.1302,88.2547Z"/>
          <path class="cls-100" d="M474.5071,314.616c-13.5474,22.0516-59.0429,18.7299-101.6162-7.4251s-66.1028-65.2389-52.5553-87.2905c13.5492-22.0544,59.0483-18.7306,101.6213,7.4243,42.5733,26.155,66.0994,65.2369,52.5502,87.2913Z"/>
          <path class="cls-204" d="M474.5054,314.6187c-13.3979,21.8082-58.3913,18.5233-100.4947-7.343-42.1032-25.8662-65.3732-64.519-51.9753-86.3272,13.3996-21.811,58.3966-18.5239,100.4999,7.3423,42.1034,25.8663,65.3698,64.5169,51.9701,86.3279Z"/>
          <path class="cls-71" d="M474.5037,314.6214c-13.2484,21.5648-57.7397,18.3166-99.3731-7.261-41.6334-25.5776-64.6437-63.7991-51.3953-85.3639s57.745-18.3172,99.3784,7.2604c41.6335,25.5776,64.6402,63.797,51.3901,85.3646Z"/>
          <path class="cls-197" d="M474.5021,314.6242c-13.0988,21.3214-57.088,18.1099-98.2516-7.179-41.1636-25.2889-63.9142-63.0792-50.8153-84.4006,13.1006-21.3242,57.0933-18.1105,98.2569,7.1784,41.1636,25.2889,63.9106,63.077,50.81,84.4012Z"/>
          <path class="cls-62" d="M474.3456,314.6522c-12.9996,21.1599-56.6557,17.9728-97.5077-7.1247-40.8518-25.0974-63.4301-62.6015-50.4304-83.7614,13.0014-21.1627,56.661-17.9734,97.5128,7.1239,40.852,25.0975,63.4267,62.5994,50.4253,83.7622Z"/>
          <path class="cls-63" d="M474.189,314.6803c-12.9005,20.9985-56.2234,17.8358-96.7639-7.0703-40.54-24.9058-62.946-62.1238-50.0455-83.1223,12.9022-21.0013,56.2288-17.8364,96.7687,7.0694,40.5404,24.9061,62.9428,62.1219,50.0406,83.1232Z"/>
          <path class="cls-64" d="M474.0325,314.7084c-12.8013,20.837-55.7912,17.6987-96.02-7.016-40.2282-24.7143-62.4618-61.6462-49.6606-82.4832,12.803-20.8398,55.7965-17.6993,96.0247,7.0149,40.2288,24.7147,62.4589,61.6444,49.6559,82.4842Z"/>
          <path class="cls-236" d="M473.876,314.7365c-12.7021,20.6756-55.3589,17.5616-95.2761-6.9616-39.9164-24.5227-61.9777-61.1685-49.2756-81.8441,12.7038-20.6784,55.3642-17.5623,95.2806,6.9605,39.9172,24.5232,61.975,61.1668,49.2712,81.8452Z"/>
          <path class="cls-34" d="M473.7195,314.7646c-12.6029,20.5141-54.9266,17.4246-94.5322-6.9072-39.6046-24.3312-61.4936-60.6908-48.8907-81.205,12.6046-20.5169,54.9319-17.4252,94.5365,6.906,39.6057,24.3318,61.4911,60.6893,48.8865,81.2062Z"/>
          <path class="cls-70" d="M473.563,314.7927c-12.5037,20.3527-54.4943,17.2875-93.7884-6.8529-39.2928-24.1396-61.0095-60.2132-48.5058-80.5658,12.5054-20.3555,54.4996-17.2881,93.7924,6.8515,39.2941,24.1404,61.0072,60.2118,48.5018,80.5673Z"/>
          <path class="cls-228" d="M473.4065,314.8208c-12.4045,20.1912-54.062,17.1505-93.0445-6.7985-38.981-23.948-60.5254-59.7355-48.1209-79.9267,12.4062-20.194,54.0673-17.1511,93.0483,6.797,38.9825,23.949,60.5233,59.7342,48.1171,79.9283Z"/>
          <path class="cls-111" d="M473.25,314.8489c-12.3053,20.0298-53.6297,17.0134-92.3006-6.7442-38.6692-23.7565-60.0413-59.2578-47.736-79.2876,12.3071-20.0326,53.635-17.014,92.3042,6.7425,38.6709,23.7575,60.0394,59.2567,47.7324,79.2893Z"/>
          <path class="cls-200" d="M473.0934,314.8769c-12.2061,19.8683-53.1974,16.8763-91.5567-6.6898-38.3574-23.5649-59.5572-58.7802-47.351-78.6485s53.2027-16.877,91.5601,6.688c38.3593,23.5661,59.5555,58.7792,47.3476,78.6503Z"/>
          <path class="cls-226" d="M472.9369,314.905c-12.1069,19.7069-52.7651,16.7393-90.8128-6.6354-38.0456-23.3734-59.0731-58.3025-46.9661-78.0094,12.1087-19.7097,52.7704-16.7399,90.816,6.6335,38.0477,23.3747,59.0716,58.3016,46.9629,78.0113Z"/>
          <path class="cls-215" d="M472.7804,314.9331c-12.0078,19.5454-52.3328,16.6022-90.069-6.5811-37.7338-23.1818-58.5889-57.8248-46.5812-77.3702s52.3382-16.6028,90.0719,6.579,58.5877,57.8241,46.5782,77.3723Z"/>
          <path class="cls-93" d="M472.6239,314.9612c-11.9086,19.384-51.9005,16.4651-89.3251-6.5267-37.422-22.9903-58.1048-57.3472-46.1963-76.7311,11.9103-19.3868,51.9059-16.4658,89.3278,6.5245,37.4246,22.9919,58.1038,57.3465,46.1935,76.7333Z"/>
          <path class="cls-235" d="M472.4674,314.9893c-11.8094,19.2225-51.4683,16.3281-88.5812-6.4723-37.1102-22.7987-57.6207-56.8695-45.8113-76.092,11.8111-19.2253,51.4736-16.3287,88.5838,6.47,37.113,22.8004,57.6199,56.869,45.8088,76.0943Z"/>
          <path class="cls-165" d="M472.3109,315.0174c-11.7102,19.0611-51.036,16.191-87.8373-6.418-36.7984-22.6072-57.1366-56.3918-45.4264-75.4529,11.7119-19.0639,51.0413-16.1917,87.8397,6.4155,36.8014,22.609,57.136,56.3915,45.4241,75.4554Z"/>
          <path class="cls-37" d="M472.1544,315.0455c-11.611,18.8996-50.6037,16.054-87.0935-6.3636-36.4866-22.4156-56.6525-55.9142-45.0415-74.8138,11.6128-18.9024,50.609-16.0546,87.0956,6.361s56.6521,55.9139,45.0394,74.8164Z"/>
          <path class="cls-141" d="M471.9979,315.0736c-11.5118,18.7381-50.1714,15.9169-86.3496-6.3093-36.1748-22.2241-56.1684-55.4365-44.6566-74.1746,11.5136-18.741,50.1767-15.9175,86.3515,6.3065,36.1782,22.2262,56.1682,55.4364,44.6547,74.1774Z"/>
          <path class="cls-159" d="M471.8413,315.1016c-11.4126,18.5767-49.7391,15.7798-85.6057-6.2549-35.863-22.0325-55.6843-54.9588-44.2716-73.5355,11.4144-18.5795,49.7444-15.7805,85.6074,6.252,35.8666,22.0347,55.6843,54.9589,44.27,73.5384Z"/>
          <path class="cls-136" d="M471.6848,315.1297c-11.3134,18.4152-49.3068,15.6428-84.8618-6.2005-35.5512-21.8409-55.2002-54.4812-43.8867-72.8964s49.3121-15.6434,84.8633,6.1975c35.555,21.8433,55.2004,54.4813,43.8852,72.8994Z"/>
          <path class="cls-201" d="M471.5283,315.1578c-11.2143,18.2538-48.8745,15.5057-84.118-6.1462-35.2394-21.6494-54.7161-54.0035-43.5018-72.2573,11.216-18.2566,48.8798-15.5063,84.1192,6.143,35.2434,21.6519,54.7165,54.0038,43.5005,72.2604Z"/>
          <path class="cls-85" d="M471.3718,315.1859c-11.1151,18.0923-48.4422,15.3686-83.3741-6.0918-34.9276-21.4578-54.2319-53.5258-43.1169-71.6182,11.1168-18.0952,48.4476-15.3693,83.3751,6.0885,34.9319,21.4605,54.2326,53.5263,43.1158,71.6214Z"/>
          <path class="cls-90" d="M471.2153,315.214c-11.0159,17.9309-48.0099,15.2316-82.6302-6.0375-34.6158-21.2663-53.7478-53.0482-42.7319-70.979,11.0176-17.9337,48.0153-15.2322,82.631,6.0341,34.6203,21.269,53.7487,53.0487,42.7311,70.9825Z"/>
          <path class="cls-140" d="M471.0588,315.2421c-10.9167,17.7694-47.5776,15.0945-81.8863-5.9831-34.304-21.0747-53.2637-52.5705-42.347-70.3399,10.9184-17.7723,47.583-15.0952,81.887,5.9796,34.3087,21.0776,53.2648,52.5712,42.3464,70.3435Z"/>
          <path class="cls-4" d="M470.9023,315.2702c-10.8175,17.608-47.1454,14.9575-81.1425-5.9287s-52.7796-52.0928-41.9621-69.7008c10.8193-17.6108,47.1507-14.9581,81.1429,5.9251,33.9971,20.8862,52.7809,52.0936,41.9617,69.7045Z"/>
          <path class="cls-68" d="M470.7457,315.2983c-10.7183,17.4465-46.7131,14.8204-80.3986-5.8744-33.6804-20.6916-52.2955-51.6152-41.5772-69.0617s46.7184-14.821,80.3988,5.8706c33.6855,20.6948,52.297,51.6161,41.577,69.0655Z"/>
          <path class="cls-83" d="M470.5892,315.3263c-10.6191,17.2851-46.2808,14.6833-79.6547-5.82-33.3686-20.5001-51.8114-51.1375-41.1923-68.4226,10.6209-17.2879,46.2861-14.684,79.6547,5.8161s51.8131,51.1386,41.1923,68.4265Z"/>
          <path class="cls-84" d="M470.4327,315.3544c-10.5199,17.1236-45.8485,14.5463-78.9108-5.7657-33.0568-20.3085-51.3273-50.6598-40.8073-67.7834,10.5217-17.1265,45.8538-14.5469,78.9106,5.7616,33.0623,20.3119,51.3292,50.661,40.8076,67.7875Z"/>
          <path class="cls-89" d="M470.2762,315.3825c-10.4207,16.9622-45.4162,14.4092-78.1669-5.7113-32.745-20.1169-50.8432-50.1822-40.4224-67.1443s45.4215-14.4099,78.1665,5.7071c32.7508,20.1205,50.8454,50.1835,40.4228,67.1485Z"/>
          <path class="cls-21" d="M470.1197,315.4106c-10.3216,16.8007-44.9839,14.2721-77.4231-5.6569-32.4332-19.9254-50.359-49.7045-40.0375-66.5052,10.3233-16.8036,44.9892-14.2728,77.4224,5.6526s50.3615,49.706,40.0381,66.5095Z"/>
          <path class="cls-12" d="M469.9632,315.4387c-10.2224,16.6393-44.5516,14.1351-76.6792-5.6026-32.1214-19.7338-49.8749-49.2268-39.6526-65.8661,10.2241-16.6421,44.557-14.1357,76.6783,5.5981,32.1276,19.7376,49.8776,49.2284,39.6534,65.8706Z"/>
          <path class="cls-54" d="M469.8067,315.4668c-10.1232,16.4778-44.1193,13.998-75.9353-5.5482s-49.3908-48.7491-39.2676-65.227c10.1249-16.4807,44.1247-13.9987,75.9342,5.5436,31.816,19.5462,49.3937,48.7509,39.2687,65.2316Z"/>
          <path class="cls-112" d="M469.6501,315.4949c-10.024,16.3164-43.687,13.861-75.1914-5.4938-31.4978-19.3507-48.9067-48.2715-38.8827-64.5878s43.6924-13.8616,75.1901,5.4891c31.5044,19.3548,48.9098,48.2734,38.884,64.5926Z"/>
          <path class="cls-3" d="M469.4936,315.523c-9.9248,16.1549-43.2547,13.7239-74.4476-5.4395-31.186-19.1592-48.4226-47.7938-38.4978-63.9487,9.9266-16.1578,43.2601-13.7246,74.4461,5.4346,31.1928,19.1634,48.4259,47.7958,38.4993,63.9536Z"/>
          <path class="cls-144" d="M469.3371,315.551c-9.8256,15.9935-42.8225,13.5868-73.7037-5.3851-30.8742-18.9676-47.9385-47.3161-38.1129-63.3096,9.8274-15.9963,42.8278-13.5875,73.702,5.3801,30.8812,18.972,47.942,47.3183,38.1146,63.3146Z"/>
          <path class="cls-80" d="M469.1806,315.5791c-9.7264,15.832-42.3902,13.4498-72.9598-5.3308-30.5624-18.7761-47.4544-46.8385-37.7279-62.6705,9.7282-15.8349,42.3955-13.4504,72.9579,5.3256,30.5696,18.7805,47.4581,46.8407,37.7299,62.6756Z"/>
          <path class="cls-128" d="M469.0241,315.6072c-9.6272,15.6706-41.9579,13.3127-72.2159-5.2764-30.2506-18.5845-46.9703-46.3608-37.343-62.0314,9.629-15.6734,41.9632-13.3134,72.2138,5.2711,30.2581,18.5891,46.9742,46.3632,37.3452,62.0366Z"/>
          <path class="cls-104" d="M468.8676,315.6353c-9.5281,15.5091-41.5256,13.1756-71.4721-5.222-29.9388-18.3929-46.4861-45.8831-36.9581-61.3923,9.5298-15.512,41.5309-13.1763,71.4697,5.2166,29.9465,18.3977,46.4903,45.8857,36.9605,61.3977Z"/>
          <path class="cls-81" d="M468.7111,315.6634c-9.4289,15.3477-41.0933,13.0386-70.7282-5.1677-29.627-18.2014-46.002-45.4055-36.5732-60.7531s41.0986-13.0392,70.7256,5.1621c29.6349,18.2063,46.0064,45.4081,36.5757,60.7587Z"/>
          <path class="cls-39" d="M468.5545,315.6915c-9.3297,15.1862-40.661,12.9015-69.9843-5.1133-29.3152-18.0098-45.5179-44.9278-36.1882-60.114s40.6663-12.9022,69.9815,5.1077c29.3233,18.0148,45.5225,44.9306,36.191,60.1197Z"/>
          <path class="cls-44" d="M468.398,315.7196c-9.2305,15.0248-40.2287,12.7644-69.2404-5.059-29.0034-17.8183-45.0338-44.4501-35.8033-59.4749,9.2323-15.0276,40.2341-12.7651,69.2374,5.0532,29.0117,17.8234,45.0386,44.4531,35.8063,59.4807Z"/>
          <path class="cls-29" d="M468.2415,315.7477c-9.1313,14.8633-39.7964,12.6274-68.4965-5.0046-28.6916-17.6267-44.5497-43.9725-35.4184-58.8358,9.1331-14.8662,39.8018-12.6281,68.4933,4.9987,28.7001,17.632,44.5547,43.9755,35.4216,58.8417Z"/>
          <path class="cls-120" d="M468.085,315.7758c-9.0321,14.7018-39.3641,12.4903-67.7527-4.9502s-44.0656-43.4948-35.0335-58.1967c9.0339-14.7047,39.3695-12.491,67.7493,4.9442,28.3885,17.4406,44.0708,43.498,35.0369,58.2027Z"/>
          <path class="cls-10" d="M467.9285,315.8038c-8.9329,14.5404-38.9318,12.3533-67.0088-4.8959-28.068-17.2436-43.5815-43.0171-34.6486-57.5575,8.9347-14.5433,38.9372-12.3539,67.0052,4.8897,28.077,17.2491,43.5869,43.0205,34.6522,57.5637Z"/>
          <path class="cls-146" d="M467.772,315.8319c-8.8337,14.3789-38.4996,12.2162-66.2649-4.8415-27.7562-17.0521-43.0974-42.5395-34.2636-56.9184s38.5049-12.2169,66.2611,4.8352c27.7654,17.0577,43.103,42.5429,34.2675,56.9247Z"/>
          <path class="cls-69" d="M467.6155,315.86c-8.7345,14.2175-38.0673,12.0791-65.521-4.7872-27.4444-16.8605-42.6133-42.0618-33.8787-56.2793s38.0726-12.0798,65.517,4.7807c27.4538,16.8663,42.6191,42.0654,33.8828,56.2858Z"/>
          <path class="cls-207" d="M467.459,315.8881c-8.6354,14.056-37.635,11.9421-64.7772-4.7328-27.1326-16.669-42.1291-41.5841-33.4938-55.6402,8.6371-14.0589,37.6403-11.9428,64.7729,4.7262,27.1422,16.6749,42.1352,41.5878,33.4981,55.6468Z"/>
          <path class="cls-79" d="M467.3024,315.9162c-8.5362,13.8946-37.2027,11.805-64.0333-4.6784s-41.645-41.1065-33.1089-55.0011,37.208-11.8057,64.0288,4.6717,41.6513,41.1103,33.1133,55.0078Z"/>
          <path class="cls-167" d="M467.1459,315.9443c-8.437,13.7331-36.7704,11.6679-63.2894-4.6241-26.509-16.2858-41.1609-40.6288-32.7239-54.3619,8.4388-13.736,36.7757-11.6686,63.2847,4.6172,26.519,16.292,41.1674,40.6328,32.7286,54.3688Z"/>
          <path class="cls-156" d="M466.9894,315.9724c-8.3378,13.5717-36.3381,11.5309-62.5455-4.5697-26.1972-16.0943-40.6768-40.1511-32.339-53.7228,8.3396-13.5746,36.3435-11.5316,62.5406,4.5627,26.2074,16.1006,40.6835,40.1552,32.3439,53.7298Z"/>
          <path class="cls-223" d="M466.8329,316.0005c-8.2386,13.4102-35.9058,11.3938-61.8017-4.5153-25.8854-15.9027-40.1927-39.6735-31.9541-53.0837,8.2404-13.4131,35.9112-11.3945,61.7965,4.5082,25.8958,15.9092,40.1996,39.6777,31.9592,53.0908Z"/>
          <path class="cls-188" d="M466.6764,316.0285c-8.1394,13.2488-35.4735,11.2568-61.0578-4.461-25.5736-15.7112-39.7086-39.1958-31.5692-52.4446s35.4789-11.2575,61.0524,4.4537c25.5843,15.7177,39.7157,39.2002,31.5745,52.4518Z"/>
          <path class="cls-194" d="M466.5199,316.0566c-8.0402,13.0873-35.0412,11.1197-60.3139-4.4066s-39.2245-38.7181-31.1842-51.8055c8.042-13.0902,35.0466-11.1204,60.3084,4.3992,25.2727,15.5263,39.2318,38.7226,31.1898,51.8129Z"/>
        </g>
      </g>
    </g>
  </g>
</svg>